<?xml version="1.0" encoding="UTF-8"?>
<svg width="412px" height="122px" viewBox="0 0 412 122" version="1.1" xmlns="http://www.w3.org/2000/svg" xmlns:xlink="http://www.w3.org/1999/xlink">
    <!-- Generator: Sketch 59.1 (86144) - https://sketch.com -->
    <title>memm</title>
    <desc>Created with Sketch.</desc>
    <g id="memm" stroke="none" stroke-width="1" fill="none" fill-rule="evenodd">
        <g transform="translate(-10.000000, -8.000000)">
            <g id="node" transform="translate(90.000000, 0.000000)">
                <circle id="Oval" stroke="#000000" stroke-width="2" cx="30" cy="29" r="20"></circle>
                <text id="x1" font-family="STIXGeneral-Italic, STIXGeneral" font-size="30" font-style="italic" font-weight="normal" fill="#000000">
                    <tspan x="18.84" y="32">x</tspan>
                    <tspan x="32.16" y="40" font-family="STIXGeneral-Regular, STIXGeneral" font-size="18">1</tspan>
                </text>
            </g>
            <g id="node" transform="translate(190.000000, 0.000000)">
                <circle id="Oval" stroke="#000000" stroke-width="2" cx="30" cy="29" r="20"></circle>
                <text id="x2" font-family="STIXGeneral-Italic, STIXGeneral" font-size="30" font-style="italic" font-weight="normal" fill="#000000">
                    <tspan x="18.84" y="32">x</tspan>
                    <tspan x="32.16" y="40" font-family="STIXGeneral-Regular, STIXGeneral" font-size="18">2</tspan>
                </text>
            </g>
            <g id="node" transform="translate(90.000000, 80.000000)">
                <circle id="Oval" stroke="#000000" stroke-width="2" fill="#D8D8D8" cx="30" cy="29" r="20"></circle>
                <text id="y1" font-family="STIXGeneral-Italic, STIXGeneral" font-size="30" font-style="italic" font-weight="normal" fill="#000000">
                    <tspan x="18.84" y="32">y</tspan>
                    <tspan x="32.16" y="40" font-family="STIXGeneral-Regular, STIXGeneral" font-size="18">1</tspan>
                </text>
            </g>
            <g id="node" transform="translate(190.000000, 80.000000)">
                <circle id="Oval" stroke="#000000" stroke-width="2" fill="#D8D8D8" cx="30" cy="29" r="20"></circle>
                <text id="y2" font-family="STIXGeneral-Italic, STIXGeneral" font-size="30" font-style="italic" font-weight="normal" fill="#000000">
                    <tspan x="18.84" y="32">y</tspan>
                    <tspan x="32.16" y="40" font-family="STIXGeneral-Regular, STIXGeneral" font-size="18">2</tspan>
                </text>
            </g>
            <g id="node" transform="translate(0.000000, 89.000000)">
                <circle id="Oval" stroke="#000000" stroke-width="2" fill="#D8D8D8" cx="31" cy="20" r="20"></circle>
                <text id="&lt;s&gt;" font-family="ArialNarrow, Arial Narrow" font-size="20" font-weight="normal" letter-spacing="-2.1" fill="#000000">
                    <tspan x="14.568457" y="27">&lt;</tspan>
                    <tspan x="22.0485352" y="27" font-family="CourierNewPSMT, Courier New" font-size="30">s</tspan>
                    <tspan x="37.9514648" y="27">&gt;</tspan>
                </text>
            </g>
            <g id="node" transform="translate(371.000000, 0.000000)">
                <circle id="Oval" stroke="#000000" stroke-width="2" cx="30" cy="29" r="20"></circle>
                <text id="xT" font-family="STIXGeneral-Italic, STIXGeneral" font-size="30" font-style="italic" font-weight="normal" fill="#000000">
                    <tspan x="18.336" y="32">x</tspan>
                    <tspan x="31.656" y="40" font-size="18">T</tspan>
                </text>
            </g>
            <g id="node" transform="translate(371.000000, 80.000000)">
                <circle id="Oval" stroke="#000000" stroke-width="2" fill="#D8D8D8" cx="30" cy="29" r="20"></circle>
                <text id="yT" font-family="STIXGeneral-Italic, STIXGeneral" font-size="30" font-style="italic" font-weight="normal" fill="#000000">
                    <tspan x="18.336" y="32">y</tspan>
                    <tspan x="31.656" y="40" font-size="18">T</tspan>
                </text>
            </g>
            <g id="arrows" transform="translate(50.500000, 48.500000)" fill="#000000" fill-rule="nonzero">
                <path id="Line" d="M70.5,1.5 L70.5,30.5 L74.5,30.5 L70,39.5 L65.5,30.5 L69.5,30.5 L69.5,1.5 L70.5,1.5 Z"></path>
                <path id="Line" d="M39.265625,54.5 L48.265625,59 L39.265625,63.5 L39.265,59.5 L-0.5,59.5 L-0.5,58.5 L39.265,58.5 L39.265625,54.5 Z"></path>
                <path id="Line" d="M140.5,54.5 L149.5,59 L140.5,63.5 L140.5,59.5 L89,59.5 L89,58.5 L140.5,58.5 L140.5,54.5 Z"></path>
                <path id="Line" d="M212.25,54.5 L221.25,59 L212.25,63.5 L212.25,59.5 L189.75,59.5 L189.75,58.5 L212.25,58.5 L212.25,54.5 Z"></path>
                <path id="Line" d="M170,0 L170,31 L174,31 L169.5,40 L165,31 L169,31 L169,0 L170,0 Z"></path>
                <path id="Line" d="M351,0 L351,31 L355,31 L350.5,40 L346,31 L350,31 L350,0 L351,0 Z"></path>
                <path id="Line" d="M321.213402,54.569821 L330.249983,58.9959018 L321.28717,63.5695186 L321.254,59.569 L298.754115,59.7540814 L298.745919,58.754115 L321.246,58.569 L321.213402,54.569821 Z"></path>
            </g>
            <g id="ellipse" transform="translate(290.000000, 103.000000)" fill="#000000">
                <circle id="Oval" cx="4" cy="4" r="4"></circle>
                <circle id="Oval" cx="23" cy="4" r="4"></circle>
                <circle id="Oval" cx="42" cy="4" r="4"></circle>
            </g>
        </g>
    </g>
</svg>
