<?xml version="1.0" encoding="UTF-8"?>
<svg width="490px" height="160px" viewBox="0 0 490 160" version="1.1" xmlns="http://www.w3.org/2000/svg" xmlns:xlink="http://www.w3.org/1999/xlink">
    <!-- Generator: Sketch 46.2 (44496) - http://www.bohemiancoding.com/sketch -->
    <title>wer</title>
    <desc>Created with Sketch.</desc>
    <defs></defs>
    <g id="Page-1" stroke="none" stroke-width="1" fill="none" fill-rule="evenodd">
        <g id="wer">
            <g id="axes_1" transform="translate(43.000000, 0.000000)">
                <g id="line2d_1" stroke-dasharray="6,6" transform="translate(37.000000, 16.000000)" stroke="#000000">
                    <polyline id="Shape" points="0.010872 0.72 21.309582 7.2 69.318968 30.96 111.567227 50.4 175.288776 62.28 239.010325 88.2 313.555808 103.32 324.379742 106.56 329.617129 110.88 355.978647 115.2 382.689323 119.52"></polyline>
                </g>
                <g id="line2d_2" transform="translate(35.000000, 14.000000)" stroke-width="0.5" stroke="#000000" fill="#000000" fill-rule="nonzero">
                    <g id="Group">
                        <g id="m2205650df9-link" transform="translate(0.010872, 0.720000)">
                            <path d="M2,4 C2.530406,4 3.03916,3.789267 3.414214,3.414214 C3.789267,3.03916 4,2.530406 4,2 C4,1.469594 3.789267,0.96084 3.414214,0.585786 C3.03916,0.210733 2.530406,2.84217094e-14 2,2.84217094e-14 C1.469594,2.84217094e-14 0.96084,0.210733 0.585786,0.585786 C0.210733,0.96084 -2.84217094e-14,1.469594 -2.84217094e-14,2 C-2.84217094e-14,2.530406 0.210733,3.03916 0.585786,3.414214 C0.96084,3.789267 1.469594,4 2,4 Z" id="m2205650df9"></path>
                        </g>
                        <g id="m2205650df9-link" transform="translate(21.309582, 7.200000)">
                            <path d="M2,4 C2.530406,4 3.03916,3.789267 3.414214,3.414214 C3.789267,3.03916 4,2.530406 4,2 C4,1.469594 3.789267,0.96084 3.414214,0.585786 C3.03916,0.210733 2.530406,-1.42108547e-14 2,-1.42108547e-14 C1.469594,-1.42108547e-14 0.96084,0.210733 0.585786,0.585786 C0.210733,0.96084 0,1.469594 0,2 C0,2.530406 0.210733,3.03916 0.585786,3.414214 C0.96084,3.789267 1.469594,4 2,4 Z" id="m2205650df9"></path>
                        </g>
                        <g id="m2205650df9-link" transform="translate(69.318968, 30.960000)">
                            <path d="M2,4 C2.530406,4 3.03916,3.789267 3.414214,3.414214 C3.789267,3.03916 4,2.530406 4,2 C4,1.469594 3.789267,0.96084 3.414214,0.585786 C3.03916,0.210733 2.530406,-1.42108547e-14 2,-1.42108547e-14 C1.469594,-1.42108547e-14 0.96084,0.210733 0.585786,0.585786 C0.210733,0.96084 2.84217094e-14,1.469594 2.84217094e-14,2 C2.84217094e-14,2.530406 0.210733,3.03916 0.585786,3.414214 C0.96084,3.789267 1.469594,4 2,4 Z" id="m2205650df9"></path>
                        </g>
                        <g id="m2205650df9-link" transform="translate(111.567227, 50.400000)">
                            <path d="M2,4 C2.530406,4 3.03916,3.789267 3.414214,3.414214 C3.789267,3.03916 4,2.530406 4,2 C4,1.469594 3.789267,0.96084 3.414214,0.585786 C3.03916,0.210733 2.530406,-2.84217094e-14 2,-2.84217094e-14 C1.469594,-2.84217094e-14 0.96084,0.210733 0.585786,0.585786 C0.210733,0.96084 -2.84217094e-14,1.469594 -2.84217094e-14,2 C-2.84217094e-14,2.530406 0.210733,3.03916 0.585786,3.414214 C0.96084,3.789267 1.469594,4 2,4 Z" id="m2205650df9"></path>
                        </g>
                        <g id="m2205650df9-link" transform="translate(175.288776, 62.280000)">
                            <path d="M2,4 C2.530406,4 3.03916,3.789267 3.414214,3.414214 C3.789267,3.03916 4,2.530406 4,2 C4,1.469594 3.789267,0.96084 3.414214,0.585786 C3.03916,0.210733 2.530406,-2.84217094e-14 2,-2.84217094e-14 C1.469594,-2.84217094e-14 0.96084,0.210733 0.585786,0.585786 C0.210733,0.96084 -5.68434189e-14,1.469594 -5.68434189e-14,2 C-5.68434189e-14,2.530406 0.210733,3.03916 0.585786,3.414214 C0.96084,3.789267 1.469594,4 2,4 Z" id="m2205650df9"></path>
                        </g>
                        <g id="m2205650df9-link" transform="translate(239.010325, 88.200000)">
                            <path d="M2,4 C2.530406,4 3.03916,3.789267 3.414214,3.414214 C3.789267,3.03916 4,2.530406 4,2 C4,1.469594 3.789267,0.96084 3.414214,0.585786 C3.03916,0.210733 2.530406,0 2,0 C1.469594,0 0.96084,0.210733 0.585786,0.585786 C0.210733,0.96084 0,1.469594 0,2 C0,2.530406 0.210733,3.03916 0.585786,3.414214 C0.96084,3.789267 1.469594,4 2,4 Z" id="m2205650df9"></path>
                        </g>
                        <g id="m2205650df9-link" transform="translate(313.555808, 103.320000)">
                            <path d="M2,4 C2.530406,4 3.03916,3.789267 3.414214,3.414214 C3.789267,3.03916 4,2.530406 4,2 C4,1.469594 3.789267,0.96084 3.414214,0.585786 C3.03916,0.210733 2.530406,0 2,0 C1.469594,0 0.96084,0.210733 0.585786,0.585786 C0.210733,0.96084 0,1.469594 0,2 C0,2.530406 0.210733,3.03916 0.585786,3.414214 C0.96084,3.789267 1.469594,4 2,4 Z" id="m2205650df9"></path>
                        </g>
                        <g id="m2205650df9-link" transform="translate(324.379742, 106.560000)">
                            <path d="M2,4 C2.530406,4 3.03916,3.789267 3.414214,3.414214 C3.789267,3.03916 4,2.530406 4,2 C4,1.469594 3.789267,0.96084 3.414214,0.585786 C3.03916,0.210733 2.530406,0 2,0 C1.469594,0 0.96084,0.210733 0.585786,0.585786 C0.210733,0.96084 -5.68434189e-14,1.469594 -5.68434189e-14,2 C-5.68434189e-14,2.530406 0.210733,3.03916 0.585786,3.414214 C0.96084,3.789267 1.469594,4 2,4 Z" id="m2205650df9"></path>
                        </g>
                        <g id="m2205650df9-link" transform="translate(329.617129, 110.880000)">
                            <path d="M2,4 C2.530406,4 3.03916,3.789267 3.414214,3.414214 C3.789267,3.03916 4,2.530406 4,2 C4,1.469594 3.789267,0.96084 3.414214,0.585786 C3.03916,0.210733 2.530406,0 2,0 C1.469594,0 0.96084,0.210733 0.585786,0.585786 C0.210733,0.96084 0,1.469594 0,2 C0,2.530406 0.210733,3.03916 0.585786,3.414214 C0.96084,3.789267 1.469594,4 2,4 Z" id="m2205650df9"></path>
                        </g>
                        <g id="m2205650df9-link" transform="translate(355.978647, 115.200000)">
                            <path d="M2,4 C2.530406,4 3.03916,3.789267 3.414214,3.414214 C3.789267,3.03916 4,2.530406 4,2 C4,1.469594 3.789267,0.96084 3.414214,0.585786 C3.03916,0.210733 2.530406,0 2,0 C1.469594,0 0.96084,0.210733 0.585786,0.585786 C0.210733,0.96084 0,1.469594 0,2 C0,2.530406 0.210733,3.03916 0.585786,3.414214 C0.96084,3.789267 1.469594,4 2,4 Z" id="m2205650df9"></path>
                        </g>
                        <g id="m2205650df9-link" transform="translate(382.689323, 119.520000)">
                            <path d="M2,4 C2.530406,4 3.03916,3.789267 3.414214,3.414214 C3.789267,3.03916 4,2.530406 4,2 C4,1.469594 3.789267,0.96084 3.414214,0.585786 C3.03916,0.210733 2.530406,-2.84217094e-14 2,-2.84217094e-14 C1.469594,-2.84217094e-14 0.96084,0.210733 0.585786,0.585786 C0.210733,0.96084 0,1.469594 0,2 C0,2.530406 0.210733,3.03916 0.585786,3.414214 C0.96084,3.789267 1.469594,4 2,4 Z" id="m2205650df9"></path>
                        </g>
                    </g>
                </g>
                <g id="line2d_4" opacity="0.696388134" stroke-dasharray="6,6" transform="translate(0.000000, 126.000000)" stroke="#CD5C5C">
                    <path d="M0,0.88 L446.4,0.88" id="Shape"></path>
                </g>
                <g id="patch_3" stroke-linecap="square" stroke="#000000">
                    <path d="M0,0.6 L446.4,0.6" id="Shape"></path>
                </g>
                <g id="patch_4" stroke-linecap="square" transform="translate(446.000000, 0.000000)" stroke="#000000">
                    <path d="M0.4,147.4 L0.4,0.9" id="Shape"></path>
                </g>
                <g id="patch_5" stroke-linecap="square" transform="translate(0.000000, 147.000000)" stroke="#000000">
                    <path d="M0,0.4 L446.4,0.4" id="Shape"></path>
                </g>
                <g id="patch_6" stroke-linecap="square" stroke="#000000">
                    <path d="M0,147.4 L0,0.9" id="Shape"></path>
                </g>
                <g id="matplotlib.axis_1" transform="translate(63.000000, 143.000000)" stroke-width="0.5" stroke="#000000" fill="#000000" fill-rule="nonzero">
                    <g id="xtick_2">
                        <g id="line2d_7">
                            <g id="m55196ba07a-link" transform="translate(0.721549, 0.400000)">
                                <path d="M0,4 L0,-2.84217094e-14" id="m55196ba07a"></path>
                            </g>
                        </g>
                    </g>
                    <g id="xtick_3" transform="translate(64.000000, 0.000000)">
                        <g id="line2d_9">
                            <g id="m55196ba07a-link" transform="translate(0.617677, 0.400000)">
                                <path d="M0,4 L0,-2.84217094e-14" id="m55196ba07a"></path>
                            </g>
                        </g>
                    </g>
                    <g id="xtick_4" transform="translate(128.000000, 0.000000)">
                        <g id="line2d_11">
                            <g id="m55196ba07a-link" transform="translate(0.339226, 0.400000)">
                                <path d="M0,4 L0,-2.84217094e-14" id="m55196ba07a"></path>
                            </g>
                        </g>
                    </g>
                    <g id="xtick_5" transform="translate(192.000000, 0.000000)">
                        <g id="line2d_13">
                            <g id="m55196ba07a-link" transform="translate(0.060774, 0.400000)">
                                <path d="M0,4 L0,-2.84217094e-14" id="m55196ba07a"></path>
                            </g>
                        </g>
                    </g>
                    <g id="xtick_6" transform="translate(255.000000, 0.000000)">
                        <g id="line2d_15">
                            <g id="m55196ba07a-link" transform="translate(0.782323, 0.400000)">
                                <path d="M0,4 L0,-2.84217094e-14" id="m55196ba07a"></path>
                            </g>
                        </g>
                    </g>
                    <g id="xtick_7" transform="translate(319.000000, 0.000000)">
                        <g id="line2d_17">
                            <g id="m55196ba07a-link" transform="translate(0.678451, 0.400000)">
                                <path d="M0,4 L0,-2.84217094e-14" id="m55196ba07a"></path>
                            </g>
                        </g>
                    </g>
                </g>
                <g id="matplotlib.axis_2" transform="translate(0.000000, 17.000000)" stroke-width="0.5" stroke="#000000" fill="#000000" fill-rule="nonzero">
                    <g id="ytick_2" transform="translate(0.000000, 108.000000)">
                        <g id="line2d_23">
                            <g id="mde76d81391-link" transform="translate(0.000000, 0.800000)">
                                <path d="M0,0 L4,0" id="mde76d81391"></path>
                            </g>
                        </g>
                    </g>
                    <g id="ytick_3" transform="translate(0.000000, 87.000000)">
                        <g id="line2d_25">
                            <g id="mde76d81391-link" transform="translate(0.000000, 0.200000)">
                                <path d="M0,0 L4,0" id="mde76d81391"></path>
                            </g>
                        </g>
                    </g>
                    <g id="ytick_4" transform="translate(0.000000, 65.000000)">
                        <g id="line2d_27">
                            <g id="mde76d81391-link" transform="translate(0.000000, 0.600000)">
                                <path d="M0,0 L4,0" id="mde76d81391"></path>
                            </g>
                        </g>
                    </g>
                    <g id="ytick_5" transform="translate(0.000000, 44.000000)">
                        <g id="line2d_29">
                            <g id="mde76d81391-link">
                                <path d="M0,0 L4,0" id="mde76d81391"></path>
                            </g>
                        </g>
                    </g>
                    <g id="ytick_6" transform="translate(0.000000, 22.000000)">
                        <g id="line2d_31">
                            <g id="mde76d81391-link" transform="translate(0.000000, 0.400000)">
                                <path d="M0,0 L4,0" id="mde76d81391"></path>
                            </g>
                        </g>
                    </g>
                    <g id="ytick_7">
                        <g id="line2d_33">
                            <g id="mde76d81391-link" transform="translate(0.000000, 0.800000)">
                                <path d="M0,0 L4,0" id="mde76d81391"></path>
                            </g>
                        </g>
                    </g>
                </g>
            </g>
            <g id="Group-2" transform="translate(323.000000, 66.000000)">
                <path d="M0.5,30.5 L9.5,14.5" id="Line" stroke="#000000" stroke-width="0.7" opacity="0.604619565" stroke-linecap="square"></path>
                <g id="7x-more-data" opacity="0.600883152" transform="translate(10.000000, 0.000000)" font-size="10" font-family="Helvetica" fill="#000000" font-weight="normal">
                    <g id="Group">
                        <text id="7x-more-data">
                            <tspan x="0" y="10">7x more data</tspan>
                        </text>
                    </g>
                </g>
            </g>
            <g id="Group-2" transform="translate(61.000000, 24.000000)">
                <path d="M18.5,15.5 L18.5,0.5" id="Line" stroke="#000000" stroke-width="0.7" opacity="0.604619565" stroke-linecap="square"></path>
                <g id="first-DNN" opacity="0.600883152" transform="translate(0.000000, 18.000000)" font-size="10" font-family="Helvetica" fill="#000000" font-weight="normal">
                    <g id="Group">
                        <text id="first-DNN">
                            <tspan x="0" y="10">first DNN</tspan>
                        </text>
                    </g>
                </g>
            </g>
            <g id="Group-2" transform="translate(154.000000, 24.000000)">
                <path d="M0.5,19.5 L11.5,11.5" id="Line" stroke="#000000" stroke-width="0.7" opacity="0.604619565" stroke-linecap="square"></path>
                <g id="sequence-loss" opacity="0.600883152" transform="translate(15.000000, 0.000000)" font-size="10" font-family="Helvetica" fill="#000000" font-weight="normal">
                    <g id="Group">
                        <text id="sequence-loss">
                            <tspan x="0" y="10">sequence loss</tspan>
                        </text>
                    </g>
                </g>
            </g>
            <g id="Group-2" opacity="0.600883152" transform="translate(71.000000, 111.000000)" font-size="10" font-family="Helvetica" fill="#000000" font-weight="normal">
                <g id="Human-Level">
                    <text id="human-level">
                        <tspan x="0" y="10">human level</tspan>
                    </text>
                </g>
            </g>
            <g id="x_labels" transform="translate(95.000000, 149.000000)" font-size="10" font-family="Helvetica" fill="#000000" font-weight="normal">
                <g id="2012">
                    <text>
                        <tspan x="0" y="10">2012</tspan>
                    </text>
                </g>
                <g id="2013" transform="translate(64.000000, 0.000000)">
                    <g id="Group">
                        <text id="2013">
                            <tspan x="0" y="10">2013</tspan>
                        </text>
                    </g>
                </g>
                <g id="2014" transform="translate(128.000000, 0.000000)">
                    <g id="Group">
                        <text id="2014">
                            <tspan x="0" y="10">2014</tspan>
                        </text>
                    </g>
                </g>
                <g id="2015" transform="translate(191.000000, 0.000000)">
                    <g id="Group">
                        <text id="2015">
                            <tspan x="0" y="10">2015</tspan>
                        </text>
                    </g>
                </g>
                <g id="2016" transform="translate(255.000000, 0.000000)">
                    <g id="Group">
                        <text id="2016">
                            <tspan x="0" y="10">2016</tspan>
                        </text>
                    </g>
                </g>
                <g id="2017" transform="translate(319.000000, 0.000000)">
                    <g id="Group">
                        <text id="2017">
                            <tspan x="0" y="10">2017</tspan>
                        </text>
                    </g>
                </g>
            </g>
            <g id="y_labels" transform="translate(28.000000, 11.000000)" font-size="10" font-family="Helvetica" fill="#000000" font-weight="normal">
                <g id="6" transform="translate(5.000000, 108.000000)">
                    <g id="Group">
                        <text id="6">
                            <tspan x="0" y="10">6</tspan>
                        </text>
                    </g>
                </g>
                <g id="7" transform="translate(5.000000, 86.000000)">
                    <g id="8">
                        <text>
                            <tspan x="0" y="10">8</tspan>
                        </text>
                    </g>
                </g>
                <g id="8" transform="translate(0.000000, 65.000000)">
                    <g id="10">
                        <text>
                            <tspan x="0" y="10">10</tspan>
                        </text>
                    </g>
                </g>
                <g id="9" transform="translate(0.000000, 43.000000)">
                    <g id="12">
                        <text>
                            <tspan x="0" y="10">12</tspan>
                        </text>
                    </g>
                </g>
                <g id="10" transform="translate(0.000000, 22.000000)">
                    <g id="14">
                        <text>
                            <tspan x="0" y="10">14</tspan>
                        </text>
                    </g>
                </g>
                <g id="11">
                    <text id="16">
                        <tspan x="0" y="10">16</tspan>
                    </text>
                </g>
            </g>
            <text id="word-error-rate" font-family="Helvetica" font-size="10" font-weight="normal" fill="#000000">
                <tspan x="0.662597656" y="66">word</tspan>
                <tspan x="0.943359375" y="78">error</tspan>
                <tspan x="2.88427734" y="90">rate</tspan>
            </text>
        </g>
    </g>
</svg>