<?xml version="1.0" encoding="UTF-8"?>
<svg width="558px" height="353px" viewBox="0 0 558 353" version="1.1" xmlns="http://www.w3.org/2000/svg" xmlns:xlink="http://www.w3.org/1999/xlink">
    <!-- Generator: Sketch 47.1 (45422) - http://www.bohemiancoding.com/sketch -->
    <title>loss_cer</title>
    <desc>Created with Sketch.</desc>
    <defs></defs>
    <g id="Page-1" stroke="none" stroke-width="1" fill="none" fill-rule="evenodd">
        <g id="loss_cer" transform="translate(-5.000000, 0.000000)">
            <g id="axes_1" transform="translate(33.000000, 0.000000)">
                <polyline id="Shape" stroke="#4682B4" stroke-linecap="square" points="36.3178711 0.888183594 37.941175 43.406246 40.2742 62.882153 42.607225 92.464371 44.94025 108.200553 47.273275 128.528845 49.6063 145.507735 51.939325 155.785925 54.27235 150.735801 56.605375 176.153823 58.9384 178.525118 61.271425 186.649441 65.937475 200.971975 68.2705 209.160722 70.603525 214.642106 72.93655 205.713276 75.269575 211.665346 77.6026 206.154372 79.935625 223.113958 82.26865 226.320957 84.601675 231.927512 86.9347 230.267412 89.267725 225.24993 91.60075 237.075526 93.933775 236.780627 96.2668 240.440906 98.599825 251.404651 100.93285 232.426833 103.265875 251.133652 105.5989 251.598453 107.931925 249.652098 110.26495 245.690075 112.597975 251.935382 114.931 251.171947 117.264025 253.771604 119.59705 242.635396 121.930075 263.068911 124.2631 251.858069 126.596125 256.358725 128.92915 259.900795 131.262175 262.765192 133.5952 270.118178 135.928225 257.856004 138.26125 264.863905 140.594275 256.911616 142.9273 269.753965 145.260325 260.538764 147.59335 265.74289 149.926375 268.955521 152.2594 264.258226 154.592425 264.506381 156.92545 268.265683 159.258475 267.340756 161.5915 267.579112 163.924525 262.091607 166.25755 263.257178 168.590575 263.873673 170.9236 266.724105 173.256625 267.924842 175.58965 267.435594 177.922675 261.978482 180.2557 259.402745 182.588725 268.723306 184.92175 262.754904 187.254775 258.799296 189.5878 265.006191 191.920825 273.075183 194.25385 273.06604 196.586875 267.079243 198.9199 256.13582 201.252925 275.505027 203.58595 261.730758 205.918975 267.568511 208.252 270.727612 210.585025 265.221918 212.91805 271.077919 215.251075 269.629927 217.5841 267.116834 219.917125 270.823819 222.25015 263.674296 224.583175 267.038758 226.9162 264.996138 229.249225 274.228629 231.58225 263.905083 233.915275 268.81789 236.2483 265.761255 238.581325 274.142524 240.91435 258.234611 243.247375 259.804197 245.5804 260.873698 247.913425 260.234947 250.24645 259.145046 252.579475 259.804353 254.9125 266.478161 257.245525 264.454591 259.57855 252.140646 261.911575 256.973518 264.2446 252.040175 266.577625 264.895589 268.91065 266.311134 271.243675 249.891765 273.5767 263.048316 275.909725 262.035553 278.24275 264.670611 282.9088 251.360038 285.241825 259.249819 287.57485 247.261714 289.907875 251.805907 292.2409 251.185266 294.573925 251.987211 296.90695 264.333408 299.239975 246.118048 301.573 247.668857 303.906025 242.854331 306.23905 252.229264 308.572075 239.828891 310.9051 241.397225 313.238125 241.755922 315.57115 250.347999 317.904175 253.581205 320.2372 240.205543 322.570225 245.532886 324.90325 251.382491 327.236275 244.324912 329.5693 248.918138 331.902325 242.668391 334.23535 244.796128 336.568375 244.098937 338.9014 245.021752 341.234425 240.867002 343.56745 239.700824 345.900475 246.582203 348.2335 240.672006 352.89955 223.619147 355.232575 235.946548 357.5656 233.572377 359.898625 247.337326 362.23165 229.192747 364.564675 232.14322 366.8977 224.013753 369.230725 226.371436 371.56375 236.170079 373.896775 230.532425 376.2298 228.227315 378.562825 242.861313 380.89585 232.551967 383.228875 232.243416 385.5619 232.170855 387.894925 218.249578 390.22795 221.533772 392.560975 229.872355 394.894 218.190414 397.227025 237.498687 399.56005 225.271365 401.893075 231.324357 404.2261 218.827229 406.559125 216.743889 408.89215 216.389749 411.225175 217.142974 413.5582 236.446534 415.891225 221.328431 418.22425 231.194295 420.557275 217.820627 422.8903 213.898385 425.223325 225.898793 427.55635 220.442816 429.889375 226.3022 432.2224 217.504977 434.555425 203.211859 436.88845 214.213272 439.221475 228.571911 441.5545 199.464878 443.887525 213.235069 446.22055 195.762588 448.553575 216.272889 450.8866 216.621611 453.219625 204.209914 455.55265 218.388461 457.885675 201.863379 460.2187 211.843639 462.551725 213.823301 464.88475 207.685721 467.217775 219.967082 469.5508 209.714063 471.883825 214.852532 474.21685 210.924012 476.88623 207.185547"></polyline>
                <g id="x-ticks" transform="translate(21.000000, 304.000000)" stroke="#000000" stroke-width="0.5" fill="#000000" fill-rule="nonzero">
                    <path d="M0.61,4.34 L0.61,0.34" id="mb5ccecec8f"></path>
                    <path d="M117.26125,4.34 L117.26125,0.34" id="mb5ccecec8f"></path>
                    <path d="M233.9125,4.34 L233.9125,0.34" id="mb5ccecec8f"></path>
                    <path d="M350.56375,4.34 L350.56375,0.34" id="mb5ccecec8f"></path>
                </g>
                <g id="x-labels" transform="translate(18.000000, 310.000000)" font-size="14" font-family="Helvetica-Light, Helvetica" fill="#000000" font-weight="300">
                    <g id="0">
                        <text>
                            <tspan x="0" y="14">0</tspan>
                        </text>
                    </g>
                    <g id="50" transform="translate(112.000000, 0.000000)">
                        <text>
                            <tspan x="0" y="14">50</tspan>
                        </text>
                    </g>
                    <g id="100" transform="translate(225.000000, 0.000000)">
                        <text>
                            <tspan x="0" y="14">100</tspan>
                        </text>
                    </g>
                    <g id="150" transform="translate(342.000000, 0.000000)">
                        <text>
                            <tspan x="0" y="14">150</tspan>
                        </text>
                    </g>
                </g>
                <g id="ticks" transform="translate(21.000000, 26.000000)" stroke="#000000" fill-rule="nonzero" fill="#0000FF">
                    <path d="M0.61,256.704667 L4.61,256.704667" id="m009ea4ecf2"></path>
                    <path d="M0.61,205.434 L4.61,205.434" id="m009ea4ecf2"></path>
                    <path d="M0.61,154.163333 L4.61,154.163333" id="m009ea4ecf2"></path>
                    <path d="M0.61,102.892667 L4.61,102.892667" id="m009ea4ecf2"></path>
                    <path d="M0.61,51.622 L4.61,51.622" id="m009ea4ecf2"></path>
                    <path d="M0.61,0.351333333 L4.61,0.351333333" id="m009ea4ecf2"></path>
                </g>
                <g id="y_1_labels" transform="translate(0.000000, 16.000000)" font-size="14" font-family="Helvetica-Light, Helvetica" fill="#000000" font-weight="300">
                    <g id="80">
                        <text>
                            <tspan x="0" y="14">80</tspan>
                        </text>
                    </g>
                    <g id="70" transform="translate(0.000000, 51.000000)">
                        <text>
                            <tspan x="0" y="14">70</tspan>
                        </text>
                    </g>
                    <g id="60" transform="translate(0.000000, 102.000000)">
                        <text>
                            <tspan x="0" y="14">60</tspan>
                        </text>
                    </g>
                    <g id="50" transform="translate(0.000000, 154.000000)">
                        <text>
                            <tspan x="0" y="14">50</tspan>
                        </text>
                    </g>
                    <g id="40" transform="translate(0.000000, 205.000000)">
                        <text>
                            <tspan x="0" y="14">40</tspan>
                        </text>
                    </g>
                    <g id="30" transform="translate(0.000000, 256.000000)">
                        <text>
                            <tspan x="0" y="14">30</tspan>
                        </text>
                    </g>
                </g>
            </g>
            <g id="axes_2" transform="translate(56.000000, 0.000000)">
                <polyline id="Shape" stroke="#CD5C5C" stroke-linecap="square" points="0.943025 0.97265625 0.943025 29.659563 3.27605 51.261992 5.609075 47.949147 7.9421 3.709045 10.275125 84.183247 12.60815 77.764627 14.941175 105.39456 17.2742 116.437349 19.607225 65.571578 21.94025 162.264833 24.273275 162.264833 26.6063 200.477431 28.939325 199.672228 31.27235 201.190611 33.605375 203.583206 35.9384 210.645986 38.271425 210.484944 40.60445 222.125866 42.937475 211.24413 45.2705 223.828294 47.603525 216.558465 49.93655 237.056609 52.269575 226.427949 54.6026 237.125628 56.935625 217.271645 59.26865 244.188398 61.601675 240.369443 63.9347 223.713258 66.267725 244.648513 68.60075 243.429212 70.933775 241.450715 73.2668 226.658001 75.599825 245.384696 77.93285 251.61927 80.265875 248.927593 82.5989 254.448977 84.931925 254.587006 87.26495 252.056371 89.597975 243.337189 91.931 252.125391 94.264025 246.419961 96.59705 247.938344 98.930075 250.445976 101.2631 254.425974 103.596125 250.330939 105.92915 251.205162 108.262175 258.313944 110.5952 257.876838 112.928225 257.991864 115.26125 261.557758 117.594275 258.567009 119.9273 256.657532 124.59335 260.039381 126.926375 252.240417 129.2594 254.702043 131.592425 256.61152 133.92545 265.767819 136.258475 258.451978 138.5915 249.778802 140.924525 253.82782 143.25755 261.534755 145.590575 254.149905 150.256625 262.685041 152.58965 264.985619 154.922675 260.269438 157.2557 251.550251 159.588725 255.737297 161.92175 261.948858 164.254775 241.082623 166.5878 260.338453 168.920825 263.306199 171.25385 263.858336 173.586875 262.547007 175.9199 259.096143 178.252925 260.545507 180.58595 261.557758 182.918975 258.267932 185.252 267.585274 187.585025 267.723308 189.91805 268.620534 192.251075 264.06539 194.5841 265.629779 196.917125 261.879839 199.25015 266.872094 201.583175 262.70805 203.9162 264.525505 206.249225 260.56851 208.58225 260.315449 210.915275 260.476487 213.2483 254.955098 215.581325 250.514985 217.91435 263.237179 220.247375 268.02238 222.5804 265.836833 224.913425 269.44874 227.24645 263.168164 229.579475 261.92585 231.9125 264.456485 234.245525 262.109896 236.57855 266.227933 238.911575 268.436488 241.2446 268.206431 243.577625 265.859842 245.91065 264.893596 248.243675 262.524004 250.5767 268.137411 252.909725 268.758568 255.24275 268.551514 257.575775 269.379725 259.9088 267.999377 262.241825 265.790822 264.57485 270.691054 266.907875 249.594756 269.2409 256.1514 271.573925 265.790822 273.90695 266.296948 276.239975 262.731053 278.573 251.711293 280.906025 265.399722 283.23905 269.862843 285.572075 260.476487 287.9051 249.824819 290.238125 269.241686 292.57115 260.522498 294.904175 263.559264 297.2372 264.617527 299.570225 263.950359 301.90325 264.594524 304.236275 263.973367 306.5693 266.734059 308.902325 261.60377 311.23535 262.293947 313.568375 265.491745 315.9014 269.885851 318.234425 261.92585 320.56745 258.313944 322.900475 264.364462 325.2335 264.272439 327.566525 263.122153 329.89955 265.169665 332.232575 252.746548 334.5656 262.178916 336.898625 265.353711 339.23165 250.514985 341.564675 259.947358 343.8977 268.137411 346.230725 267.930357 348.56375 259.096143 350.896775 240.484469 353.2298 262.224927 355.562825 269.172671 357.89585 254.287934 360.228875 258.060883 362.5619 265.123653 364.894925 268.390476 367.22795 258.175909 369.560975 264.341459 371.894 258.912098 374.227025 263.74331 376.56005 261.212675 378.893075 268.597525 381.2261 251.7573 383.559125 249.318688 385.89215 263.605276 388.225175 270.276946 390.5582 268.436488 392.891225 269.563771 395.22425 258.705044 397.557275 259.556258 399.8903 268.459491 402.223325 254.978111 404.55635 261.787816 406.889375 254.633023 409.2224 251.803316 411.555425 239.886326 413.88845 260.752556 416.221475 265.974868 418.5545 264.962616 420.887525 269.609782 423.22055 266.757062 425.553575 265.10065 427.8866 271.220183 430.219625 258.336952 432.55265 266.181922 434.885675 261.511747 437.2187 261.626778 439.551725 262.178916 441.88475 263.03013 444.217775 257.715795 446.5508 265.054639 448.883825 256.427474 451.21685 264.456485 453.549875 265.583768"></polyline>
                <g id="y_2_labels" transform="translate(459.000000, 54.000000)" font-size="14" font-family="Helvetica-Light, Helvetica" fill="#000000" font-weight="300">
                    <g id="0.8">
                        <text id="80">
                            <tspan x="0" y="14">80</tspan>
                        </text>
                    </g>
                    <g id="0.6" transform="translate(0.000000, 70.000000)">
                        <text id="60">
                            <tspan x="0" y="14">60</tspan>
                        </text>
                    </g>
                    <g id="0.4" transform="translate(0.000000, 140.000000)">
                        <text id="40">
                            <tspan x="0" y="14">40</tspan>
                        </text>
                    </g>
                    <g id="0.2" transform="translate(0.000000, 210.000000)">
                        <text id="20">
                            <tspan x="0" y="14">20</tspan>
                        </text>
                    </g>
                </g>
                <g id="ticks" transform="translate(450.000000, 63.000000)" stroke="#000000" fill-rule="nonzero" fill="#FF0000">
                    <path d="M4.215,210.382727 L0.215,210.382727" id="m727786967d"></path>
                    <path d="M4.215,140.468182 L0.215,140.468182" id="m727786967d"></path>
                    <path d="M4.215,70.5536364 L0.215,70.5536364" id="m727786967d"></path>
                    <path d="M4.215,0.639090909 L0.215,0.639090909" id="m727786967d"></path>
                </g>
            </g>
            <g id="box" stroke-linecap="square" transform="translate(54.000000, 0.000000)" stroke="#000000">
                <path d="M0.61,0.81 L456.213135,0.81" id="Shape"></path>
                <path d="M456.215,309.34 L456.215,1.28320312" id="Shape"></path>
                <path d="M0.61,309.34 L456.102051,309.34" id="Shape"></path>
                <path d="M0.61,309.34 L0.61,0.90039062" id="Shape"></path>
            </g>
            <g id="Best-loss-with-corre" transform="translate(151.000000, 148.000000)" font-size="13" font-family="Helvetica-Light, Helvetica" fill="#000000" font-weight="300">
                <text id="Best-loss-with">
                    <tspan x="0" y="13">Best loss with</tspan>
                </text>
                <text id="corresponding">
                    <tspan x="0" y="29">corresponding</tspan>
                </text>
                <text id="PER-of-23.7">
                    <tspan x="0" y="45">PER of 23.7</tspan>
                </text>
            </g>
            <g id="Best-PER-of-20.6" transform="translate(406.000000, 148.000000)" font-size="13" font-family="Helvetica-Light, Helvetica" fill="#000000" font-weight="300">
                <text id="Best-PER">
                    <tspan x="0" y="13">Best PER</tspan>
                </text>
                <text id="of-20.6">
                    <tspan x="0" y="29">of 20.6</tspan>
                </text>
            </g>
            <g id="Teacher-Forced-Loss" transform="translate(11.500000, 154.000000) rotate(-90.000000) translate(-11.500000, -154.000000) translate(-73.000000, 143.000000)" font-size="18" font-family="Helvetica-Light, Helvetica" fill="#000000" font-weight="300">
                <text>
                    <tspan x="0" y="18">Teacher Forced Loss</tspan>
                </text>
            </g>
            <g id="Inference-PER" transform="translate(555.000000, 153.500000) rotate(-90.000000) translate(-555.000000, -153.500000) translate(497.000000, 142.000000)" font-size="18" font-family="Helvetica-Light, Helvetica" fill="#000000" font-weight="300">
                <text>
                    <tspan x="0.5" y="18.5">Inference PER</tspan>
                </text>
            </g>
            <g id="Epochs" transform="translate(243.000000, 331.000000)" font-size="18" font-family="Helvetica-Light, Helvetica" fill="#000000" font-weight="300">
                <text>
                    <tspan x="0" y="18">Epochs</tspan>
                </text>
            </g>
            <circle id="Oval" stroke="#000000" stroke-width="1.5" cx="234" cy="275" r="4"></circle>
            <circle id="Oval" stroke="#000000" stroke-width="1.5" cx="484" cy="270" r="4"></circle>
            <path d="M231.5,269.5 L209.5,199.5" id="Line" stroke="#000000" stroke-linecap="square" stroke-dasharray="2,3"></path>
            <path d="M481.114258,263.944336 L449.213867,181.592773" id="Line" stroke="#000000" stroke-linecap="square" stroke-dasharray="2,3"></path>
            <path d="M557.5,216.5 L557.5,226.5" id="Line-2" stroke="#CD5C5C" stroke-width="3" stroke-linecap="square"></path>
            <path d="M13.5,244.5 L13.5,254.5" id="Line-2" stroke="#4682B4" stroke-width="3" stroke-linecap="square"></path>
        </g>
    </g>
</svg>