<?xml version="1.0" encoding="UTF-8"?>
<svg width="490px" height="218px" viewBox="0 0 490 218" version="1.1" xmlns="http://www.w3.org/2000/svg" xmlns:xlink="http://www.w3.org/1999/xlink">
    <!-- Generator: Sketch 48.1 (47250) - http://www.bohemiancoding.com/sketch -->
    <title>seq2seq</title>
    <desc>Created with Sketch.</desc>
    <defs></defs>
    <g id="Page-1" stroke="none" stroke-width="1" fill="none" fill-rule="evenodd">
        <g id="seq2seq" transform="translate(1.000000, 0.000000)">
            <g id="encoder" transform="translate(0.000000, 29.000000)">
                <circle id="Oval" stroke="#000000" fill-opacity="0.5" fill="#4682B4" fill-rule="nonzero" cx="18.5" cy="169.5" r="18.5"></circle>
                <circle id="Oval" stroke="#000000" fill-opacity="0.5" fill="#4682B4" fill-rule="nonzero" cx="95.5" cy="169.5" r="18.5"></circle>
                <circle id="Oval" stroke="#000000" fill-opacity="0.5" fill="#4682B4" fill-rule="nonzero" cx="260.5" cy="169.5" r="18.5"></circle>
                <circle id="Oval" stroke="#000000" fill="#D8D8D8" fill-rule="nonzero" cx="18.5" cy="86.5" r="18.5"></circle>
                <circle id="Oval" stroke="#000000" fill="#D8D8D8" fill-rule="nonzero" cx="95.5" cy="86.5" r="18.5"></circle>
                <circle id="Oval" stroke="#000000" fill="#D8D8D8" fill-rule="nonzero" cx="260.5" cy="86.5" r="18.5"></circle>
                <path d="M18,150.826437 L18,109" id="Line" stroke="#000000" stroke-width="2" fill="#000000" fill-rule="nonzero"></path>
                <polygon id="Line-decoration-1" stroke="#000000" stroke-width="2" fill="#000000" fill-rule="nonzero" points="18 109 15 119.8 21 119.8"></polygon>
                <path d="M95,150.785444 L95,109" id="Line" stroke="#000000" stroke-width="2" fill="#000000" fill-rule="nonzero"></path>
                <polygon id="Line-decoration-1" stroke="#000000" stroke-width="2" fill="#000000" fill-rule="nonzero" points="95 109 92 119.8 98 119.8"></polygon>
                <path d="M260,150.672922 L260,109" id="Line" stroke="#000000" stroke-width="2" fill="#000000" fill-rule="nonzero"></path>
                <polygon id="Line-decoration-1" stroke="#000000" stroke-width="2" fill="#000000" fill-rule="nonzero" points="260 109 257 119.8 263 119.8"></polygon>
                <path d="M37.6254883,86 C60.5043945,86 72.3331706,86 73.1118164,86" id="Line-2" stroke="#000000" stroke-width="2" fill="#000000" fill-rule="nonzero" stroke-linecap="round"></path>
                <polygon id="Line-2-decoration-1" stroke="#000000" stroke-width="2" fill="#000000" fill-rule="nonzero" stroke-linecap="round" points="73.1118164 86 62.3118164 83 62.3118164 89"></polygon>
                <path d="M114.486816,86 C137.707845,86 149.707682,86 150.486328,86" id="Line-2" stroke="#000000" stroke-width="2" fill="#000000" fill-rule="nonzero" stroke-linecap="round"></path>
                <polygon id="Line-2-decoration-1" stroke="#000000" stroke-width="2" fill="#000000" fill-rule="nonzero" stroke-linecap="round" points="150.486328 86 139.686328 83 139.686328 89"></polygon>
                <path d="M210,86 C228.06073,86 237.393901,86 237.999512,86" id="Line-2" stroke="#000000" stroke-width="2" fill="#000000" fill-rule="nonzero" stroke-linecap="round"></path>
                <polygon id="Line-2-decoration-1" stroke="#000000" stroke-width="2" fill="#000000" fill-rule="nonzero" stroke-linecap="round" points="237.999512 86 227.199512 83 227.199512 89"></polygon>
                <path d="M17.8007812,67.9707031 C17.8007812,37.6552734 260.496939,57.3164063 259.974344,10.7773438" id="Path-2" stroke="#000000" stroke-width="2"></path>
                <path d="M95.2916859,67.8486328 C95.1082449,39.8237305 260.026855,63.5668945 260.026855,11.2915039" id="Path-3" stroke="#000000" stroke-width="2"></path>
                <path d="M260.058594,67.2539062 L260.058594,0" id="Line-3" stroke="#000000" stroke-width="2" fill="#000000" fill-rule="nonzero" stroke-linecap="round"></path>
                <polygon id="Line-3-decoration-1" stroke="#000000" stroke-width="2" fill="#000000" fill-rule="nonzero" stroke-linecap="round" points="260.058594 0 257.058594 10.8 263.058594 10.8"></polygon>
                <g id="ellipsis" transform="translate(164.000000, 83.000000)" fill="#000000" fill-rule="nonzero">
                    <circle id="Oval-2" cx="3" cy="3" r="3"></circle>
                    <circle id="Oval-2" cx="20" cy="3" r="3"></circle>
                    <circle id="Oval-2" cx="36" cy="3" r="3"></circle>
                </g>
                <g id="x1" transform="translate(12.000000, 152.000000)" fill="#000000" font-weight="normal">
                    <g id="x" font-family="STIXGeneral-Italic, STIXGeneral" font-size="18" font-style="italic">
                        <text>
                            <tspan x="0.004" y="19">x</tspan>
                        </text>
                    </g>
                    <g id="1" transform="translate(7.000000, 12.000000)" font-family="STIXGeneral-Regular, STIXGeneral" font-size="12">
                        <text>
                            <tspan x="0.996" y="13">1</tspan>
                        </text>
                    </g>
                </g>
                <g id="x2" transform="translate(89.000000, 152.000000)" fill="#000000" font-weight="normal">
                    <g id="x" font-family="STIXGeneral-Italic, STIXGeneral" font-size="18" font-style="italic">
                        <text>
                            <tspan x="0.004" y="19">x</tspan>
                        </text>
                    </g>
                    <g id="2" transform="translate(7.000000, 12.000000)" font-family="STIXGeneral-Regular, STIXGeneral" font-size="12">
                        <text>
                            <tspan x="0.996" y="13">2</tspan>
                        </text>
                    </g>
                </g>
                <g id="xT" transform="translate(254.000000, 152.000000)" fill="#000000" font-weight="normal">
                    <g id="x" font-family="STIXGeneral-Italic, STIXGeneral" font-size="18" font-style="italic">
                        <text>
                            <tspan x="0.668" y="19">x</tspan>
                        </text>
                    </g>
                    <g id="T" transform="translate(8.000000, 12.000000)" font-family="STIXGeneral-Regular, STIXGeneral" font-size="12">
                        <text>
                            <tspan x="0.66" y="13">T</tspan>
                        </text>
                    </g>
                </g>
            </g>
            <g id="attend" transform="translate(240.000000, 0.000000)">
                <g id="Rectangle">
                    <g id="path-3-link" fill="#D8D8D8" fill-opacity="0.2" fill-rule="nonzero">
                        <rect id="path-3" x="0" y="0" width="67" height="26" rx="8"></rect>
                    </g>
                    <rect id="Rectangle-path" stroke="#000000" x="0.5" y="0.5" width="66" height="25" rx="8"></rect>
                </g>
                <g id="Attend" transform="translate(12.000000, 4.000000)" fill="#000000" font-family="Helvetica-Light, Helvetica" font-size="14" font-weight="300">
                    <g id="Group">
                        <text id="Attend">
                            <tspan x="0.62799988" y="14">Attend</tspan>
                        </text>
                    </g>
                </g>
                <path d="M66.0390625,11.171875 C120.007812,11.171875 76.1904297,44.5458984 135.345703,44.34375" id="Path-7" stroke="#000000" stroke-width="2"></path>
            </g>
            <g id="decoder" transform="translate(282.000000, 26.000000)">
                <g id="previous" opacity="0.297724185" transform="translate(62.000000, 85.000000)" stroke="#000000">
                    <path d="M15.2519531,4 C25.7817587,4 31.349467,4 31.9550781,4 C32.5606892,4 26.9929809,4 15.2519531,4 Z" id="Line-2" stroke-width="2" fill="#000000" fill-rule="nonzero" stroke-linecap="round"></path>
                    <path d="M17.0566406,27 C17.0566406,61.1713653 62.2573242,58.5263791 56.9233398,27" id="Path-5" stroke-width="2"></path>
                    <polygon id="Triangle" fill="#000000" fill-rule="nonzero" points="57 25 60.5 37.71875 53.5 37.71875"></polygon>
                    <polygon id="Triangle" fill="#000000" fill-rule="nonzero" transform="translate(30.500000, 4.359375) rotate(90.000000) translate(-30.500000, -4.359375) " points="30.5 -2 34 10.71875 27 10.71875"></polygon>
                    <path d="M13.5,4 L0.5,4" id="Line-4" stroke-width="2" stroke-linecap="square" stroke-dasharray="3,3"></path>
                    <path d="M17,25 L17,12.5" id="Line-5" stroke-width="2" stroke-linecap="square" stroke-dasharray="3"></path>
                </g>
                <circle id="Oval" stroke="#000000" fill="#D8D8D8" fill-rule="nonzero" cx="118.5" cy="89.5" r="18.5"></circle>
                <path d="M138,89 C156.061045,89 165.394378,89 166,89" id="Line-2" stroke="#000000" stroke-width="2" fill="#000000" fill-rule="nonzero" stroke-linecap="round"></path>
                <polygon id="Line-2-decoration-1" stroke="#000000" stroke-width="2" fill="#000000" fill-rule="nonzero" stroke-linecap="round" points="166 89 155 86 155 92"></polygon>
                <circle id="Oval" stroke="#000000" fill-opacity="0.6" fill="#CD5C5C" fill-rule="nonzero" cx="118.5" cy="18.5" r="18.5"></circle>
                <circle id="Oval" stroke="#000000" fill="#D8D8D8" fill-rule="nonzero" cx="187.5" cy="89.5" r="18.5"></circle>
                <path d="M118,71 C116.823156,31.2103894 3.99496786,70.7832514 3,9" id="Path-4" stroke="#000000" stroke-width="2"></path>
                <polygon id="Triangle" stroke="#000000" fill="#000000" fill-rule="nonzero" points="3.5 1 7 14 0 14"></polygon>
                <polygon id="Triangle" stroke="#000000" fill="#000000" fill-rule="nonzero" points="188.5 110 192 123 185 123"></polygon>
                <polygon id="Triangle" stroke="#000000" fill="#000000" fill-rule="nonzero" transform="translate(92.500000, 18.000000) rotate(90.000000) translate(-92.500000, -18.000000) " points="92.5 12 96 24 89 24"></polygon>
                <path d="M137,18 C153.672812,18 150.330449,77.3883473 150.330449,111.439835 C150.330449,145.491322 193.726916,143.959725 188.401367,112.543945" id="Path-5" stroke="#000000" stroke-width="2"></path>
                <path d="M119,71 L119,41" id="Path-6" stroke="#000000" stroke-width="2" fill="#000000" fill-rule="nonzero"></path>
                <polygon id="Path-6-decoration-1" stroke="#000000" stroke-width="2" fill="#000000" fill-rule="nonzero" points="119 41 116 52 122 52"></polygon>
                <g id="yu" transform="translate(112.000000, 1.000000)" fill="#000000" font-weight="normal">
                    <g id="y" font-family="STIXGeneral-Italic, STIXGeneral" font-size="18" font-style="italic">
                        <text>
                            <tspan x="0.504" y="19">y</tspan>
                        </text>
                    </g>
                    <g id="u" transform="translate(8.000000, 12.000000)" font-family="STIXGeneral-Regular, STIXGeneral" font-size="12">
                        <text>
                            <tspan x="0.496" y="13">u</tspan>
                        </text>
                    </g>
                </g>
                <path d="M113,9 L120,9" id="Line-5" stroke="#000000" stroke-linecap="square"></path>
            </g>
        </g>
    </g>
</svg>