<?xml version="1.0" encoding="utf-8" standalone="no"?>
<!DOCTYPE svg PUBLIC "-//W3C//DTD SVG 1.1//EN"
  "http://www.w3.org/Graphics/SVG/1.1/DTD/svg11.dtd">
<!-- Created with matplotlib (https://matplotlib.org/) -->
<svg height="354.492456pt" version="1.1" viewBox="0 0 1285.908134 354.492456" width="1285.908134pt" xmlns="http://www.w3.org/2000/svg" xmlns:xlink="http://www.w3.org/1999/xlink">
 <metadata>
  <rdf:RDF xmlns:cc="http://creativecommons.org/ns#" xmlns:dc="http://purl.org/dc/elements/1.1/" xmlns:rdf="http://www.w3.org/1999/02/22-rdf-syntax-ns#">
   <cc:Work>
    <dc:type rdf:resource="http://purl.org/dc/dcmitype/StillImage"/>
    <dc:date>2021-09-04T16:06:50.727642</dc:date>
    <dc:format>image/svg+xml</dc:format>
    <dc:creator>
     <cc:Agent>
      <dc:title>Matplotlib v3.3.4, https://matplotlib.org/</dc:title>
     </cc:Agent>
    </dc:creator>
   </cc:Work>
  </rdf:RDF>
 </metadata>
 <defs>
  <style type="text/css">*{stroke-linecap:butt;stroke-linejoin:round;}</style>
 </defs>
 <g id="figure_1">
  <g id="patch_1">
   <path d="M 0 354.492456 
L 1285.908134 354.492456 
L 1285.908134 0 
L 0 0 
z
" style="fill:#ffffff;"/>
  </g>
  <g id="axes_1">
   <g id="patch_2">
    <path d="M 36.765189 293.739629 
L 303.634754 293.739629 
L 303.634754 71.979629 
L 36.765189 71.979629 
z
" style="fill:#ffffff;"/>
   </g>
   <g id="matplotlib.axis_1">
    <g id="xtick_1">
     <g id="line2d_1"/>
     <g id="text_1">
      <!-- $\mathdefault{−2}$ -->
      <g style="fill:#262626;" transform="translate(35.346055 312.460322)scale(0.22 -0.22)">
       <defs>
        <path d="M 65.90625 23 
C 67.59375 23 69.40625 23 69.40625 25 
C 69.40625 27 67.59375 27 65.90625 27 
L 11.796875 27 
C 10.09375 27 8.296875 27 8.296875 25 
C 8.296875 23 10.09375 23 11.796875 23 
z
" id="CMSY10-0"/>
        <path d="M 41.703125 15.46875 
L 39.90625 15.46875 
C 38.90625 8.390625 38.09375 7.1875 37.703125 6.59375 
C 37.203125 5.796875 30 5.796875 28.59375 5.796875 
L 9.40625 5.796875 
C 13 9.6875 20 16.765625 28.5 24.9375 
C 34.59375 30.71875 41.703125 37.5 41.703125 47.390625 
C 41.703125 59.1875 32.296875 66 21.796875 66 
C 10.796875 66 4.09375 56.296875 4.09375 47.296875 
C 4.09375 43.390625 7 42.890625 8.203125 42.890625 
C 9.203125 42.890625 12.203125 43.484375 12.203125 46.984375 
C 12.203125 50.09375 9.59375 51 8.203125 51 
C 7.59375 51 7 50.890625 6.59375 50.6875 
C 8.5 59.1875 14.296875 63.390625 20.40625 63.390625 
C 29.09375 63.390625 34.796875 56.5 34.796875 47.390625 
C 34.796875 38.703125 29.703125 31.21875 24 24.734375 
L 4.09375 2.296875 
L 4.09375 0 
L 39.296875 0 
z
" id="CMR17-50"/>
       </defs>
       <use transform="scale(0.996264)" xlink:href="#CMSY10-0"/>
       <use transform="translate(77.487468 0)scale(0.996264)" xlink:href="#CMR17-50"/>
      </g>
     </g>
    </g>
    <g id="xtick_2">
     <g id="line2d_2"/>
     <g id="text_2">
      <!-- $\mathdefault{0}$ -->
      <g style="fill:#262626;" transform="translate(165.47804 312.460322)scale(0.22 -0.22)">
       <defs>
        <path d="M 42 31.84375 
C 42 37.96875 41.90625 48.421875 37.703125 56.453125 
C 34 63.484375 28.09375 66 22.90625 66 
C 18.09375 66 12 63.78125 8.203125 56.5625 
C 4.203125 49.015625 3.796875 39.671875 3.796875 31.84375 
C 3.796875 26.109375 3.90625 17.375 7 9.734375 
C 11.296875 -0.609375 19 -2 22.90625 -2 
C 27.5 -2 34.5 -0.109375 38.59375 9.4375 
C 41.59375 16.375 42 24.5 42 31.84375 
z
M 22.90625 -0.40625 
C 16.5 -0.40625 12.703125 5.125 11.296875 12.75 
C 10.203125 18.6875 10.203125 27.328125 10.203125 32.953125 
C 10.203125 40.6875 10.203125 47.109375 11.5 53.234375 
C 13.40625 61.78125 19 64.390625 22.90625 64.390625 
C 27 64.390625 32.296875 61.671875 34.203125 53.4375 
C 35.5 47.71875 35.59375 40.984375 35.59375 32.953125 
C 35.59375 26.421875 35.59375 18.375 34.40625 12.453125 
C 32.296875 1.5 26.40625 -0.40625 22.90625 -0.40625 
z
" id="CMR17-48"/>
       </defs>
       <use transform="scale(0.996264)" xlink:href="#CMR17-48"/>
      </g>
     </g>
    </g>
    <g id="xtick_3">
     <g id="line2d_3"/>
     <g id="text_3">
      <!-- $\mathdefault{2}$ -->
      <g style="fill:#262626;" transform="translate(287.086409 312.460322)scale(0.22 -0.22)">
       <use transform="scale(0.996264)" xlink:href="#CMR17-50"/>
      </g>
     </g>
    </g>
    <g id="text_4">
     <!-- $x$ -->
     <g style="fill:#262626;" transform="translate(161.884863 341.479005)scale(0.3 -0.3)">
      <defs>
       <path d="M 47.40625 41 
C 44.203125 40.390625 43 37.984375 43 36.09375 
C 43 33.6875 44.90625 32.890625 46.296875 32.890625 
C 49.296875 32.890625 51.40625 35.484375 51.40625 38.1875 
C 51.40625 42.09375 46.59375 44 42.40625 44 
C 36.296875 44 32.90625 38.296875 32 36.390625 
C 29.703125 43.59375 23.5 44 21.703125 44 
C 11.5 44 6.09375 31.140625 6.09375 28.890625 
C 6.09375 28.484375 6.5 27.96875 7.203125 27.96875 
C 8 27.96875 8.203125 28.578125 8.40625 28.984375 
C 11.796875 40.1875 18.5 41.984375 21.40625 41.984375 
C 25.90625 41.984375 26.796875 38.09375 26.796875 35.6875 
C 26.796875 33.484375 26.203125 31.140625 25 26.21875 
L 21.59375 12.15625 
C 20.09375 6.09375 17.203125 1 11.90625 1 
C 11.40625 1 8.90625 1 6.796875 1.96875 
C 10.40625 2.59375 11.203125 5.59375 11.203125 6.796875 
C 11.203125 8.796875 9.703125 10 7.796875 10 
C 5.40625 10 2.796875 7.890625 2.796875 4.6875 
C 2.796875 0.890625 7.5 -1 11.796875 -1 
C 16.59375 -1 20 2.390625 22.09375 6.484375 
C 23.703125 1 28.703125 -1 32.40625 -1 
C 42.59375 -1 48 11.734375 48 14 
C 48 14.515625 47.59375 14.921875 47 14.921875 
C 46.09375 14.921875 46 14.40625 45.703125 13.59375 
C 43 4.6875 37.203125 1 32.703125 1 
C 29.203125 1 27.296875 3.1875 27.296875 7.296875 
C 27.296875 9.484375 27.703125 11.125 29.296875 17.90625 
L 32.796875 31.859375 
C 34.296875 37.890625 37.703125 41.984375 42.296875 41.984375 
C 42.5 41.984375 45.296875 41.984375 47.40625 41 
z
" id="CMMI12-120"/>
      </defs>
      <use transform="scale(0.996264)" xlink:href="#CMMI12-120"/>
     </g>
    </g>
   </g>
   <g id="matplotlib.axis_2">
    <g id="ytick_1">
     <g id="line2d_4"/>
     <g id="text_5">
      <!-- $\mathdefault{0.1}$ -->
      <g style="fill:#262626;" transform="translate(7.2 264.380902)scale(0.22 -0.22)">
       <defs>
        <path d="M 18.40625 4.796875 
C 18.40625 7.6875 16 9.6875 13.59375 9.6875 
C 10.703125 9.6875 8.703125 7.296875 8.703125 4.890625 
C 8.703125 2 11.09375 0 13.5 0 
C 16.40625 0 18.40625 2.390625 18.40625 4.796875 
z
" id="CMMI12-58"/>
        <path d="M 26.59375 63.796875 
C 26.59375 65.890625 26.5 66 25.09375 66 
C 21.203125 61.359375 15.296875 59.890625 9.703125 59.6875 
C 9.40625 59.6875 8.90625 59.6875 8.796875 59.5 
C 8.703125 59.296875 8.703125 59.09375 8.703125 57 
C 11.796875 57 17 57.59375 21 59.984375 
L 21 7.296875 
C 21 3.796875 20.796875 2.59375 12.203125 2.59375 
L 9.203125 2.59375 
L 9.203125 0 
C 14 0.09375 19 0.1875 23.796875 0.1875 
C 28.59375 0.1875 33.59375 0.09375 38.40625 0 
L 38.40625 2.59375 
L 35.40625 2.59375 
C 26.796875 2.59375 26.59375 3.6875 26.59375 7.296875 
z
" id="CMR17-49"/>
       </defs>
       <use transform="scale(0.996264)" xlink:href="#CMR17-48"/>
       <use transform="translate(45.690477 0)scale(0.996264)" xlink:href="#CMMI12-58"/>
       <use transform="translate(72.787654 0)scale(0.996264)" xlink:href="#CMR17-49"/>
      </g>
     </g>
    </g>
    <g id="ytick_2">
     <g id="line2d_5"/>
     <g id="text_6">
      <!-- $\mathdefault{0.2}$ -->
      <g style="fill:#262626;" transform="translate(7.2 205.937872)scale(0.22 -0.22)">
       <use transform="scale(0.996264)" xlink:href="#CMR17-48"/>
       <use transform="translate(45.690477 0)scale(0.996264)" xlink:href="#CMMI12-58"/>
       <use transform="translate(72.787654 0)scale(0.996264)" xlink:href="#CMR17-50"/>
      </g>
     </g>
    </g>
    <g id="ytick_3">
     <g id="line2d_6"/>
     <g id="text_7">
      <!-- $\mathdefault{0.3}$ -->
      <g style="fill:#262626;" transform="translate(7.2 147.494842)scale(0.22 -0.22)">
       <defs>
        <path d="M 22.09375 34 
C 31 34 34.90625 26.140625 34.90625 17.09375 
C 34.90625 5.03125 28.5 0.390625 22.703125 0.390625 
C 17.40625 0.390625 8.796875 3.015625 6.09375 10.796875 
C 6.59375 10.59375 7.09375 10.59375 7.59375 10.59375 
C 10 10.59375 11.796875 12.1875 11.796875 14.796875 
C 11.796875 17.6875 9.59375 19 7.59375 19 
C 5.90625 19 3.296875 18.1875 3.296875 14.484375 
C 3.296875 5.234375 12.296875 -2 22.90625 -2 
C 34 -2 42.5 6.75 42.5 16.984375 
C 42.5 26.84375 34.5 34 25 35.09375 
C 32.59375 36.671875 39.90625 43.375 39.90625 52.390625 
C 39.90625 60.25 32 66 23 66 
C 13.90625 66 5.90625 60.34375 5.90625 52.296875 
C 5.90625 48.796875 8.5 48.1875 9.796875 48.1875 
C 11.90625 48.1875 13.703125 49.484375 13.703125 52.09375 
C 13.703125 54.6875 11.90625 56 9.796875 56 
C 9.40625 56 8.90625 56 8.5 55.796875 
C 11.40625 62.484375 19.296875 63.6875 22.796875 63.6875 
C 26.296875 63.6875 32.90625 61.96875 32.90625 52.296875 
C 32.90625 49.484375 32.5 44.546875 29.09375 40.21875 
C 26.09375 36.390625 22.703125 36.1875 19.40625 35.890625 
C 18.90625 35.890625 16.59375 35.6875 16.203125 35.6875 
C 15.5 35.59375 15.09375 35.5 15.09375 34.796875 
C 15.09375 34.09375 15.203125 34 17.203125 34 
z
" id="CMR17-51"/>
       </defs>
       <use transform="scale(0.996264)" xlink:href="#CMR17-48"/>
       <use transform="translate(45.690477 0)scale(0.996264)" xlink:href="#CMMI12-58"/>
       <use transform="translate(72.787654 0)scale(0.996264)" xlink:href="#CMR17-51"/>
      </g>
     </g>
    </g>
    <g id="ytick_4">
     <g id="line2d_7"/>
     <g id="text_8">
      <!-- $\mathdefault{0.4}$ -->
      <g style="fill:#262626;" transform="translate(7.2 89.051812)scale(0.22 -0.22)">
       <defs>
        <path d="M 33.59375 64.796875 
C 33.59375 66.890625 33.5 67 31.703125 67 
L 2 19.59375 
L 2 17 
L 27.796875 17 
L 27.796875 7.1875 
C 27.796875 3.59375 27.59375 2.59375 20.59375 2.59375 
L 18.703125 2.59375 
L 18.703125 0 
C 21.90625 0.1875 27.296875 0.1875 30.703125 0.1875 
C 34.09375 0.1875 39.5 0.1875 42.703125 0 
L 42.703125 2.59375 
L 40.796875 2.59375 
C 33.796875 2.59375 33.59375 3.59375 33.59375 7.1875 
L 33.59375 17 
L 43.796875 17 
L 43.796875 19.59375 
L 33.59375 19.59375 
z
M 28.09375 58.171875 
L 28.09375 19.59375 
L 4 19.59375 
z
" id="CMR17-52"/>
       </defs>
       <use transform="scale(0.996264)" xlink:href="#CMR17-48"/>
       <use transform="translate(45.690477 0)scale(0.996264)" xlink:href="#CMMI12-58"/>
       <use transform="translate(72.787654 0)scale(0.996264)" xlink:href="#CMR17-52"/>
      </g>
     </g>
    </g>
   </g>
   <g id="line2d_8">
    <path clip-path="url(#p371f286938)" d="M 48.895624 283.659629 
L 52.543875 279.70058 
L 56.192126 275.388421 
L 59.840377 270.713149 
L 63.488628 265.667711 
L 67.136879 260.248455 
L 70.78513 254.455571 
L 75.041423 247.231176 
L 79.297716 239.519578 
L 83.554009 231.345178 
L 88.418344 221.480709 
L 93.282678 211.124305 
L 99.363097 197.618294 
L 107.267641 179.452177 
L 120.644561 148.629701 
L 126.116938 136.595667 
L 130.981273 126.458752 
L 135.237565 118.15541 
L 138.885817 111.544002 
L 141.926026 106.440282 
L 144.966235 101.743012 
L 148.006444 97.485059 
L 150.438612 94.415423 
L 152.870779 91.66048 
L 155.302946 89.233022 
L 157.735114 87.144408 
L 160.167281 85.404479 
L 161.991407 84.333378 
L 163.815532 83.465952 
L 165.639658 82.804529 
L 167.463783 82.350889 
L 169.287909 82.106255 
L 171.112034 82.071286 
L 172.93616 82.246077 
L 174.760285 82.630157 
L 176.584411 83.222489 
L 178.408536 84.021479 
L 180.232662 85.024981 
L 182.056787 86.230304 
L 184.488955 88.145708 
L 186.921122 90.405071 
L 189.35329 92.997783 
L 191.785457 95.911757 
L 194.217624 99.133524 
L 197.257834 103.570988 
L 200.298043 108.434916 
L 203.338252 113.691497 
L 206.986503 120.467031 
L 210.634754 127.691056 
L 214.891047 136.595667 
L 220.363424 148.629701 
L 227.659926 165.32399 
L 243.469014 201.725371 
L 249.549432 215.060588 
L 254.413767 225.241542 
L 259.278102 234.903196 
L 263.534395 242.882861 
L 267.790687 250.388089 
L 272.04698 257.398543 
L 275.695231 263.004894 
L 279.343482 268.237014 
L 282.991734 273.09669 
L 286.639985 277.589328 
L 290.288236 281.723515 
L 291.504319 283.023806 
L 291.504319 283.023806 
" style="fill:none;stroke:#000000;stroke-linecap:round;stroke-width:1.5;"/>
   </g>
   <g id="patch_3">
    <path d="M 36.765189 293.739629 
L 36.765189 71.979629 
" style="fill:none;stroke:#262626;stroke-linecap:square;stroke-linejoin:miter;stroke-width:1.25;"/>
   </g>
   <g id="patch_4">
    <path d="M 303.634754 293.739629 
L 303.634754 71.979629 
" style="fill:none;stroke:#262626;stroke-linecap:square;stroke-linejoin:miter;stroke-width:1.25;"/>
   </g>
   <g id="patch_5">
    <path d="M 36.765189 293.739629 
L 303.634754 293.739629 
" style="fill:none;stroke:#262626;stroke-linecap:square;stroke-linejoin:miter;stroke-width:1.25;"/>
   </g>
   <g id="patch_6">
    <path d="M 36.765189 71.979629 
L 303.634754 71.979629 
" style="fill:none;stroke:#262626;stroke-linecap:square;stroke-linejoin:miter;stroke-width:1.25;"/>
   </g>
   <g id="text_9">
    <!-- {\bf (a)} $p(x \mid \mu, \sigma)$ -->
    <g style="fill:#262626;" transform="translate(81.531669 46.979629)scale(0.3 -0.3)">
     <defs>
      <path d="M 37.40625 -23.90625 
C 37.40625 -23.515625 37.40625 -23.3125 35.5 -21.5 
C 24.296875 -10.3125 20 7.296875 20 24.890625 
C 20 44.59375 24.90625 60.796875 36.09375 72.09375 
C 37.296875 73.296875 37.40625 73.390625 37.40625 73.796875 
C 37.40625 75 36.203125 75 35.703125 75 
C 34.796875 75 34.59375 75 32 72.890625 
C 17.59375 61.390625 10.796875 43 10.796875 25 
C 10.796875 6.59375 17.703125 -11.3125 31.90625 -22.90625 
C 34.5 -25.109375 34.703125 -25.109375 35.703125 -25.109375 
C 36.203125 -25.109375 37.40625 -25.109375 37.40625 -23.90625 
z
" id="CMBX12-40"/>
      <path d="M 46 29.59375 
C 46 38.796875 38.703125 45 24.59375 45 
C 19 45 7.203125 44.484375 7.203125 36.09375 
C 7.203125 31.890625 10.40625 30.09375 13.09375 30.09375 
C 16.09375 30.09375 19 32.1875 19 35.984375 
C 19 37.890625 18.296875 39.6875 16.59375 40.796875 
C 19.90625 41.6875 22.296875 41.6875 24.203125 41.6875 
C 31 41.6875 35.09375 37.890625 35.09375 29.6875 
L 35.09375 25.6875 
C 19.296875 25.6875 3.40625 21.28125 3.40625 10.125 
C 3.40625 1 15 -1 21.90625 -1 
C 29.59375 -1 34.5 3.203125 36.5 7.625 
C 36.5 3.90625 36.5 -0.40625 46.59375 -0.40625 
L 51.703125 -0.40625 
C 53.796875 -0.40625 54.59375 -0.40625 54.59375 1.796875 
C 54.59375 3.90625 53.703125 3.90625 52.296875 3.90625 
C 46 4 46 5.609375 46 7.921875 
z
M 35.09375 13.546875 
C 35.09375 4.09375 26.703125 2.296875 23.5 2.296875 
C 18.59375 2.296875 14.5 5.609375 14.5 10.234375 
C 14.5 19.375 25.296875 22.484375 35.09375 23 
z
" id="CMBX12-97"/>
      <path d="M 32.796875 24.890625 
C 32.796875 43.296875 25.90625 61.203125 11.703125 72.796875 
C 9.09375 75 8.90625 75 7.90625 75 
C 7.40625 75 6.203125 75 6.203125 73.796875 
C 6.203125 73.390625 6.203125 73.1875 8.09375 71.390625 
C 19.296875 60.203125 23.59375 42.59375 23.59375 25 
C 23.59375 5.296875 18.703125 -10.90625 7.5 -22.203125 
C 6.296875 -23.40625 6.203125 -23.515625 6.203125 -23.90625 
C 6.203125 -25.109375 7.40625 -25.109375 7.90625 -25.109375 
C 8.796875 -25.109375 9 -25.109375 11.59375 -23 
C 26 -11.5 32.796875 6.890625 32.796875 24.890625 
z
" id="CMBX12-41"/>
      <path d="M 4.296875 -12.40625 
C 3.59375 -15.328125 3.203125 -16.109375 -0.90625 -16.109375 
C -2.109375 -16.109375 -3.109375 -16.109375 -3.109375 -18 
C -3.109375 -18.203125 -3 -19 -1.90625 -19 
C -0.609375 -19 0.796875 -18.8125 2.09375 -18.8125 
L 6.40625 -18.8125 
C 8.5 -18.8125 13.59375 -19 15.703125 -19 
C 16.296875 -19 17.5 -19 17.5 -17.203125 
C 17.5 -16.109375 16.796875 -16.109375 15.09375 -16.109375 
C 10.5 -16.109375 10.203125 -15.421875 10.203125 -14.640625 
C 10.203125 -13.484375 14.703125 3.390625 15.296875 5.6875 
C 16.40625 2.890625 19.09375 -1 24.296875 -1 
C 35.59375 -1 47.796875 13.65625 47.796875 28.328125 
C 47.796875 37.5 42.59375 44 35.09375 44 
C 28.703125 44 23.296875 37.796875 22.203125 36.40625 
C 21.40625 41.390625 17.5 44 13.5 44 
C 10.59375 44 8.296875 42.59375 6.40625 38.796875 
C 4.59375 35.203125 3.203125 29.125 3.203125 28.71875 
C 3.203125 28.328125 3.59375 27.828125 4.296875 27.828125 
C 5.09375 27.828125 5.203125 27.921875 5.796875 30.21875 
C 7.296875 36.109375 9.203125 41.984375 13.203125 41.984375 
C 15.5 41.984375 16.296875 40.390625 16.296875 37.40625 
C 16.296875 35.015625 16 34.015625 15.59375 32.21875 
z
M 21.59375 31.125 
C 22.296875 33.90625 25.09375 36.8125 26.703125 38.203125 
C 27.796875 39.203125 31.09375 41.984375 34.90625 41.984375 
C 39.296875 41.984375 41.296875 37.609375 41.296875 32.421875 
C 41.296875 27.625 38.5 16.359375 36 11.171875 
C 33.5 5.78125 28.90625 1 24.296875 1 
C 17.5 1 16.40625 9.578125 16.40625 9.96875 
C 16.40625 10.265625 16.59375 11.0625 16.703125 11.5625 
z
" id="CMMI12-112"/>
      <path d="M 30.59375 -24.40625 
C 30.59375 -24.3125 30.59375 -24.109375 30.296875 -23.8125 
C 25.703125 -19.109375 13.40625 -6.296875 13.40625 24.9375 
C 13.40625 56.171875 25.5 68.875 30.40625 73.890625 
C 30.40625 73.984375 30.59375 74.1875 30.59375 74.484375 
C 30.59375 74.796875 30.296875 75 29.90625 75 
C 28.796875 75 20.296875 67.578125 15.40625 56.5625 
C 10.40625 45.453125 9 34.65625 9 25.046875 
C 9 17.828125 9.703125 5.625 15.703125 -7.296875 
C 20.5 -17.703125 28.703125 -25 29.90625 -25 
C 30.40625 -25 30.59375 -24.8125 30.59375 -24.40625 
z
" id="CMR17-40"/>
      <path d="M 15.90625 71.390625 
C 15.90625 73.1875 15.90625 75 13.90625 75 
C 11.90625 75 11.90625 73.1875 11.90625 71.390625 
L 11.90625 -21.40625 
C 11.90625 -23.203125 11.90625 -25 13.90625 -25 
C 15.90625 -25 15.90625 -23.203125 15.90625 -21.40625 
z
" id="CMSY10-106"/>
      <path d="M 14.40625 2.1875 
C 16.90625 -0.109375 20.59375 -1 24 -1 
C 30.40625 -1 34.796875 3.28125 37.09375 6.375 
C 38.09375 1.09375 42.296875 -1 45.796875 -1 
C 48.796875 -1 51.203125 0.796875 53 4.390625 
C 54.59375 7.78125 56 13.859375 56 14.265625 
C 56 14.75 55.59375 15.15625 55 15.15625 
C 54.09375 15.15625 54 14.65625 53.59375 13.15625 
C 52.09375 7.28125 50.203125 1 46.09375 1 
C 43.203125 1 43 3.578125 43 5.578125 
C 43 7.875 43.90625 11.46875 44.59375 14.453125 
L 47.40625 25.234375 
C 47.796875 27.125 48.90625 31.609375 49.40625 33.40625 
C 50 35.796875 51.09375 40.09375 51.09375 40.484375 
C 51.09375 41.984375 49.90625 43 48.40625 43 
C 47.5 43 45.40625 42.59375 44.59375 39.59375 
L 37.59375 11.859375 
C 37.09375 9.875 37.09375 9.671875 35.796875 8.078125 
C 34.59375 6.375 30.703125 1 24.40625 1 
C 18.796875 1 17 5.078125 17 9.765625 
C 17 12.671875 17.90625 16.15625 18.296875 17.859375 
L 22.796875 35.8125 
C 23.296875 37.703125 24.09375 40.890625 24.09375 41.5 
C 24.09375 43.09375 22.796875 44 21.5 44 
C 20.59375 44 18.40625 43.6875 17.59375 40.5 
L 3.09375 -16.953125 
C 3 -17.4375 2.796875 -18.03125 2.796875 -18.609375 
C 2.796875 -20.109375 4 -21.109375 5.5 -21.109375 
C 8.40625 -21.109375 9 -18.8125 9.703125 -16.078125 
z
" id="CMMI12-22"/>
      <path d="M 19.5 -0.40625 
C 19.5 5.390625 17.59375 9.6875 13.5 9.6875 
C 10.296875 9.6875 8.703125 7.09375 8.703125 4.890625 
C 8.703125 2.6875 10.203125 0 13.59375 0 
C 14.90625 0 16 0.390625 16.90625 1.296875 
C 17.09375 1.5 17.203125 1.5 17.296875 1.5 
C 17.5 1.5 17.5 0.09375 17.5 -0.40625 
C 17.5 -3.640625 16.90625 -10.03125 11.09375 -16.421875 
C 10 -17.609375 10 -17.8125 10 -18 
C 10 -18.5 10.5 -19 11 -19 
C 11.796875 -19 19.5 -11.703125 19.5 -0.40625 
z
" id="CMMI12-59"/>
      <path d="M 50.796875 37.59375 
C 52.09375 37.59375 55.40625 37.59375 55.40625 40.796875 
C 55.40625 43 53.5 43 51.703125 43 
L 29.59375 43 
C 14.59375 43 3.796875 26.328125 3.796875 14.5625 
C 3.796875 6.078125 9.296875 -1 18.296875 -1 
C 30.09375 -1 43 11.65625 43 26.625 
C 43 30.515625 42.09375 34.296875 39.703125 37.59375 
z
M 18.40625 1 
C 13.296875 1 9.59375 4.875 9.59375 11.765625 
C 9.59375 17.75 13.203125 37.59375 27.90625 37.59375 
C 32.203125 37.59375 37 35.5 37 27.8125 
C 37 24.328125 35.40625 15.953125 31.90625 10.171875 
C 28.296875 4.28125 22.90625 1 18.40625 1 
z
" id="CMMI12-27"/>
      <path d="M 26.296875 24.9375 
C 26.296875 32.140625 25.59375 44.359375 19.59375 57.265625 
C 14.796875 67.6875 6.59375 75 5.40625 75 
C 5.09375 75 4.703125 74.890625 4.703125 74.390625 
C 4.703125 74.1875 4.796875 74.09375 4.90625 73.890625 
C 9.703125 68.875 21.90625 56.171875 21.90625 25.046875 
C 21.90625 -6.1875 9.796875 -18.90625 4.90625 -23.90625 
C 4.796875 -24.109375 4.703125 -24.203125 4.703125 -24.40625 
C 4.703125 -24.90625 5.09375 -25 5.40625 -25 
C 6.5 -25 15 -17.609375 19.90625 -6.59375 
C 24.90625 4.515625 26.296875 15.328125 26.296875 24.9375 
z
" id="CMR17-41"/>
     </defs>
     <use transform="scale(0.996264)" xlink:href="#CMBX12-40"/>
     <use transform="translate(43.58655 0)scale(0.996264)" xlink:href="#CMBX12-97"/>
     <use transform="translate(98.069738 0)scale(0.996264)" xlink:href="#CMBX12-41"/>
     <use transform="translate(171.732255 0)scale(0.996264)" xlink:href="#CMMI12-112"/>
     <use transform="translate(220.691769 0)scale(0.996264)" xlink:href="#CMR17-40"/>
     <use transform="translate(255.972537 0)scale(0.996264)" xlink:href="#CMMI12-120"/>
     <use transform="translate(339.080605 0)scale(0.996264)" xlink:href="#CMSY10-106"/>
     <use transform="translate(394.428699 0)scale(0.996264)" xlink:href="#CMMI12-22"/>
     <use transform="translate(453.12012 0)scale(0.996264)" xlink:href="#CMMI12-59"/>
     <use transform="translate(496.821703 0)scale(0.996264)" xlink:href="#CMMI12-27"/>
     <use transform="translate(555.841756 0)scale(0.996264)" xlink:href="#CMR17-41"/>
    </g>
   </g>
  </g>
  <g id="axes_2">
   <g id="patch_7">
    <path d="M 357.008667 293.739629 
L 623.878232 293.739629 
L 623.878232 71.979629 
L 357.008667 71.979629 
z
" style="fill:#ffffff;"/>
   </g>
   <g id="matplotlib.axis_3">
    <g id="xtick_4">
     <g id="line2d_9"/>
     <g id="text_10">
      <!-- $\mathdefault{−2}$ -->
      <g style="fill:#262626;" transform="translate(355.589533 312.460322)scale(0.22 -0.22)">
       <use transform="scale(0.996264)" xlink:href="#CMSY10-0"/>
       <use transform="translate(77.487468 0)scale(0.996264)" xlink:href="#CMR17-50"/>
      </g>
     </g>
    </g>
    <g id="xtick_5">
     <g id="line2d_10"/>
     <g id="text_11">
      <!-- $\mathdefault{0}$ -->
      <g style="fill:#262626;" transform="translate(485.721518 312.460322)scale(0.22 -0.22)">
       <use transform="scale(0.996264)" xlink:href="#CMR17-48"/>
      </g>
     </g>
    </g>
    <g id="xtick_6">
     <g id="line2d_11"/>
     <g id="text_12">
      <!-- $\mathdefault{2}$ -->
      <g style="fill:#262626;" transform="translate(607.329887 312.460322)scale(0.22 -0.22)">
       <use transform="scale(0.996264)" xlink:href="#CMR17-50"/>
      </g>
     </g>
    </g>
    <g id="text_13">
     <!-- $x$ -->
     <g style="fill:#262626;" transform="translate(482.128341 341.479005)scale(0.3 -0.3)">
      <use transform="scale(0.996264)" xlink:href="#CMMI12-120"/>
     </g>
    </g>
   </g>
   <g id="matplotlib.axis_4">
    <g id="ytick_5">
     <g id="line2d_12"/>
     <g id="text_14">
      <!-- $\mathdefault{−3.0}$ -->
      <g style="fill:#262626;" transform="translate(310.396245 299.440971)scale(0.22 -0.22)">
       <use transform="scale(0.996264)" xlink:href="#CMSY10-0"/>
       <use transform="translate(77.487468 0)scale(0.996264)" xlink:href="#CMR17-51"/>
       <use transform="translate(123.177945 0)scale(0.996264)" xlink:href="#CMMI12-58"/>
       <use transform="translate(150.275122 0)scale(0.996264)" xlink:href="#CMR17-48"/>
      </g>
     </g>
    </g>
    <g id="ytick_6">
     <g id="line2d_13"/>
     <g id="text_15">
      <!-- $\mathdefault{−2.5}$ -->
      <g style="fill:#262626;" transform="translate(310.396245 249.040971)scale(0.22 -0.22)">
       <defs>
        <path d="M 11.40625 58.59375 
C 12.40625 58.1875 16.5 56.890625 20.703125 56.890625 
C 30 56.890625 35.09375 61.890625 38 64.6875 
C 38 65.484375 38 66 37.40625 66 
C 37.296875 66 37.09375 66 36.296875 65.59375 
C 32.796875 64.09375 28.703125 63 23.703125 63 
C 20.703125 63 16.203125 63.359375 11.296875 65.484375 
C 10.203125 66 10 66 9.90625 66 
C 9.40625 66 9.296875 65.890625 9.296875 63.90625 
L 9.296875 34.859375 
C 9.296875 33.015625 9.296875 32.5 10.296875 32.5 
C 10.796875 32.5 11 32.703125 11.5 33.421875 
C 14.703125 38.046875 19.09375 40 24.09375 40 
C 27.59375 40 35.09375 37.734375 35.09375 20.203125 
C 35.09375 16.984375 35.09375 11.1875 32.09375 6.59375 
C 29.59375 2.484375 25.703125 0.390625 21.40625 0.390625 
C 14.796875 0.390625 8.09375 4.984375 6.296875 12.6875 
C 6.703125 12.59375 7.5 12.390625 7.90625 12.390625 
C 9.203125 12.390625 11.703125 13.09375 11.703125 16.1875 
C 11.703125 18.890625 9.796875 20 7.90625 20 
C 5.59375 20 4.09375 18.59375 4.09375 15.796875 
C 4.09375 7.09375 11 -2 21.59375 -2 
C 31.90625 -2 41.703125 6.890625 41.703125 19.796875 
C 41.703125 32.09375 33.90625 41.59375 24.203125 41.59375 
C 19.09375 41.59375 14.796875 39.6875 11.40625 36 
z
" id="CMR17-53"/>
       </defs>
       <use transform="scale(0.996264)" xlink:href="#CMSY10-0"/>
       <use transform="translate(77.487468 0)scale(0.996264)" xlink:href="#CMR17-50"/>
       <use transform="translate(123.177945 0)scale(0.996264)" xlink:href="#CMMI12-58"/>
       <use transform="translate(150.275122 0)scale(0.996264)" xlink:href="#CMR17-53"/>
      </g>
     </g>
    </g>
    <g id="ytick_7">
     <g id="line2d_14"/>
     <g id="text_16">
      <!-- $\mathdefault{−2.0}$ -->
      <g style="fill:#262626;" transform="translate(310.396245 198.640971)scale(0.22 -0.22)">
       <use transform="scale(0.996264)" xlink:href="#CMSY10-0"/>
       <use transform="translate(77.487468 0)scale(0.996264)" xlink:href="#CMR17-50"/>
       <use transform="translate(123.177945 0)scale(0.996264)" xlink:href="#CMMI12-58"/>
       <use transform="translate(150.275122 0)scale(0.996264)" xlink:href="#CMR17-48"/>
      </g>
     </g>
    </g>
    <g id="ytick_8">
     <g id="line2d_15"/>
     <g id="text_17">
      <!-- $\mathdefault{−1.5}$ -->
      <g style="fill:#262626;" transform="translate(310.396245 148.240971)scale(0.22 -0.22)">
       <use transform="scale(0.996264)" xlink:href="#CMSY10-0"/>
       <use transform="translate(77.487468 0)scale(0.996264)" xlink:href="#CMR17-49"/>
       <use transform="translate(123.177945 0)scale(0.996264)" xlink:href="#CMMI12-58"/>
       <use transform="translate(150.275122 0)scale(0.996264)" xlink:href="#CMR17-53"/>
      </g>
     </g>
    </g>
    <g id="ytick_9">
     <g id="line2d_16"/>
     <g id="text_18">
      <!-- $\mathdefault{−1.0}$ -->
      <g style="fill:#262626;" transform="translate(310.396245 97.840971)scale(0.22 -0.22)">
       <use transform="scale(0.996264)" xlink:href="#CMSY10-0"/>
       <use transform="translate(77.487468 0)scale(0.996264)" xlink:href="#CMR17-49"/>
       <use transform="translate(123.177945 0)scale(0.996264)" xlink:href="#CMMI12-58"/>
       <use transform="translate(150.275122 0)scale(0.996264)" xlink:href="#CMR17-48"/>
      </g>
     </g>
    </g>
   </g>
   <g id="line2d_17">
    <path clip-path="url(#pe1bf300fa7)" d="M 369.139102 283.659629 
L 374.611479 265.923869 
L 380.083855 249.004589 
L 384.94819 234.650669 
L 389.812525 220.941869 
L 394.676859 207.878189 
L 399.541194 195.459629 
L 404.405529 183.686189 
L 409.269864 172.557869 
L 413.526157 163.349789 
L 417.782449 154.635629 
L 422.038742 146.415389 
L 426.295035 138.689069 
L 430.551328 131.456669 
L 434.807621 124.718189 
L 438.455872 119.335469 
L 442.104123 114.315629 
L 445.752374 109.658669 
L 449.400625 105.364589 
L 453.048876 101.433389 
L 456.697127 97.865069 
L 459.737337 95.168669 
L 462.777546 92.724269 
L 465.817755 90.531869 
L 468.857964 88.591469 
L 471.898174 86.903069 
L 474.938383 85.466669 
L 477.978592 84.282269 
L 481.018801 83.349869 
L 484.05901 82.669469 
L 487.09922 82.241069 
L 490.139429 82.064669 
L 493.179638 82.140269 
L 496.219847 82.467869 
L 499.260056 83.047469 
L 502.300266 83.879069 
L 505.340475 84.962669 
L 508.380684 86.298269 
L 511.420893 87.885869 
L 514.461103 89.725469 
L 517.501312 91.817069 
L 520.541521 94.160669 
L 523.58173 96.756269 
L 526.621939 99.603869 
L 530.270191 103.353629 
L 533.918442 107.466269 
L 537.566693 111.941789 
L 541.214944 116.780189 
L 544.863195 121.981469 
L 548.511446 127.545629 
L 552.159697 133.472669 
L 556.41599 140.846189 
L 560.672283 148.713629 
L 564.928576 157.074989 
L 569.184869 165.930269 
L 573.441161 175.279469 
L 577.697454 185.122589 
L 582.561789 196.976669 
L 587.426124 209.475869 
L 592.290459 222.620189 
L 597.154793 236.409629 
L 602.019128 250.844189 
L 606.883463 265.923869 
L 611.747798 281.648669 
L 611.747798 281.648669 
" style="fill:none;stroke:#000000;stroke-linecap:round;stroke-width:1.5;"/>
   </g>
   <g id="patch_8">
    <path d="M 357.008667 293.739629 
L 357.008667 71.979629 
" style="fill:none;stroke:#262626;stroke-linecap:square;stroke-linejoin:miter;stroke-width:1.25;"/>
   </g>
   <g id="patch_9">
    <path d="M 623.878232 293.739629 
L 623.878232 71.979629 
" style="fill:none;stroke:#262626;stroke-linecap:square;stroke-linejoin:miter;stroke-width:1.25;"/>
   </g>
   <g id="patch_10">
    <path d="M 357.008667 293.739629 
L 623.878232 293.739629 
" style="fill:none;stroke:#262626;stroke-linecap:square;stroke-linejoin:miter;stroke-width:1.25;"/>
   </g>
   <g id="patch_11">
    <path d="M 357.008667 71.979629 
L 623.878232 71.979629 
" style="fill:none;stroke:#262626;stroke-linecap:square;stroke-linejoin:miter;stroke-width:1.25;"/>
   </g>
   <g id="text_19">
    <!-- {\bf (b)} $\log p(x \mid \mu, \sigma)$ -->
    <g style="fill:#262626;" transform="translate(380.484032 46.979629)scale(0.3 -0.3)">
     <defs>
      <path d="M 20.796875 70 
L 3.5 69.1875 
L 3.5 64.890625 
C 9.703125 64.890625 10.40625 64.890625 10.40625 60.875 
L 10.40625 -0.40625 
L 14.59375 -0.40625 
C 16.296875 1.5 18 3.40625 19.59375 5.421875 
C 24.703125 0.09375 30.203125 -1 34.203125 -1 
C 48 -1 58.59375 7.4375 58.59375 22.09375 
C 58.59375 35.9375 49.203125 45 35.5 45 
C 29.59375 45 24.90625 43.09375 20.796875 39.875 
z
M 21.296875 35.03125 
C 24.796875 39.875 30 41.6875 34.203125 41.6875 
C 46.59375 41.6875 46.59375 28.859375 46.59375 22.1875 
C 46.59375 17.65625 46.59375 11.890625 44.203125 8.15625 
C 41.09375 3.296875 36.40625 2.296875 33.203125 2.296875 
C 26.40625 2.296875 22.703125 7.140625 21.296875 9.359375 
z
" id="CMBX12-98"/>
      <path d="M 15.296875 69 
L 3.40625 67.890625 
L 3.40625 65.296875 
C 9.296875 65.296875 10.203125 64.703125 10.203125 59.921875 
L 10.203125 6.859375 
C 10.203125 3.09375 9.796875 2.59375 3.40625 2.59375 
L 3.40625 0 
C 5.796875 0.1875 10.203125 0.1875 12.703125 0.1875 
C 15.296875 0.1875 19.703125 0.1875 22.09375 0 
L 22.09375 2.59375 
C 15.703125 2.59375 15.296875 2.984375 15.296875 6.859375 
z
" id="CMR17-108"/>
      <path d="M 43.09375 21.1875 
C 43.09375 34 33.796875 44 22.90625 44 
C 12 44 2.703125 34 2.703125 21.1875 
C 2.703125 8.59375 12 -1 22.90625 -1 
C 33.796875 -1 43.09375 8.59375 43.09375 21.1875 
z
M 22.90625 0.796875 
C 18.203125 0.796875 14.203125 3.59375 11.90625 7.5 
C 9.40625 12 9.09375 17.59375 9.09375 22 
C 9.09375 26.1875 9.296875 31.390625 11.90625 35.890625 
C 13.90625 39.1875 17.796875 42.390625 22.90625 42.390625 
C 27.40625 42.390625 31.203125 39.890625 33.59375 36.390625 
C 36.703125 31.6875 36.703125 25.09375 36.703125 22 
C 36.703125 18.09375 36.5 12.09375 33.796875 7.296875 
C 31 2.6875 26.703125 0.796875 22.90625 0.796875 
z
" id="CMR17-111"/>
      <path d="M 11.09375 18.203125 
C 13 16.6875 16.296875 15 20.296875 15 
C 28.203125 15 35 21.234375 35 29.609375 
C 35 32.234375 34.203125 36.265625 31.203125 39.390625 
C 34 42.390625 38.09375 43.390625 40.40625 43.390625 
C 40.796875 43.390625 41.40625 43.390625 41.90625 43.09375 
C 41.5 42.984375 40.59375 42.59375 40.59375 40.984375 
C 40.59375 39.6875 41.5 38.796875 42.796875 38.796875 
C 44.296875 38.796875 45.09375 39.796875 45.09375 41.09375 
C 45.09375 42.984375 43.59375 45 40.40625 45 
C 36.40625 45 32.90625 43.09375 30.09375 40.484375 
C 27.09375 43.1875 23.5 44.1875 20.296875 44.1875 
C 12.40625 44.1875 5.59375 37.984375 5.59375 29.609375 
C 5.59375 23.859375 8.90625 20.21875 9.90625 19.21875 
C 6.90625 15.6875 6.90625 11.59375 6.90625 11.09375 
C 6.90625 8.5 7.90625 4.6875 11.296875 2.59375 
C 6.09375 1.28125 2 -2.875 2 -8.078125 
C 2 -15.5625 11.5 -21 22.90625 -21 
C 33.90625 -21 43.796875 -15.765625 43.796875 -7.96875 
C 43.796875 6 29 6 21.296875 6 
C 19 6 14.90625 6 14.40625 6.09375 
C 11.296875 6.59375 9.203125 9.390625 9.203125 12.890625 
C 9.203125 13.796875 9.203125 16 11.09375 18.203125 
z
M 20.296875 16.6875 
C 11.5 16.6875 11.5 27.59375 11.5 29.609375 
C 11.5 31.625 11.5 42.484375 20.296875 42.484375 
C 29.09375 42.484375 29.09375 31.625 29.09375 29.609375 
C 29.09375 27.59375 29.09375 16.6875 20.296875 16.6875 
z
M 22.90625 -19.3125 
C 12.90625 -19.3125 6 -13.796875 6 -8.078125 
C 6 -4.859375 7.703125 -1.84375 9.90625 -0.171875 
C 12.40625 1.59375 13.40625 1.59375 20.203125 1.59375 
C 28.40625 1.59375 39.796875 1.59375 39.796875 -8.078125 
C 39.796875 -13.796875 32.90625 -19.3125 22.90625 -19.3125 
z
" id="CMR17-103"/>
     </defs>
     <use transform="scale(0.996264)" xlink:href="#CMBX12-40"/>
     <use transform="translate(43.58655 0)scale(0.996264)" xlink:href="#CMBX12-98"/>
     <use transform="translate(105.853051 0)scale(0.996264)" xlink:href="#CMBX12-41"/>
     <use transform="translate(179.515568 0)scale(0.996264)" xlink:href="#CMR17-108"/>
     <use transform="translate(204.386626 0)scale(0.996264)" xlink:href="#CMR17-111"/>
     <use transform="translate(250.077103 0)scale(0.996264)" xlink:href="#CMR17-103"/>
     <use transform="translate(313.673152 0)scale(0.996264)" xlink:href="#CMMI12-112"/>
     <use transform="translate(362.632666 0)scale(0.996264)" xlink:href="#CMR17-40"/>
     <use transform="translate(397.913434 0)scale(0.996264)" xlink:href="#CMMI12-120"/>
     <use transform="translate(481.021502 0)scale(0.996264)" xlink:href="#CMSY10-106"/>
     <use transform="translate(536.369595 0)scale(0.996264)" xlink:href="#CMMI12-22"/>
     <use transform="translate(595.061017 0)scale(0.996264)" xlink:href="#CMMI12-59"/>
     <use transform="translate(638.762599 0)scale(0.996264)" xlink:href="#CMMI12-27"/>
     <use transform="translate(697.782653 0)scale(0.996264)" xlink:href="#CMR17-41"/>
    </g>
   </g>
  </g>
  <g id="axes_3">
   <g id="patch_12">
    <path d="M 677.252145 293.739629 
L 944.121711 293.739629 
L 944.121711 71.979629 
L 677.252145 71.979629 
z
" style="fill:#ffffff;"/>
   </g>
   <g id="matplotlib.axis_5">
    <g id="xtick_7">
     <g id="line2d_18"/>
     <g id="text_20">
      <!-- $\mathdefault{−2}$ -->
      <g style="fill:#262626;" transform="translate(675.833011 312.460322)scale(0.22 -0.22)">
       <use transform="scale(0.996264)" xlink:href="#CMSY10-0"/>
       <use transform="translate(77.487468 0)scale(0.996264)" xlink:href="#CMR17-50"/>
      </g>
     </g>
    </g>
    <g id="xtick_8">
     <g id="line2d_19"/>
     <g id="text_21">
      <!-- $\mathdefault{0}$ -->
      <g style="fill:#262626;" transform="translate(805.964996 312.460322)scale(0.22 -0.22)">
       <use transform="scale(0.996264)" xlink:href="#CMR17-48"/>
      </g>
     </g>
    </g>
    <g id="xtick_9">
     <g id="line2d_20"/>
     <g id="text_22">
      <!-- $\mathdefault{2}$ -->
      <g style="fill:#262626;" transform="translate(927.573365 312.460322)scale(0.22 -0.22)">
       <use transform="scale(0.996264)" xlink:href="#CMR17-50"/>
      </g>
     </g>
    </g>
    <g id="text_23">
     <!-- $x$ -->
     <g style="fill:#262626;" transform="translate(802.371819 341.479005)scale(0.3 -0.3)">
      <use transform="scale(0.996264)" xlink:href="#CMMI12-120"/>
     </g>
    </g>
   </g>
   <g id="matplotlib.axis_6">
    <g id="ytick_10">
     <g id="line2d_21"/>
     <g id="text_24">
      <!-- $\mathdefault{−2}$ -->
      <g style="fill:#262626;" transform="translate(646.653007 291.269976)scale(0.22 -0.22)">
       <use transform="scale(0.996264)" xlink:href="#CMSY10-0"/>
       <use transform="translate(77.487468 0)scale(0.996264)" xlink:href="#CMR17-50"/>
      </g>
     </g>
    </g>
    <g id="ytick_11">
     <g id="line2d_22"/>
     <g id="text_25">
      <!-- $\mathdefault{−1}$ -->
      <g style="fill:#262626;" transform="translate(646.653007 240.74366)scale(0.22 -0.22)">
       <use transform="scale(0.996264)" xlink:href="#CMSY10-0"/>
       <use transform="translate(77.487468 0)scale(0.996264)" xlink:href="#CMR17-49"/>
      </g>
     </g>
    </g>
    <g id="ytick_12">
     <g id="line2d_23"/>
     <g id="text_26">
      <!-- $\mathdefault{0}$ -->
      <g style="fill:#262626;" transform="translate(663.70024 190.217344)scale(0.22 -0.22)">
       <use transform="scale(0.996264)" xlink:href="#CMR17-48"/>
      </g>
     </g>
    </g>
    <g id="ytick_13">
     <g id="line2d_24"/>
     <g id="text_27">
      <!-- $\mathdefault{1}$ -->
      <g style="fill:#262626;" transform="translate(663.70024 139.691028)scale(0.22 -0.22)">
       <use transform="scale(0.996264)" xlink:href="#CMR17-49"/>
      </g>
     </g>
    </g>
    <g id="ytick_14">
     <g id="line2d_25"/>
     <g id="text_28">
      <!-- $\mathdefault{2}$ -->
      <g style="fill:#262626;" transform="translate(663.70024 89.164712)scale(0.22 -0.22)">
       <use transform="scale(0.996264)" xlink:href="#CMR17-50"/>
      </g>
     </g>
    </g>
   </g>
   <g id="line2d_26">
    <path clip-path="url(#pbe131bc638)" d="M 689.38258 283.659629 
L 931.991276 82.059629 
L 931.991276 82.059629 
" style="fill:none;stroke:#000000;stroke-linecap:round;stroke-width:1.5;"/>
   </g>
   <g id="patch_13">
    <path d="M 677.252145 293.739629 
L 677.252145 71.979629 
" style="fill:none;stroke:#262626;stroke-linecap:square;stroke-linejoin:miter;stroke-width:1.25;"/>
   </g>
   <g id="patch_14">
    <path d="M 944.121711 293.739629 
L 944.121711 71.979629 
" style="fill:none;stroke:#262626;stroke-linecap:square;stroke-linejoin:miter;stroke-width:1.25;"/>
   </g>
   <g id="patch_15">
    <path d="M 677.252145 293.739629 
L 944.121711 293.739629 
" style="fill:none;stroke:#262626;stroke-linecap:square;stroke-linejoin:miter;stroke-width:1.25;"/>
   </g>
   <g id="patch_16">
    <path d="M 677.252145 71.979629 
L 944.121711 71.979629 
" style="fill:none;stroke:#262626;stroke-linecap:square;stroke-linejoin:miter;stroke-width:1.25;"/>
   </g>
   <g id="text_29">
    <!-- {\bf (c)} $\frac{d}{d \mu} \log p(x \mid \mu, \sigma)$ -->
    <g style="fill:#262626;" transform="translate(687.424454 46.979629)scale(0.3 -0.3)">
     <defs>
      <path d="M 46.796875 11.3125 
C 46.796875 12.515625 45.703125 12.515625 44.703125 12.515625 
C 43.09375 12.515625 43 12.421875 42.5 11.21875 
C 41.796875 9.3125 39.09375 2.59375 29.90625 2.59375 
C 15.796875 2.59375 15.796875 17.828125 15.796875 22.34375 
C 15.796875 28.25 15.90625 41.390625 29 41.390625 
C 29.703125 41.390625 35.59375 41.1875 35.59375 40.6875 
C 35.59375 40.59375 35.5 40.484375 35.296875 40.390625 
C 35 40.09375 33.703125 38.578125 33.703125 36.078125 
C 33.703125 31.859375 37.09375 30.15625 39.59375 30.15625 
C 41.703125 30.15625 45.5 31.46875 45.5 36.171875 
C 45.5 44.390625 34 45 28.59375 45 
C 10.796875 45 3.796875 33.375 3.796875 21.84375 
C 3.796875 8.203125 13.296875 -1 28 -1 
C 43.703125 -1 46.796875 10.609375 46.796875 11.3125 
z
" id="CMBX12-99"/>
      <path d="M 50.296875 66.484375 
C 50.40625 66.890625 50.59375 67.484375 50.59375 67.984375 
C 50.59375 69 49.59375 69 49.40625 69 
C 49.296875 69 44.40625 68.59375 43.90625 68.484375 
C 42.203125 68.390625 40.703125 68.1875 38.90625 68.09375 
C 36.40625 67.890625 35.703125 67.796875 35.703125 65.984375 
C 35.703125 64.984375 36.5 64.984375 37.90625 64.984375 
C 42.796875 64.984375 42.90625 64.109375 42.90625 63.125 
C 42.90625 62.53125 42.703125 61.734375 42.59375 61.4375 
L 36.5 37.40625 
C 35.40625 40 32.703125 44 27.5 44 
C 16.203125 44 4 29.421875 4 14.65625 
C 4 4.78125 9.796875 -1 16.59375 -1 
C 22.09375 -1 26.796875 3.28125 29.59375 6.578125 
C 30.59375 0.6875 35.296875 -1 38.296875 -1 
C 41.296875 -1 43.703125 0.796875 45.5 4.390625 
C 47.09375 7.78125 48.5 13.859375 48.5 14.265625 
C 48.5 14.765625 48.09375 15.15625 47.5 15.15625 
C 46.59375 15.15625 46.5 14.65625 46.09375 13.15625 
C 44.59375 7.28125 42.703125 1 38.59375 1 
C 35.703125 1 35.5 3.59375 35.5 5.578125 
C 35.5 5.984375 35.5 8.078125 36.203125 10.875 
z
M 30.09375 11.859375 
C 29.59375 10.171875 29.59375 9.96875 28.203125 8.078125 
C 26 5.28125 21.59375 1 16.90625 1 
C 12.796875 1 10.5 4.6875 10.5 10.5625 
C 10.5 16.0625 13.59375 27.234375 15.5 31.421875 
C 18.90625 38.40625 23.59375 41.984375 27.5 41.984375 
C 34.09375 41.984375 35.40625 33.8125 35.40625 33.015625 
C 35.40625 32.921875 35.09375 31.625 35 31.421875 
z
" id="CMMI12-100"/>
     </defs>
     <use transform="scale(0.996264)" xlink:href="#CMBX12-40"/>
     <use transform="translate(43.58655 0)scale(0.996264)" xlink:href="#CMBX12-99"/>
     <use transform="translate(93.399751 0)scale(0.996264)" xlink:href="#CMBX12-41"/>
     <use transform="translate(188.799692 39.226102)scale(0.697382)" xlink:href="#CMMI12-100"/>
     <use transform="translate(168.257781 -34.355253)scale(0.697382)" xlink:href="#CMMI12-100"/>
     <use transform="translate(203.739988 -34.355253)scale(0.697382)" xlink:href="#CMMI12-22"/>
     <use transform="translate(262.623712 0)scale(0.996264)" xlink:href="#CMR17-108"/>
     <use transform="translate(287.494771 0)scale(0.996264)" xlink:href="#CMR17-111"/>
     <use transform="translate(333.185248 0)scale(0.996264)" xlink:href="#CMR17-103"/>
     <use transform="translate(396.781296 0)scale(0.996264)" xlink:href="#CMMI12-112"/>
     <use transform="translate(445.74081 0)scale(0.996264)" xlink:href="#CMR17-40"/>
     <use transform="translate(481.021578 0)scale(0.996264)" xlink:href="#CMMI12-120"/>
     <use transform="translate(564.129646 0)scale(0.996264)" xlink:href="#CMSY10-106"/>
     <use transform="translate(619.47774 0)scale(0.996264)" xlink:href="#CMMI12-22"/>
     <use transform="translate(678.169161 0)scale(0.996264)" xlink:href="#CMMI12-59"/>
     <use transform="translate(721.870744 0)scale(0.996264)" xlink:href="#CMMI12-27"/>
     <use transform="translate(780.890797 0)scale(0.996264)" xlink:href="#CMR17-41"/>
     <path d="M 168.257781 22.914133 
L 244.823793 22.914133 
L 244.823793 26.899083 
L 168.257781 26.899083 
L 168.257781 22.914133 
z
"/>
    </g>
   </g>
  </g>
  <g id="axes_4">
   <g id="patch_17">
    <path d="M 997.495624 293.739629 
L 1264.365189 293.739629 
L 1264.365189 71.979629 
L 997.495624 71.979629 
z
" style="fill:#ffffff;"/>
   </g>
   <g id="matplotlib.axis_7">
    <g id="xtick_10">
     <g id="line2d_27"/>
     <g id="text_30">
      <!-- $\mathdefault{−2}$ -->
      <g style="fill:#262626;" transform="translate(996.076489 312.460322)scale(0.22 -0.22)">
       <use transform="scale(0.996264)" xlink:href="#CMSY10-0"/>
       <use transform="translate(77.487468 0)scale(0.996264)" xlink:href="#CMR17-50"/>
      </g>
     </g>
    </g>
    <g id="xtick_11">
     <g id="line2d_28"/>
     <g id="text_31">
      <!-- $\mathdefault{0}$ -->
      <g style="fill:#262626;" transform="translate(1126.208475 312.460322)scale(0.22 -0.22)">
       <use transform="scale(0.996264)" xlink:href="#CMR17-48"/>
      </g>
     </g>
    </g>
    <g id="xtick_12">
     <g id="line2d_29"/>
     <g id="text_32">
      <!-- $\mathdefault{2}$ -->
      <g style="fill:#262626;" transform="translate(1247.816843 312.460322)scale(0.22 -0.22)">
       <use transform="scale(0.996264)" xlink:href="#CMR17-50"/>
      </g>
     </g>
    </g>
    <g id="text_33">
     <!-- $x$ -->
     <g style="fill:#262626;" transform="translate(1122.615297 341.479005)scale(0.3 -0.3)">
      <use transform="scale(0.996264)" xlink:href="#CMMI12-120"/>
     </g>
    </g>
   </g>
   <g id="matplotlib.axis_8">
    <g id="ytick_15">
     <g id="line2d_30"/>
     <g id="text_34">
      <!-- $\mathdefault{0}$ -->
      <g style="fill:#262626;" transform="translate(983.943719 291.269976)scale(0.22 -0.22)">
       <use transform="scale(0.996264)" xlink:href="#CMR17-48"/>
      </g>
     </g>
    </g>
    <g id="ytick_16">
     <g id="line2d_31"/>
     <g id="text_35">
      <!-- $\mathdefault{1}$ -->
      <g style="fill:#262626;" transform="translate(983.943719 240.869976)scale(0.22 -0.22)">
       <use transform="scale(0.996264)" xlink:href="#CMR17-49"/>
      </g>
     </g>
    </g>
    <g id="ytick_17">
     <g id="line2d_32"/>
     <g id="text_36">
      <!-- $\mathdefault{2}$ -->
      <g style="fill:#262626;" transform="translate(983.943719 190.469976)scale(0.22 -0.22)">
       <use transform="scale(0.996264)" xlink:href="#CMR17-50"/>
      </g>
     </g>
    </g>
    <g id="ytick_18">
     <g id="line2d_33"/>
     <g id="text_37">
      <!-- $\mathdefault{3}$ -->
      <g style="fill:#262626;" transform="translate(983.943719 140.069976)scale(0.22 -0.22)">
       <use transform="scale(0.996264)" xlink:href="#CMR17-51"/>
      </g>
     </g>
    </g>
    <g id="ytick_19">
     <g id="line2d_34"/>
     <g id="text_38">
      <!-- $\mathdefault{4}$ -->
      <g style="fill:#262626;" transform="translate(983.943719 89.669976)scale(0.22 -0.22)">
       <use transform="scale(0.996264)" xlink:href="#CMR17-52"/>
      </g>
     </g>
    </g>
   </g>
   <g id="line2d_35">
    <path clip-path="url(#p09f3e1f7eb)" d="M 1009.626058 82.059629 
L 1015.098435 99.795389 
L 1020.570812 116.714669 
L 1025.435146 131.068589 
L 1030.299481 144.777389 
L 1035.163816 157.841069 
L 1040.028151 170.259629 
L 1044.892485 182.033069 
L 1049.75682 193.161389 
L 1054.013113 202.369469 
L 1058.269406 211.083629 
L 1062.525699 219.303869 
L 1066.781992 227.030189 
L 1071.038285 234.262589 
L 1075.294578 241.001069 
L 1078.942829 246.383789 
L 1082.59108 251.403629 
L 1086.239331 256.060589 
L 1089.887582 260.354669 
L 1093.535833 264.285869 
L 1097.184084 267.854189 
L 1100.224293 270.550589 
L 1103.264502 272.994989 
L 1106.304712 275.187389 
L 1109.344921 277.127789 
L 1112.38513 278.816189 
L 1115.425339 280.252589 
L 1118.465548 281.436989 
L 1121.505758 282.369389 
L 1124.545967 283.049789 
L 1127.586176 283.478189 
L 1130.626385 283.654589 
L 1133.666595 283.578989 
L 1136.706804 283.251389 
L 1139.747013 282.671789 
L 1142.787222 281.840189 
L 1145.827431 280.756589 
L 1148.867641 279.420989 
L 1151.90785 277.833389 
L 1154.948059 275.993789 
L 1157.988268 273.902189 
L 1161.028478 271.558589 
L 1164.068687 268.962989 
L 1167.108896 266.115389 
L 1170.757147 262.365629 
L 1174.405398 258.252989 
L 1178.053649 253.777469 
L 1181.7019 248.939069 
L 1185.350151 243.737789 
L 1188.998402 238.173629 
L 1192.646653 232.246589 
L 1196.902946 224.873069 
L 1201.159239 217.005629 
L 1205.415532 208.644269 
L 1209.671825 199.788989 
L 1213.928118 190.439789 
L 1218.184411 180.596669 
L 1223.048746 168.742589 
L 1227.91308 156.243389 
L 1232.777415 143.099069 
L 1237.64175 129.309629 
L 1242.506085 114.875069 
L 1247.370419 99.795389 
L 1252.234754 84.070589 
L 1252.234754 84.070589 
" style="fill:none;stroke:#000000;stroke-linecap:round;stroke-width:1.5;"/>
   </g>
   <g id="patch_18">
    <path d="M 997.495624 293.739629 
L 997.495624 71.979629 
" style="fill:none;stroke:#262626;stroke-linecap:square;stroke-linejoin:miter;stroke-width:1.25;"/>
   </g>
   <g id="patch_19">
    <path d="M 1264.365189 293.739629 
L 1264.365189 71.979629 
" style="fill:none;stroke:#262626;stroke-linecap:square;stroke-linejoin:miter;stroke-width:1.25;"/>
   </g>
   <g id="patch_20">
    <path d="M 997.495624 293.739629 
L 1264.365189 293.739629 
" style="fill:none;stroke:#262626;stroke-linecap:square;stroke-linejoin:miter;stroke-width:1.25;"/>
   </g>
   <g id="patch_21">
    <path d="M 997.495624 71.979629 
L 1264.365189 71.979629 
" style="fill:none;stroke:#262626;stroke-linecap:square;stroke-linejoin:miter;stroke-width:1.25;"/>
   </g>
   <g id="text_39">
    <!-- {\bf (d)} $\left( \frac{d}{d \mu} \log p(x \mid \mu, \sigma) \right)^2$ -->
    <g style="fill:#262626;" transform="translate(983.152679 46.979629)scale(0.3 -0.3)">
     <defs>
      <path d="M 34.703125 69.1875 
L 34.703125 64.890625 
C 40.90625 64.890625 41.59375 64.890625 41.59375 60.875 
L 41.59375 40.171875 
C 39.40625 42.09375 35 45 28.09375 45 
C 13.90625 45 3.796875 36.140625 3.796875 22 
C 3.796875 7.546875 13.703125 -1 27 -1 
C 32.5 -1 37.203125 0.890625 41.09375 4.21875 
L 41.09375 -1 
L 58.90625 -0.40625 
L 58.90625 3.90625 
C 52.703125 3.90625 52 3.90625 52 7.84375 
L 52 70 
z
M 41.09375 9.765625 
C 36.90625 3.609375 31.796875 2.296875 28.203125 2.296875 
C 15.796875 2.296875 15.796875 15.125 15.796875 21.796875 
C 15.796875 26.546875 15.796875 31.59375 18 35.4375 
C 21.09375 41.09375 27 41.6875 29.296875 41.6875 
C 33.40625 41.6875 37.796875 39.875 41.09375 35.4375 
z
" id="CMBX12-100"/>
      <path d="M 51.5 -174.90625 
C 51.703125 -175 52.59375 -176 52.703125 -176 
L 54.90625 -176 
C 55.203125 -176 56 -175.90625 56 -175 
C 56 -174.609375 55.796875 -174.40625 55.59375 -174.109375 
C 52 -170.5 46.59375 -165 40.40625 -154 
C 29.59375 -134.78125 25.59375 -110.078125 25.59375 -86.0625 
C 25.59375 -41.640625 38.203125 -15.53125 55.703125 2.1875 
C 56 2.5 56 2.796875 56 3 
C 56 4 55.296875 4 54.09375 4 
C 52.796875 4 52.59375 4 51.703125 3.1875 
C 42.203125 -5.015625 31.5 -18.921875 24.59375 -40.03125 
C 20.296875 -53.25 18 -69.359375 18 -85.96875 
C 18 -109.671875 22.296875 -136.484375 38 -159.703125 
C 40.703125 -163.609375 44.40625 -167.703125 44.40625 -167.796875 
C 45.40625 -169 46.796875 -170.609375 47.59375 -171.3125 
z
" id="CMEX10-16"/>
      <path d="M 41.59375 -85.96875 
C 41.59375 -57.25 34.90625 -26.734375 15.203125 -4.21875 
C 13.796875 -2.625 10.09375 1.28125 7.703125 3.390625 
C 7 4 6.796875 4 5.5 4 
C 4.5 4 3.59375 4 3.59375 3 
C 3.59375 2.59375 4 2.1875 4.203125 2 
C 7.59375 -1.515625 13 -7.015625 19.203125 -18.03125 
C 30 -37.234375 34 -61.953125 34 -85.96875 
C 34 -129.390625 22 -155.890625 4 -174.203125 
C 3.796875 -174.40625 3.59375 -174.703125 3.59375 -175 
C 3.59375 -176 4.5 -176 5.5 -176 
C 6.796875 -176 7 -176 7.90625 -175.203125 
C 17.40625 -167 28.09375 -153.09375 35 -131.984375 
C 39.40625 -118.28125 41.59375 -102.078125 41.59375 -85.96875 
z
" id="CMEX10-17"/>
     </defs>
     <use transform="scale(0.996264)" xlink:href="#CMBX12-40"/>
     <use transform="translate(43.58655 0)scale(0.996264)" xlink:href="#CMBX12-100"/>
     <use transform="translate(105.853051 0)scale(0.996264)" xlink:href="#CMBX12-41"/>
     <use transform="translate(179.515568 110.586308)scale(0.996264)" xlink:href="#CMEX10-16"/>
     <use transform="translate(260.752281 39.226102)scale(0.697382)" xlink:href="#CMMI12-100"/>
     <use transform="translate(240.210371 -34.355253)scale(0.697382)" xlink:href="#CMMI12-100"/>
     <use transform="translate(275.692578 -34.355253)scale(0.697382)" xlink:href="#CMMI12-22"/>
     <use transform="translate(334.576302 0)scale(0.996264)" xlink:href="#CMR17-108"/>
     <use transform="translate(359.44736 0)scale(0.996264)" xlink:href="#CMR17-111"/>
     <use transform="translate(405.137838 0)scale(0.996264)" xlink:href="#CMR17-103"/>
     <use transform="translate(468.733886 0)scale(0.996264)" xlink:href="#CMMI12-112"/>
     <use transform="translate(517.6934 0)scale(0.996264)" xlink:href="#CMR17-40"/>
     <use transform="translate(552.974168 0)scale(0.996264)" xlink:href="#CMMI12-120"/>
     <use transform="translate(636.082236 0)scale(0.996264)" xlink:href="#CMSY10-106"/>
     <use transform="translate(691.43033 0)scale(0.996264)" xlink:href="#CMMI12-22"/>
     <use transform="translate(750.121751 0)scale(0.996264)" xlink:href="#CMMI12-59"/>
     <use transform="translate(793.823333 0)scale(0.996264)" xlink:href="#CMMI12-27"/>
     <use transform="translate(852.843387 0)scale(0.996264)" xlink:href="#CMR17-41"/>
     <use transform="translate(888.124155 110.586308)scale(0.996264)" xlink:href="#CMEX10-17"/>
     <use transform="translate(947.623445 87.644767)scale(0.697382)" xlink:href="#CMR17-50"/>
     <path d="M 240.210371 22.914133 
L 316.776383 22.914133 
L 316.776383 26.899083 
L 240.210371 26.899083 
L 240.210371 22.914133 
z
"/>
    </g>
   </g>
  </g>
 </g>
 <defs>
  <clipPath id="p371f286938">
   <rect height="221.76" width="266.869565" x="36.765189" y="71.979629"/>
  </clipPath>
  <clipPath id="pe1bf300fa7">
   <rect height="221.76" width="266.869565" x="357.008667" y="71.979629"/>
  </clipPath>
  <clipPath id="pbe131bc638">
   <rect height="221.76" width="266.869565" x="677.252145" y="71.979629"/>
  </clipPath>
  <clipPath id="p09f3e1f7eb">
   <rect height="221.76" width="266.869565" x="997.495624" y="71.979629"/>
  </clipPath>
 </defs>
</svg>
