<?xml version="1.0" encoding="utf-8" standalone="no"?>
<!DOCTYPE svg PUBLIC "-//W3C//DTD SVG 1.1//EN"
  "http://www.w3.org/Graphics/SVG/1.1/DTD/svg11.dtd">
<!-- Created with matplotlib (https://matplotlib.org/) -->
<svg height="340.117726pt" version="1.1" viewBox="0 0 1282.762348 340.117726" width="1282.762348pt" xmlns="http://www.w3.org/2000/svg" xmlns:xlink="http://www.w3.org/1999/xlink">
 <metadata>
  <rdf:RDF xmlns:cc="http://creativecommons.org/ns#" xmlns:dc="http://purl.org/dc/elements/1.1/" xmlns:rdf="http://www.w3.org/1999/02/22-rdf-syntax-ns#">
   <cc:Work>
    <dc:type rdf:resource="http://purl.org/dc/dcmitype/StillImage"/>
    <dc:date>2021-09-05T13:46:13.917524</dc:date>
    <dc:format>image/svg+xml</dc:format>
    <dc:creator>
     <cc:Agent>
      <dc:title>Matplotlib v3.3.4, https://matplotlib.org/</dc:title>
     </cc:Agent>
    </dc:creator>
   </cc:Work>
  </rdf:RDF>
 </metadata>
 <defs>
  <style type="text/css">*{stroke-linecap:butt;stroke-linejoin:round;}</style>
 </defs>
 <g id="figure_1">
  <g id="patch_1">
   <path d="M 0 340.117726 
L 1282.762348 340.117726 
L 1282.762348 0 
L 0 0 
z
" style="fill:#ffffff;"/>
  </g>
  <g id="axes_1">
   <g id="patch_2">
    <path d="M 46.817094 279.364899 
L 313.686659 279.364899 
L 313.686659 57.604899 
L 46.817094 57.604899 
z
" style="fill:#ffffff;"/>
   </g>
   <g id="matplotlib.axis_1">
    <g id="xtick_1">
     <g id="line2d_1"/>
     <g id="text_1">
      <!-- $\mathdefault{0.0}$ -->
      <g style="fill:#262626;" transform="translate(45.671839 298.085593)scale(0.22 -0.22)">
       <defs>
        <path d="M 42 31.84375 
C 42 37.96875 41.90625 48.421875 37.703125 56.453125 
C 34 63.484375 28.09375 66 22.90625 66 
C 18.09375 66 12 63.78125 8.203125 56.5625 
C 4.203125 49.015625 3.796875 39.671875 3.796875 31.84375 
C 3.796875 26.109375 3.90625 17.375 7 9.734375 
C 11.296875 -0.609375 19 -2 22.90625 -2 
C 27.5 -2 34.5 -0.109375 38.59375 9.4375 
C 41.59375 16.375 42 24.5 42 31.84375 
z
M 22.90625 -0.40625 
C 16.5 -0.40625 12.703125 5.125 11.296875 12.75 
C 10.203125 18.6875 10.203125 27.328125 10.203125 32.953125 
C 10.203125 40.6875 10.203125 47.109375 11.5 53.234375 
C 13.40625 61.78125 19 64.390625 22.90625 64.390625 
C 27 64.390625 32.296875 61.671875 34.203125 53.4375 
C 35.5 47.71875 35.59375 40.984375 35.59375 32.953125 
C 35.59375 26.421875 35.59375 18.375 34.40625 12.453125 
C 32.296875 1.5 26.40625 -0.40625 22.90625 -0.40625 
z
" id="CMR17-48"/>
        <path d="M 18.40625 4.796875 
C 18.40625 7.6875 16 9.6875 13.59375 9.6875 
C 10.703125 9.6875 8.703125 7.296875 8.703125 4.890625 
C 8.703125 2 11.09375 0 13.5 0 
C 16.40625 0 18.40625 2.390625 18.40625 4.796875 
z
" id="CMMI12-58"/>
       </defs>
       <use transform="scale(0.996264)" xlink:href="#CMR17-48"/>
       <use transform="translate(45.690477 0)scale(0.996264)" xlink:href="#CMMI12-58"/>
       <use transform="translate(72.787654 0)scale(0.996264)" xlink:href="#CMR17-48"/>
      </g>
     </g>
    </g>
    <g id="xtick_2">
     <g id="line2d_2"/>
     <g id="text_2">
      <!-- $\mathdefault{0.5}$ -->
      <g style="fill:#262626;" transform="translate(167.219282 298.085593)scale(0.22 -0.22)">
       <defs>
        <path d="M 11.40625 58.59375 
C 12.40625 58.1875 16.5 56.890625 20.703125 56.890625 
C 30 56.890625 35.09375 61.890625 38 64.6875 
C 38 65.484375 38 66 37.40625 66 
C 37.296875 66 37.09375 66 36.296875 65.59375 
C 32.796875 64.09375 28.703125 63 23.703125 63 
C 20.703125 63 16.203125 63.359375 11.296875 65.484375 
C 10.203125 66 10 66 9.90625 66 
C 9.40625 66 9.296875 65.890625 9.296875 63.90625 
L 9.296875 34.859375 
C 9.296875 33.015625 9.296875 32.5 10.296875 32.5 
C 10.796875 32.5 11 32.703125 11.5 33.421875 
C 14.703125 38.046875 19.09375 40 24.09375 40 
C 27.59375 40 35.09375 37.734375 35.09375 20.203125 
C 35.09375 16.984375 35.09375 11.1875 32.09375 6.59375 
C 29.59375 2.484375 25.703125 0.390625 21.40625 0.390625 
C 14.796875 0.390625 8.09375 4.984375 6.296875 12.6875 
C 6.703125 12.59375 7.5 12.390625 7.90625 12.390625 
C 9.203125 12.390625 11.703125 13.09375 11.703125 16.1875 
C 11.703125 18.890625 9.796875 20 7.90625 20 
C 5.59375 20 4.09375 18.59375 4.09375 15.796875 
C 4.09375 7.09375 11 -2 21.59375 -2 
C 31.90625 -2 41.703125 6.890625 41.703125 19.796875 
C 41.703125 32.09375 33.90625 41.59375 24.203125 41.59375 
C 19.09375 41.59375 14.796875 39.6875 11.40625 36 
z
" id="CMR17-53"/>
       </defs>
       <use transform="scale(0.996264)" xlink:href="#CMR17-48"/>
       <use transform="translate(45.690477 0)scale(0.996264)" xlink:href="#CMMI12-58"/>
       <use transform="translate(72.787654 0)scale(0.996264)" xlink:href="#CMR17-53"/>
      </g>
     </g>
    </g>
    <g id="xtick_3">
     <g id="line2d_3"/>
     <g id="text_3">
      <!-- $\mathdefault{1.0}$ -->
      <g style="fill:#262626;" transform="translate(288.766725 298.085593)scale(0.22 -0.22)">
       <defs>
        <path d="M 26.59375 63.796875 
C 26.59375 65.890625 26.5 66 25.09375 66 
C 21.203125 61.359375 15.296875 59.890625 9.703125 59.6875 
C 9.40625 59.6875 8.90625 59.6875 8.796875 59.5 
C 8.703125 59.296875 8.703125 59.09375 8.703125 57 
C 11.796875 57 17 57.59375 21 59.984375 
L 21 7.296875 
C 21 3.796875 20.796875 2.59375 12.203125 2.59375 
L 9.203125 2.59375 
L 9.203125 0 
C 14 0.09375 19 0.1875 23.796875 0.1875 
C 28.59375 0.1875 33.59375 0.09375 38.40625 0 
L 38.40625 2.59375 
L 35.40625 2.59375 
C 26.796875 2.59375 26.59375 3.6875 26.59375 7.296875 
z
" id="CMR17-49"/>
       </defs>
       <use transform="scale(0.996264)" xlink:href="#CMR17-49"/>
       <use transform="translate(45.690477 0)scale(0.996264)" xlink:href="#CMMI12-58"/>
       <use transform="translate(72.787654 0)scale(0.996264)" xlink:href="#CMR17-48"/>
      </g>
     </g>
    </g>
    <g id="text_4">
     <!-- $\theta$ -->
     <g style="fill:#262626;" transform="translate(173.432912 327.104276)scale(0.3 -0.3)">
      <defs>
       <path d="M 44.296875 50 
C 44.296875 60.140625 41.09375 70 32.90625 70 
C 18.90625 70 4 40.859375 4 18.984375 
C 4 14.40625 5 -1 15.5 -1 
C 29.09375 -1 44.296875 27.421875 44.296875 50 
z
M 14 36 
C 15.5 41.859375 17.59375 50.203125 21.59375 57.265625 
C 24.90625 63.21875 28.40625 67.984375 32.796875 67.984375 
C 36.09375 67.984375 38.296875 65.203125 38.296875 55.671875 
C 38.296875 52.09375 38 47.125 35.09375 36 
z
M 34.40625 33 
C 31.90625 23.25 29.796875 17 26.203125 10.734375 
C 23.296875 5.65625 19.796875 1 15.59375 1 
C 12.5 1 10 3.375 10 13.21875 
C 10 19.671875 11.59375 26.4375 13.203125 33 
z
" id="CMMI12-18"/>
      </defs>
      <use transform="scale(0.996264)" xlink:href="#CMMI12-18"/>
     </g>
    </g>
   </g>
   <g id="matplotlib.axis_2">
    <g id="ytick_1">
     <g id="line2d_4"/>
     <g id="text_5">
      <!-- $\mathdefault{0.00}$ -->
      <g style="fill:#262626;" transform="translate(7.2 277.09725)scale(0.22 -0.22)">
       <use transform="scale(0.996264)" xlink:href="#CMR17-48"/>
       <use transform="translate(45.690477 0)scale(0.996264)" xlink:href="#CMMI12-58"/>
       <use transform="translate(72.787654 0)scale(0.996264)" xlink:href="#CMR17-48"/>
       <use transform="translate(118.478131 0)scale(0.996264)" xlink:href="#CMR17-48"/>
      </g>
     </g>
    </g>
    <g id="ytick_2">
     <g id="line2d_5"/>
     <g id="text_6">
      <!-- $\mathdefault{0.25}$ -->
      <g style="fill:#262626;" transform="translate(7.2 226.596248)scale(0.22 -0.22)">
       <defs>
        <path d="M 41.703125 15.46875 
L 39.90625 15.46875 
C 38.90625 8.390625 38.09375 7.1875 37.703125 6.59375 
C 37.203125 5.796875 30 5.796875 28.59375 5.796875 
L 9.40625 5.796875 
C 13 9.6875 20 16.765625 28.5 24.9375 
C 34.59375 30.71875 41.703125 37.5 41.703125 47.390625 
C 41.703125 59.1875 32.296875 66 21.796875 66 
C 10.796875 66 4.09375 56.296875 4.09375 47.296875 
C 4.09375 43.390625 7 42.890625 8.203125 42.890625 
C 9.203125 42.890625 12.203125 43.484375 12.203125 46.984375 
C 12.203125 50.09375 9.59375 51 8.203125 51 
C 7.59375 51 7 50.890625 6.59375 50.6875 
C 8.5 59.1875 14.296875 63.390625 20.40625 63.390625 
C 29.09375 63.390625 34.796875 56.5 34.796875 47.390625 
C 34.796875 38.703125 29.703125 31.21875 24 24.734375 
L 4.09375 2.296875 
L 4.09375 0 
L 39.296875 0 
z
" id="CMR17-50"/>
       </defs>
       <use transform="scale(0.996264)" xlink:href="#CMR17-48"/>
       <use transform="translate(45.690477 0)scale(0.996264)" xlink:href="#CMMI12-58"/>
       <use transform="translate(72.787654 0)scale(0.996264)" xlink:href="#CMR17-50"/>
       <use transform="translate(118.478131 0)scale(0.996264)" xlink:href="#CMR17-53"/>
      </g>
     </g>
    </g>
    <g id="ytick_3">
     <g id="line2d_6"/>
     <g id="text_7">
      <!-- $\mathdefault{0.50}$ -->
      <g style="fill:#262626;" transform="translate(7.2 176.095246)scale(0.22 -0.22)">
       <use transform="scale(0.996264)" xlink:href="#CMR17-48"/>
       <use transform="translate(45.690477 0)scale(0.996264)" xlink:href="#CMMI12-58"/>
       <use transform="translate(72.787654 0)scale(0.996264)" xlink:href="#CMR17-53"/>
       <use transform="translate(118.478131 0)scale(0.996264)" xlink:href="#CMR17-48"/>
      </g>
     </g>
    </g>
    <g id="ytick_4">
     <g id="line2d_7"/>
     <g id="text_8">
      <!-- $\mathdefault{0.75}$ -->
      <g style="fill:#262626;" transform="translate(7.2 125.594244)scale(0.22 -0.22)">
       <defs>
        <path d="M 45.09375 61.796875 
L 45.09375 64 
L 21.59375 64 
C 9.90625 64 9.703125 65.09375 9.296875 67 
L 7.5 67 
L 4.59375 48.5 
L 6.40625 48.5 
C 6.703125 50.40625 7.40625 55.5 8.59375 57.390625 
C 9.203125 58.1875 16.59375 58.1875 18.296875 58.1875 
L 40.296875 58.1875 
L 29.203125 41.71875 
C 21.796875 30.640625 16.703125 15.671875 16.703125 2.59375 
C 16.703125 1.390625 16.703125 -2 20.296875 -2 
C 23.90625 -2 23.90625 1.390625 23.90625 2.6875 
L 23.90625 7.28125 
C 23.90625 23.65625 26.703125 34.4375 31.296875 41.3125 
z
" id="CMR17-55"/>
       </defs>
       <use transform="scale(0.996264)" xlink:href="#CMR17-48"/>
       <use transform="translate(45.690477 0)scale(0.996264)" xlink:href="#CMMI12-58"/>
       <use transform="translate(72.787654 0)scale(0.996264)" xlink:href="#CMR17-55"/>
       <use transform="translate(118.478131 0)scale(0.996264)" xlink:href="#CMR17-53"/>
      </g>
     </g>
    </g>
    <g id="ytick_5">
     <g id="line2d_8"/>
     <g id="text_9">
      <!-- $\mathdefault{1.00}$ -->
      <g style="fill:#262626;" transform="translate(7.2 75.093242)scale(0.22 -0.22)">
       <use transform="scale(0.996264)" xlink:href="#CMR17-49"/>
       <use transform="translate(45.690477 0)scale(0.996264)" xlink:href="#CMMI12-58"/>
       <use transform="translate(72.787654 0)scale(0.996264)" xlink:href="#CMR17-48"/>
       <use transform="translate(118.478131 0)scale(0.996264)" xlink:href="#CMR17-48"/>
      </g>
     </g>
    </g>
   </g>
   <g id="line2d_9">
    <path clip-path="url(#pc0d3678e2f)" d="M 58.947529 269.284899 
L 301.556224 67.684899 
L 301.556224 67.684899 
" style="fill:none;stroke:#000000;stroke-linecap:round;stroke-width:1.5;"/>
   </g>
   <g id="line2d_10">
    <path clip-path="url(#pc0d3678e2f)" d="M 58.947529 67.684899 
L 301.556224 269.284899 
L 301.556224 269.284899 
" style="fill:none;stroke:#000000;stroke-dasharray:5.55,2.4;stroke-dashoffset:0;stroke-width:1.5;"/>
   </g>
   <g id="patch_3">
    <path d="M 46.817094 279.364899 
L 46.817094 57.604899 
" style="fill:none;stroke:#262626;stroke-linecap:square;stroke-linejoin:miter;stroke-width:1.25;"/>
   </g>
   <g id="patch_4">
    <path d="M 313.686659 279.364899 
L 313.686659 57.604899 
" style="fill:none;stroke:#262626;stroke-linecap:square;stroke-linejoin:miter;stroke-width:1.25;"/>
   </g>
   <g id="patch_5">
    <path d="M 46.817094 279.364899 
L 313.686659 279.364899 
" style="fill:none;stroke:#262626;stroke-linecap:square;stroke-linejoin:miter;stroke-width:1.25;"/>
   </g>
   <g id="patch_6">
    <path d="M 46.817094 57.604899 
L 313.686659 57.604899 
" style="fill:none;stroke:#262626;stroke-linecap:square;stroke-linejoin:miter;stroke-width:1.25;"/>
   </g>
   <g id="text_10">
    <!-- $x=0$ -->
    <g style="fill:#262626;" transform="translate(51.411587 128.084098)scale(0.24 -0.24)">
     <defs>
      <path d="M 47.40625 41 
C 44.203125 40.390625 43 37.984375 43 36.09375 
C 43 33.6875 44.90625 32.890625 46.296875 32.890625 
C 49.296875 32.890625 51.40625 35.484375 51.40625 38.1875 
C 51.40625 42.09375 46.59375 44 42.40625 44 
C 36.296875 44 32.90625 38.296875 32 36.390625 
C 29.703125 43.59375 23.5 44 21.703125 44 
C 11.5 44 6.09375 31.140625 6.09375 28.890625 
C 6.09375 28.484375 6.5 27.96875 7.203125 27.96875 
C 8 27.96875 8.203125 28.578125 8.40625 28.984375 
C 11.796875 40.1875 18.5 41.984375 21.40625 41.984375 
C 25.90625 41.984375 26.796875 38.09375 26.796875 35.6875 
C 26.796875 33.484375 26.203125 31.140625 25 26.21875 
L 21.59375 12.15625 
C 20.09375 6.09375 17.203125 1 11.90625 1 
C 11.40625 1 8.90625 1 6.796875 1.96875 
C 10.40625 2.59375 11.203125 5.59375 11.203125 6.796875 
C 11.203125 8.796875 9.703125 10 7.796875 10 
C 5.40625 10 2.796875 7.890625 2.796875 4.6875 
C 2.796875 0.890625 7.5 -1 11.796875 -1 
C 16.59375 -1 20 2.390625 22.09375 6.484375 
C 23.703125 1 28.703125 -1 32.40625 -1 
C 42.59375 -1 48 11.734375 48 14 
C 48 14.515625 47.59375 14.921875 47 14.921875 
C 46.09375 14.921875 46 14.40625 45.703125 13.59375 
C 43 4.6875 37.203125 1 32.703125 1 
C 29.203125 1 27.296875 3.1875 27.296875 7.296875 
C 27.296875 9.484375 27.703125 11.125 29.296875 17.90625 
L 32.796875 31.859375 
C 34.296875 37.890625 37.703125 41.984375 42.296875 41.984375 
C 42.5 41.984375 45.296875 41.984375 47.40625 41 
z
" id="CMMI12-120"/>
      <path d="M 64.296875 32 
C 65.796875 32 67.296875 32 67.296875 33.6875 
C 67.296875 35.5 65.59375 35.5 63.90625 35.5 
L 8 35.5 
C 6.296875 35.5 4.59375 35.5 4.59375 33.6875 
C 4.59375 32 6.09375 32 7.59375 32 
z
M 63.90625 14.484375 
C 65.59375 14.484375 67.296875 14.484375 67.296875 16.296875 
C 67.296875 18 65.796875 18 64.296875 18 
L 7.59375 18 
C 6.09375 18 4.59375 18 4.59375 16.296875 
C 4.59375 14.484375 6.296875 14.484375 8 14.484375 
z
" id="CMR17-61"/>
     </defs>
     <use transform="scale(0.996264)" xlink:href="#CMMI12-120"/>
     <use transform="translate(83.108068 0)scale(0.996264)" xlink:href="#CMR17-61"/>
     <use transform="translate(182.496865 0)scale(0.996264)" xlink:href="#CMR17-48"/>
    </g>
   </g>
   <g id="text_11">
    <!-- $x=1$ -->
    <g style="fill:#262626;" transform="translate(253.180342 128.084098)scale(0.24 -0.24)">
     <use transform="scale(0.996264)" xlink:href="#CMMI12-120"/>
     <use transform="translate(83.108068 0)scale(0.996264)" xlink:href="#CMR17-61"/>
     <use transform="translate(182.496865 0)scale(0.996264)" xlink:href="#CMR17-49"/>
    </g>
   </g>
   <g id="text_12">
    <!-- {\bf (a)} $p(x \mid \theta)$ -->
    <g style="fill:#262626;" transform="translate(108.570091 32.604899)scale(0.3 -0.3)">
     <defs>
      <path d="M 37.40625 -23.90625 
C 37.40625 -23.515625 37.40625 -23.3125 35.5 -21.5 
C 24.296875 -10.3125 20 7.296875 20 24.890625 
C 20 44.59375 24.90625 60.796875 36.09375 72.09375 
C 37.296875 73.296875 37.40625 73.390625 37.40625 73.796875 
C 37.40625 75 36.203125 75 35.703125 75 
C 34.796875 75 34.59375 75 32 72.890625 
C 17.59375 61.390625 10.796875 43 10.796875 25 
C 10.796875 6.59375 17.703125 -11.3125 31.90625 -22.90625 
C 34.5 -25.109375 34.703125 -25.109375 35.703125 -25.109375 
C 36.203125 -25.109375 37.40625 -25.109375 37.40625 -23.90625 
z
" id="CMBX12-40"/>
      <path d="M 46 29.59375 
C 46 38.796875 38.703125 45 24.59375 45 
C 19 45 7.203125 44.484375 7.203125 36.09375 
C 7.203125 31.890625 10.40625 30.09375 13.09375 30.09375 
C 16.09375 30.09375 19 32.1875 19 35.984375 
C 19 37.890625 18.296875 39.6875 16.59375 40.796875 
C 19.90625 41.6875 22.296875 41.6875 24.203125 41.6875 
C 31 41.6875 35.09375 37.890625 35.09375 29.6875 
L 35.09375 25.6875 
C 19.296875 25.6875 3.40625 21.28125 3.40625 10.125 
C 3.40625 1 15 -1 21.90625 -1 
C 29.59375 -1 34.5 3.203125 36.5 7.625 
C 36.5 3.90625 36.5 -0.40625 46.59375 -0.40625 
L 51.703125 -0.40625 
C 53.796875 -0.40625 54.59375 -0.40625 54.59375 1.796875 
C 54.59375 3.90625 53.703125 3.90625 52.296875 3.90625 
C 46 4 46 5.609375 46 7.921875 
z
M 35.09375 13.546875 
C 35.09375 4.09375 26.703125 2.296875 23.5 2.296875 
C 18.59375 2.296875 14.5 5.609375 14.5 10.234375 
C 14.5 19.375 25.296875 22.484375 35.09375 23 
z
" id="CMBX12-97"/>
      <path d="M 32.796875 24.890625 
C 32.796875 43.296875 25.90625 61.203125 11.703125 72.796875 
C 9.09375 75 8.90625 75 7.90625 75 
C 7.40625 75 6.203125 75 6.203125 73.796875 
C 6.203125 73.390625 6.203125 73.1875 8.09375 71.390625 
C 19.296875 60.203125 23.59375 42.59375 23.59375 25 
C 23.59375 5.296875 18.703125 -10.90625 7.5 -22.203125 
C 6.296875 -23.40625 6.203125 -23.515625 6.203125 -23.90625 
C 6.203125 -25.109375 7.40625 -25.109375 7.90625 -25.109375 
C 8.796875 -25.109375 9 -25.109375 11.59375 -23 
C 26 -11.5 32.796875 6.890625 32.796875 24.890625 
z
" id="CMBX12-41"/>
      <path d="M 4.296875 -12.40625 
C 3.59375 -15.328125 3.203125 -16.109375 -0.90625 -16.109375 
C -2.109375 -16.109375 -3.109375 -16.109375 -3.109375 -18 
C -3.109375 -18.203125 -3 -19 -1.90625 -19 
C -0.609375 -19 0.796875 -18.8125 2.09375 -18.8125 
L 6.40625 -18.8125 
C 8.5 -18.8125 13.59375 -19 15.703125 -19 
C 16.296875 -19 17.5 -19 17.5 -17.203125 
C 17.5 -16.109375 16.796875 -16.109375 15.09375 -16.109375 
C 10.5 -16.109375 10.203125 -15.421875 10.203125 -14.640625 
C 10.203125 -13.484375 14.703125 3.390625 15.296875 5.6875 
C 16.40625 2.890625 19.09375 -1 24.296875 -1 
C 35.59375 -1 47.796875 13.65625 47.796875 28.328125 
C 47.796875 37.5 42.59375 44 35.09375 44 
C 28.703125 44 23.296875 37.796875 22.203125 36.40625 
C 21.40625 41.390625 17.5 44 13.5 44 
C 10.59375 44 8.296875 42.59375 6.40625 38.796875 
C 4.59375 35.203125 3.203125 29.125 3.203125 28.71875 
C 3.203125 28.328125 3.59375 27.828125 4.296875 27.828125 
C 5.09375 27.828125 5.203125 27.921875 5.796875 30.21875 
C 7.296875 36.109375 9.203125 41.984375 13.203125 41.984375 
C 15.5 41.984375 16.296875 40.390625 16.296875 37.40625 
C 16.296875 35.015625 16 34.015625 15.59375 32.21875 
z
M 21.59375 31.125 
C 22.296875 33.90625 25.09375 36.8125 26.703125 38.203125 
C 27.796875 39.203125 31.09375 41.984375 34.90625 41.984375 
C 39.296875 41.984375 41.296875 37.609375 41.296875 32.421875 
C 41.296875 27.625 38.5 16.359375 36 11.171875 
C 33.5 5.78125 28.90625 1 24.296875 1 
C 17.5 1 16.40625 9.578125 16.40625 9.96875 
C 16.40625 10.265625 16.59375 11.0625 16.703125 11.5625 
z
" id="CMMI12-112"/>
      <path d="M 30.59375 -24.40625 
C 30.59375 -24.3125 30.59375 -24.109375 30.296875 -23.8125 
C 25.703125 -19.109375 13.40625 -6.296875 13.40625 24.9375 
C 13.40625 56.171875 25.5 68.875 30.40625 73.890625 
C 30.40625 73.984375 30.59375 74.1875 30.59375 74.484375 
C 30.59375 74.796875 30.296875 75 29.90625 75 
C 28.796875 75 20.296875 67.578125 15.40625 56.5625 
C 10.40625 45.453125 9 34.65625 9 25.046875 
C 9 17.828125 9.703125 5.625 15.703125 -7.296875 
C 20.5 -17.703125 28.703125 -25 29.90625 -25 
C 30.40625 -25 30.59375 -24.8125 30.59375 -24.40625 
z
" id="CMR17-40"/>
      <path d="M 15.90625 71.390625 
C 15.90625 73.1875 15.90625 75 13.90625 75 
C 11.90625 75 11.90625 73.1875 11.90625 71.390625 
L 11.90625 -21.40625 
C 11.90625 -23.203125 11.90625 -25 13.90625 -25 
C 15.90625 -25 15.90625 -23.203125 15.90625 -21.40625 
z
" id="CMSY10-106"/>
      <path d="M 26.296875 24.9375 
C 26.296875 32.140625 25.59375 44.359375 19.59375 57.265625 
C 14.796875 67.6875 6.59375 75 5.40625 75 
C 5.09375 75 4.703125 74.890625 4.703125 74.390625 
C 4.703125 74.1875 4.796875 74.09375 4.90625 73.890625 
C 9.703125 68.875 21.90625 56.171875 21.90625 25.046875 
C 21.90625 -6.1875 9.796875 -18.90625 4.90625 -23.90625 
C 4.796875 -24.109375 4.703125 -24.203125 4.703125 -24.40625 
C 4.703125 -24.90625 5.09375 -25 5.40625 -25 
C 6.5 -25 15 -17.609375 19.90625 -6.59375 
C 24.90625 4.515625 26.296875 15.328125 26.296875 24.9375 
z
" id="CMR17-41"/>
     </defs>
     <use transform="scale(0.996264)" xlink:href="#CMBX12-40"/>
     <use transform="translate(43.58655 0)scale(0.996264)" xlink:href="#CMBX12-97"/>
     <use transform="translate(98.069738 0)scale(0.996264)" xlink:href="#CMBX12-41"/>
     <use transform="translate(171.732255 0)scale(0.996264)" xlink:href="#CMMI12-112"/>
     <use transform="translate(220.691769 0)scale(0.996264)" xlink:href="#CMR17-40"/>
     <use transform="translate(255.972537 0)scale(0.996264)" xlink:href="#CMMI12-120"/>
     <use transform="translate(339.080605 0)scale(0.996264)" xlink:href="#CMSY10-106"/>
     <use transform="translate(394.428699 0)scale(0.996264)" xlink:href="#CMMI12-18"/>
     <use transform="translate(442.598207 0)scale(0.996264)" xlink:href="#CMR17-41"/>
    </g>
   </g>
  </g>
  <g id="axes_2">
   <g id="patch_7">
    <path d="M 367.060572 279.364899 
L 633.930137 279.364899 
L 633.930137 57.604899 
L 367.060572 57.604899 
z
" style="fill:#ffffff;"/>
   </g>
   <g id="matplotlib.axis_3">
    <g id="xtick_4">
     <g id="line2d_11"/>
     <g id="text_13">
      <!-- $\mathdefault{0.0}$ -->
      <g style="fill:#262626;" transform="translate(365.915318 298.085593)scale(0.22 -0.22)">
       <use transform="scale(0.996264)" xlink:href="#CMR17-48"/>
       <use transform="translate(45.690477 0)scale(0.996264)" xlink:href="#CMMI12-58"/>
       <use transform="translate(72.787654 0)scale(0.996264)" xlink:href="#CMR17-48"/>
      </g>
     </g>
    </g>
    <g id="xtick_5">
     <g id="line2d_12"/>
     <g id="text_14">
      <!-- $\mathdefault{0.5}$ -->
      <g style="fill:#262626;" transform="translate(487.46276 298.085593)scale(0.22 -0.22)">
       <use transform="scale(0.996264)" xlink:href="#CMR17-48"/>
       <use transform="translate(45.690477 0)scale(0.996264)" xlink:href="#CMMI12-58"/>
       <use transform="translate(72.787654 0)scale(0.996264)" xlink:href="#CMR17-53"/>
      </g>
     </g>
    </g>
    <g id="xtick_6">
     <g id="line2d_13"/>
     <g id="text_15">
      <!-- $\mathdefault{1.0}$ -->
      <g style="fill:#262626;" transform="translate(609.010203 298.085593)scale(0.22 -0.22)">
       <use transform="scale(0.996264)" xlink:href="#CMR17-49"/>
       <use transform="translate(45.690477 0)scale(0.996264)" xlink:href="#CMMI12-58"/>
       <use transform="translate(72.787654 0)scale(0.996264)" xlink:href="#CMR17-48"/>
      </g>
     </g>
    </g>
    <g id="text_16">
     <!-- $\theta$ -->
     <g style="fill:#262626;" transform="translate(493.67639 327.104276)scale(0.3 -0.3)">
      <use transform="scale(0.996264)" xlink:href="#CMMI12-18"/>
     </g>
    </g>
   </g>
   <g id="matplotlib.axis_4">
    <g id="ytick_6">
     <g id="line2d_14"/>
     <g id="text_17">
      <!-- $\mathdefault{−4}$ -->
      <g style="fill:#262626;" transform="translate(336.461434 286.975246)scale(0.22 -0.22)">
       <defs>
        <path d="M 65.90625 23 
C 67.59375 23 69.40625 23 69.40625 25 
C 69.40625 27 67.59375 27 65.90625 27 
L 11.796875 27 
C 10.09375 27 8.296875 27 8.296875 25 
C 8.296875 23 10.09375 23 11.796875 23 
z
" id="CMSY10-0"/>
        <path d="M 33.59375 64.796875 
C 33.59375 66.890625 33.5 67 31.703125 67 
L 2 19.59375 
L 2 17 
L 27.796875 17 
L 27.796875 7.1875 
C 27.796875 3.59375 27.59375 2.59375 20.59375 2.59375 
L 18.703125 2.59375 
L 18.703125 0 
C 21.90625 0.1875 27.296875 0.1875 30.703125 0.1875 
C 34.09375 0.1875 39.5 0.1875 42.703125 0 
L 42.703125 2.59375 
L 40.796875 2.59375 
C 33.796875 2.59375 33.59375 3.59375 33.59375 7.1875 
L 33.59375 17 
L 43.796875 17 
L 43.796875 19.59375 
L 33.59375 19.59375 
z
M 28.09375 58.171875 
L 28.09375 19.59375 
L 4 19.59375 
z
" id="CMR17-52"/>
       </defs>
       <use transform="scale(0.996264)" xlink:href="#CMSY10-0"/>
       <use transform="translate(77.487468 0)scale(0.996264)" xlink:href="#CMR17-52"/>
      </g>
     </g>
    </g>
    <g id="ytick_7">
     <g id="line2d_15"/>
     <g id="text_18">
      <!-- $\mathdefault{−3}$ -->
      <g style="fill:#262626;" transform="translate(336.461434 232.887441)scale(0.22 -0.22)">
       <defs>
        <path d="M 22.09375 34 
C 31 34 34.90625 26.140625 34.90625 17.09375 
C 34.90625 5.03125 28.5 0.390625 22.703125 0.390625 
C 17.40625 0.390625 8.796875 3.015625 6.09375 10.796875 
C 6.59375 10.59375 7.09375 10.59375 7.59375 10.59375 
C 10 10.59375 11.796875 12.1875 11.796875 14.796875 
C 11.796875 17.6875 9.59375 19 7.59375 19 
C 5.90625 19 3.296875 18.1875 3.296875 14.484375 
C 3.296875 5.234375 12.296875 -2 22.90625 -2 
C 34 -2 42.5 6.75 42.5 16.984375 
C 42.5 26.84375 34.5 34 25 35.09375 
C 32.59375 36.671875 39.90625 43.375 39.90625 52.390625 
C 39.90625 60.25 32 66 23 66 
C 13.90625 66 5.90625 60.34375 5.90625 52.296875 
C 5.90625 48.796875 8.5 48.1875 9.796875 48.1875 
C 11.90625 48.1875 13.703125 49.484375 13.703125 52.09375 
C 13.703125 54.6875 11.90625 56 9.796875 56 
C 9.40625 56 8.90625 56 8.5 55.796875 
C 11.40625 62.484375 19.296875 63.6875 22.796875 63.6875 
C 26.296875 63.6875 32.90625 61.96875 32.90625 52.296875 
C 32.90625 49.484375 32.5 44.546875 29.09375 40.21875 
C 26.09375 36.390625 22.703125 36.1875 19.40625 35.890625 
C 18.90625 35.890625 16.59375 35.6875 16.203125 35.6875 
C 15.5 35.59375 15.09375 35.5 15.09375 34.796875 
C 15.09375 34.09375 15.203125 34 17.203125 34 
z
" id="CMR17-51"/>
       </defs>
       <use transform="scale(0.996264)" xlink:href="#CMSY10-0"/>
       <use transform="translate(77.487468 0)scale(0.996264)" xlink:href="#CMR17-51"/>
      </g>
     </g>
    </g>
    <g id="ytick_8">
     <g id="line2d_16"/>
     <g id="text_19">
      <!-- $\mathdefault{−2}$ -->
      <g style="fill:#262626;" transform="translate(336.461434 178.799636)scale(0.22 -0.22)">
       <use transform="scale(0.996264)" xlink:href="#CMSY10-0"/>
       <use transform="translate(77.487468 0)scale(0.996264)" xlink:href="#CMR17-50"/>
      </g>
     </g>
    </g>
    <g id="ytick_9">
     <g id="line2d_17"/>
     <g id="text_20">
      <!-- $\mathdefault{−1}$ -->
      <g style="fill:#262626;" transform="translate(336.461434 124.711832)scale(0.22 -0.22)">
       <use transform="scale(0.996264)" xlink:href="#CMSY10-0"/>
       <use transform="translate(77.487468 0)scale(0.996264)" xlink:href="#CMR17-49"/>
      </g>
     </g>
    </g>
    <g id="ytick_10">
     <g id="line2d_18"/>
     <g id="text_21">
      <!-- $\mathdefault{0}$ -->
      <g style="fill:#262626;" transform="translate(353.508667 70.624027)scale(0.22 -0.22)">
       <use transform="scale(0.996264)" xlink:href="#CMR17-48"/>
      </g>
     </g>
    </g>
   </g>
   <g id="line2d_19">
    <path clip-path="url(#p9f4f76fdab)" d="M 380.37219 341.117726 
L 380.892671 324.166571 
L 381.621956 306.942108 
L 382.594335 290.166509 
L 383.566715 277.380759 
L 384.782189 264.745044 
L 385.997664 254.50936 
L 387.456233 244.338027 
L 388.914802 235.780038 
L 390.616467 227.254235 
L 392.318131 219.891144 
L 394.26289 212.545937 
L 396.207649 206.080002 
L 398.395503 199.624798 
L 400.583357 193.858512 
L 403.014306 188.099054 
L 405.445255 182.894291 
L 408.119298 177.69408 
L 411.036437 172.538962 
L 413.953576 167.832708 
L 417.113809 163.157763 
L 420.517137 158.537704 
L 423.920466 154.281412 
L 427.566889 150.064644 
L 431.456407 145.90199 
L 435.58902 141.804295 
L 439.964728 137.779379 
L 444.583531 133.832645 
L 449.445429 129.967587 
L 454.550421 126.186201 
L 460.141604 122.327139 
L 465.975881 118.573879 
L 472.296348 114.781806 
L 478.85991 111.106504 
L 485.909662 107.418716 
L 493.445603 103.736236 
L 501.467734 100.073509 
L 509.976055 96.442091 
L 518.970566 92.851089 
L 528.451267 89.307547 
L 538.661252 85.734412 
L 549.357427 82.228232 
L 560.782886 78.718199 
L 572.937631 75.218414 
L 585.82166 71.740377 
L 599.678068 68.233743 
L 614.263761 64.772788 
L 621.799703 63.067795 
L 621.799703 63.067795 
" style="fill:none;stroke:#000000;stroke-linecap:round;stroke-width:1.5;"/>
   </g>
   <g id="line2d_20">
    <path clip-path="url(#p9f4f76fdab)" d="M 379.191007 63.067795 
L 394.505985 66.591037 
L 408.848583 70.112612 
L 422.461897 73.681535 
L 435.102831 77.220616 
L 447.01448 80.781744 
L 458.196845 84.35268 
L 468.649925 87.918378 
L 478.616815 91.552177 
L 487.854421 95.153045 
L 496.605837 98.800796 
L 504.871063 102.487564 
L 512.650099 106.203208 
L 519.942946 109.934881 
L 526.749602 113.666554 
L 533.070069 117.37852 
L 539.147442 121.205278 
L 544.738624 124.982289 
L 550.086711 128.859948 
L 555.191704 132.84018 
L 559.810507 136.712524 
L 564.186215 140.655891 
L 568.318828 144.664229 
L 572.208346 148.729075 
L 576.097864 153.12441 
L 579.744287 157.597023 
L 583.147616 162.133989 
L 586.307849 166.717456 
L 589.224988 171.323455 
L 592.142127 176.358511 
L 594.81617 181.425753 
L 597.247119 186.484373 
L 599.678068 192.065381 
L 601.865922 197.633611 
L 604.053776 203.841567 
L 605.998535 210.029771 
L 607.943294 217.01855 
L 609.644958 223.975182 
L 611.346622 231.960489 
L 612.805192 239.889949 
L 614.263761 249.184952 
L 615.479236 258.374418 
L 616.69471 269.451299 
L 617.66709 280.305136 
L 618.639469 293.898182 
L 619.368754 306.942108 
L 620.098038 324.166571 
L 620.61852 341.117726 
L 620.61852 341.117726 
" style="fill:none;stroke:#000000;stroke-dasharray:5.55,2.4;stroke-dashoffset:0;stroke-width:1.5;"/>
   </g>
   <g id="patch_8">
    <path d="M 367.060572 279.364899 
L 367.060572 57.604899 
" style="fill:none;stroke:#262626;stroke-linecap:square;stroke-linejoin:miter;stroke-width:1.25;"/>
   </g>
   <g id="patch_9">
    <path d="M 633.930137 279.364899 
L 633.930137 57.604899 
" style="fill:none;stroke:#262626;stroke-linecap:square;stroke-linejoin:miter;stroke-width:1.25;"/>
   </g>
   <g id="patch_10">
    <path d="M 367.060572 279.364899 
L 633.930137 279.364899 
" style="fill:none;stroke:#262626;stroke-linecap:square;stroke-linejoin:miter;stroke-width:1.25;"/>
   </g>
   <g id="patch_11">
    <path d="M 367.060572 57.604899 
L 633.930137 57.604899 
" style="fill:none;stroke:#262626;stroke-linecap:square;stroke-linejoin:miter;stroke-width:1.25;"/>
   </g>
   <g id="text_22">
    <!-- $x=0$ -->
    <g style="fill:#262626;" transform="translate(391.102656 127.919046)scale(0.24 -0.24)">
     <use transform="scale(0.996264)" xlink:href="#CMMI12-120"/>
     <use transform="translate(83.108068 0)scale(0.996264)" xlink:href="#CMR17-61"/>
     <use transform="translate(182.496865 0)scale(0.996264)" xlink:href="#CMR17-48"/>
    </g>
   </g>
   <g id="text_23">
    <!-- $x=1$ -->
    <g style="fill:#262626;" transform="translate(561.269076 127.919046)scale(0.24 -0.24)">
     <use transform="scale(0.996264)" xlink:href="#CMMI12-120"/>
     <use transform="translate(83.108068 0)scale(0.996264)" xlink:href="#CMR17-61"/>
     <use transform="translate(182.496865 0)scale(0.996264)" xlink:href="#CMR17-49"/>
    </g>
   </g>
   <g id="text_24">
    <!-- {\bf (b)} $\ell (\theta \mid x)$ -->
    <g style="fill:#262626;" transform="translate(428.849871 32.604899)scale(0.3 -0.3)">
     <defs>
      <path d="M 20.796875 70 
L 3.5 69.1875 
L 3.5 64.890625 
C 9.703125 64.890625 10.40625 64.890625 10.40625 60.875 
L 10.40625 -0.40625 
L 14.59375 -0.40625 
C 16.296875 1.5 18 3.40625 19.59375 5.421875 
C 24.703125 0.09375 30.203125 -1 34.203125 -1 
C 48 -1 58.59375 7.4375 58.59375 22.09375 
C 58.59375 35.9375 49.203125 45 35.5 45 
C 29.59375 45 24.90625 43.09375 20.796875 39.875 
z
M 21.296875 35.03125 
C 24.796875 39.875 30 41.6875 34.203125 41.6875 
C 46.59375 41.6875 46.59375 28.859375 46.59375 22.1875 
C 46.59375 17.65625 46.59375 11.890625 44.203125 8.15625 
C 41.09375 3.296875 36.40625 2.296875 33.203125 2.296875 
C 26.40625 2.296875 22.703125 7.140625 21.296875 9.359375 
z
" id="CMBX12-98"/>
      <path d="M 9.203125 17.046875 
C 2.90625 10.90625 1.296875 9.421875 1.296875 9.015625 
C 1.296875 8.625 1.703125 7.9375 2.40625 7.9375 
C 2.90625 7.9375 8.59375 13.375 9.40625 14.265625 
C 10 7.625 12.5 -1 20.296875 -1 
C 24.296875 -1 27.90625 1.484375 29.5 2.671875 
C 30.796875 3.671875 35.59375 7.734375 35.59375 8.625 
C 35.59375 9.125 35.09375 9.71875 34.59375 9.71875 
C 34.203125 9.71875 32.703125 8.234375 32.296875 7.828125 
C 28.796875 4.46875 24.40625 1 20.40625 1 
C 15 1 14.296875 8.71875 14.296875 14.078125 
C 14.296875 15.0625 14.296875 19.234375 15 20.015625 
C 20.90625 26.0625 39.40625 45 39.40625 62.53125 
C 39.40625 66.5 37.90625 70 33.59375 70 
C 24.296875 70 16.203125 49.546875 14.796875 45.78125 
C 14.40625 44.796875 8.59375 29.53125 9.203125 17.046875 
z
M 15.203125 23.1875 
C 15.296875 23.78125 19.796875 49.75 28.203125 63.625 
C 29.90625 66.296875 31.59375 67.984375 33.59375 67.984375 
C 37 67.984375 37.203125 64.8125 37.203125 62.640625 
C 37.203125 59.171875 36.203125 50.25 27.5 37.765625 
C 24.90625 34.09375 20.90625 29.140625 15.203125 23.1875 
z
" id="CMMI12-96"/>
     </defs>
     <use transform="scale(0.996264)" xlink:href="#CMBX12-40"/>
     <use transform="translate(43.58655 0)scale(0.996264)" xlink:href="#CMBX12-98"/>
     <use transform="translate(105.853051 0)scale(0.996264)" xlink:href="#CMBX12-41"/>
     <use transform="translate(179.515568 0)scale(0.996264)" xlink:href="#CMMI12-96"/>
     <use transform="translate(220.449787 0)scale(0.996264)" xlink:href="#CMR17-40"/>
     <use transform="translate(255.730555 0)scale(0.996264)" xlink:href="#CMMI12-18"/>
     <use transform="translate(331.574072 0)scale(0.996264)" xlink:href="#CMSY10-106"/>
     <use transform="translate(386.922165 0)scale(0.996264)" xlink:href="#CMMI12-120"/>
     <use transform="translate(442.356225 0)scale(0.996264)" xlink:href="#CMR17-41"/>
    </g>
   </g>
  </g>
  <g id="axes_3">
   <g id="patch_12">
    <path d="M 687.30405 279.364899 
L 954.173616 279.364899 
L 954.173616 57.604899 
L 687.30405 57.604899 
z
" style="fill:#ffffff;"/>
   </g>
   <g id="matplotlib.axis_5">
    <g id="xtick_7">
     <g id="line2d_21"/>
     <g id="text_25">
      <!-- $\mathdefault{0.0}$ -->
      <g style="fill:#262626;" transform="translate(686.158796 298.085593)scale(0.22 -0.22)">
       <use transform="scale(0.996264)" xlink:href="#CMR17-48"/>
       <use transform="translate(45.690477 0)scale(0.996264)" xlink:href="#CMMI12-58"/>
       <use transform="translate(72.787654 0)scale(0.996264)" xlink:href="#CMR17-48"/>
      </g>
     </g>
    </g>
    <g id="xtick_8">
     <g id="line2d_22"/>
     <g id="text_26">
      <!-- $\mathdefault{0.5}$ -->
      <g style="fill:#262626;" transform="translate(807.706239 298.085593)scale(0.22 -0.22)">
       <use transform="scale(0.996264)" xlink:href="#CMR17-48"/>
       <use transform="translate(45.690477 0)scale(0.996264)" xlink:href="#CMMI12-58"/>
       <use transform="translate(72.787654 0)scale(0.996264)" xlink:href="#CMR17-53"/>
      </g>
     </g>
    </g>
    <g id="xtick_9">
     <g id="line2d_23"/>
     <g id="text_27">
      <!-- $\mathdefault{1.0}$ -->
      <g style="fill:#262626;" transform="translate(929.253681 298.085593)scale(0.22 -0.22)">
       <use transform="scale(0.996264)" xlink:href="#CMR17-49"/>
       <use transform="translate(45.690477 0)scale(0.996264)" xlink:href="#CMMI12-58"/>
       <use transform="translate(72.787654 0)scale(0.996264)" xlink:href="#CMR17-48"/>
      </g>
     </g>
    </g>
    <g id="text_28">
     <!-- $\theta$ -->
     <g style="fill:#262626;" transform="translate(813.919868 327.104276)scale(0.3 -0.3)">
      <use transform="scale(0.996264)" xlink:href="#CMMI12-18"/>
     </g>
    </g>
   </g>
   <g id="matplotlib.axis_6">
    <g id="ytick_11">
     <g id="line2d_24"/>
     <g id="text_29">
      <!-- $\mathdefault{−10}$ -->
      <g style="fill:#262626;" transform="translate(646.653007 286.975246)scale(0.22 -0.22)">
       <use transform="scale(0.996264)" xlink:href="#CMSY10-0"/>
       <use transform="translate(77.487468 0)scale(0.996264)" xlink:href="#CMR17-49"/>
       <use transform="translate(123.177945 0)scale(0.996264)" xlink:href="#CMR17-48"/>
      </g>
     </g>
    </g>
    <g id="ytick_12">
     <g id="line2d_25"/>
     <g id="text_30">
      <!-- $\mathdefault{−5}$ -->
      <g style="fill:#262626;" transform="translate(656.704912 231.535246)scale(0.22 -0.22)">
       <use transform="scale(0.996264)" xlink:href="#CMSY10-0"/>
       <use transform="translate(77.487468 0)scale(0.996264)" xlink:href="#CMR17-53"/>
      </g>
     </g>
    </g>
    <g id="ytick_13">
     <g id="line2d_26"/>
     <g id="text_31">
      <!-- $\mathdefault{0}$ -->
      <g style="fill:#262626;" transform="translate(673.752145 176.095246)scale(0.22 -0.22)">
       <use transform="scale(0.996264)" xlink:href="#CMR17-48"/>
      </g>
     </g>
    </g>
    <g id="ytick_14">
     <g id="line2d_27"/>
     <g id="text_32">
      <!-- $\mathdefault{5}$ -->
      <g style="fill:#262626;" transform="translate(673.752145 120.655246)scale(0.22 -0.22)">
       <use transform="scale(0.996264)" xlink:href="#CMR17-53"/>
      </g>
     </g>
    </g>
    <g id="ytick_15">
     <g id="line2d_28"/>
     <g id="text_33">
      <!-- $\mathdefault{10}$ -->
      <g style="fill:#262626;" transform="translate(663.70024 65.215246)scale(0.22 -0.22)">
       <use transform="scale(0.996264)" xlink:href="#CMR17-49"/>
       <use transform="translate(45.690477 0)scale(0.996264)" xlink:href="#CMR17-48"/>
      </g>
     </g>
    </g>
   </g>
   <g id="line2d_29">
    <path clip-path="url(#p36b2f940ed)" d="M 715.095991 -1 
L 716.451127 12.315885 
L 717.909696 24.484899 
L 719.368266 34.894538 
L 720.826835 43.90063 
L 722.528499 52.984899 
L 724.230163 60.834414 
L 725.931828 67.684899 
L 727.633492 73.715669 
L 729.578251 79.780899 
L 731.52301 85.116478 
L 733.467769 89.846602 
L 735.655623 94.564899 
L 737.843477 98.74905 
L 740.031331 102.484899 
L 742.46228 106.192765 
L 744.893229 109.506176 
L 747.567272 112.766307 
L 750.241316 115.684899 
L 753.158455 118.538954 
L 756.318688 121.301921 
L 759.478922 123.775222 
L 762.88225 126.164289 
L 766.528674 128.456019 
L 770.418192 130.641896 
L 774.550805 132.717158 
L 779.169608 134.782772 
L 784.031505 136.714126 
L 789.379593 138.598107 
L 795.21387 140.414013 
L 801.534337 142.147607 
L 808.584089 143.844899 
L 816.363125 145.48075 
L 824.871446 147.038091 
L 834.352147 148.542453 
L 844.805227 149.974048 
L 856.716876 151.373788 
L 870.087095 152.712495 
L 885.158978 153.990782 
L 902.17562 155.205858 
L 921.62321 156.366867 
L 942.043181 157.3858 
L 942.043181 157.3858 
" style="fill:none;stroke:#000000;stroke-linecap:round;stroke-width:1.5;"/>
   </g>
   <g id="line2d_30">
    <path clip-path="url(#p36b2f940ed)" d="M 699.434485 179.583999 
L 722.528499 180.750386 
L 742.46228 181.973951 
L 759.722017 183.249214 
L 774.7939 184.577788 
L 788.164118 185.973858 
L 800.075768 187.438746 
L 810.528848 188.942464 
L 820.009548 190.528637 
L 828.517869 192.177207 
L 836.053811 193.857897 
L 842.860468 195.594924 
L 849.180935 197.435291 
L 854.772117 199.284899 
L 860.120204 201.289633 
L 864.982102 203.352824 
L 869.35781 205.444899 
L 873.490423 207.665111 
L 877.379941 210.012989 
L 881.026365 212.484899 
L 884.429693 215.073135 
L 887.589926 217.764899 
L 890.507065 220.541238 
L 893.181109 223.375989 
L 895.855153 226.537255 
L 898.286101 229.744568 
L 900.71705 233.327005 
L 902.904904 236.929344 
L 905.092758 240.955488 
L 907.280612 245.484899 
L 909.225371 250.014311 
L 911.17013 255.109899 
L 913.114889 260.884899 
L 914.816554 266.608793 
L 916.518218 273.088673 
L 918.219882 280.484899 
L 919.921546 289.006639 
L 921.380116 297.415132 
L 922.838685 307.084899 
L 924.297254 318.322737 
L 925.755823 331.543723 
L 926.671914 341.117726 
L 926.671914 341.117726 
" style="fill:none;stroke:#000000;stroke-dasharray:5.55,2.4;stroke-dashoffset:0;stroke-width:1.5;"/>
   </g>
   <g id="patch_13">
    <path d="M 687.30405 279.364899 
L 687.30405 57.604899 
" style="fill:none;stroke:#262626;stroke-linecap:square;stroke-linejoin:miter;stroke-width:1.25;"/>
   </g>
   <g id="patch_14">
    <path d="M 954.173616 279.364899 
L 954.173616 57.604899 
" style="fill:none;stroke:#262626;stroke-linecap:square;stroke-linejoin:miter;stroke-width:1.25;"/>
   </g>
   <g id="patch_15">
    <path d="M 687.30405 279.364899 
L 954.173616 279.364899 
" style="fill:none;stroke:#262626;stroke-linecap:square;stroke-linejoin:miter;stroke-width:1.25;"/>
   </g>
   <g id="patch_16">
    <path d="M 687.30405 57.604899 
L 954.173616 57.604899 
" style="fill:none;stroke:#262626;stroke-linecap:square;stroke-linejoin:miter;stroke-width:1.25;"/>
   </g>
   <g id="text_34">
    <!-- $x=0$ -->
    <g style="fill:#262626;" transform="translate(711.346135 203.966499)scale(0.24 -0.24)">
     <use transform="scale(0.996264)" xlink:href="#CMMI12-120"/>
     <use transform="translate(83.108068 0)scale(0.996264)" xlink:href="#CMR17-61"/>
     <use transform="translate(182.496865 0)scale(0.996264)" xlink:href="#CMR17-48"/>
    </g>
   </g>
   <g id="text_35">
    <!-- $x=1$ -->
    <g style="fill:#262626;" transform="translate(893.667299 145.200099)scale(0.24 -0.24)">
     <use transform="scale(0.996264)" xlink:href="#CMMI12-120"/>
     <use transform="translate(83.108068 0)scale(0.996264)" xlink:href="#CMR17-61"/>
     <use transform="translate(182.496865 0)scale(0.996264)" xlink:href="#CMR17-49"/>
    </g>
   </g>
   <g id="text_36">
    <!-- {\bf (c)} $\ell^\prime (\theta \mid x)$ -->
    <g style="fill:#262626;" transform="translate(747.835584 32.604899)scale(0.3 -0.3)">
     <defs>
      <path d="M 46.796875 11.3125 
C 46.796875 12.515625 45.703125 12.515625 44.703125 12.515625 
C 43.09375 12.515625 43 12.421875 42.5 11.21875 
C 41.796875 9.3125 39.09375 2.59375 29.90625 2.59375 
C 15.796875 2.59375 15.796875 17.828125 15.796875 22.34375 
C 15.796875 28.25 15.90625 41.390625 29 41.390625 
C 29.703125 41.390625 35.59375 41.1875 35.59375 40.6875 
C 35.59375 40.59375 35.5 40.484375 35.296875 40.390625 
C 35 40.09375 33.703125 38.578125 33.703125 36.078125 
C 33.703125 31.859375 37.09375 30.15625 39.59375 30.15625 
C 41.703125 30.15625 45.5 31.46875 45.5 36.171875 
C 45.5 44.390625 34 45 28.59375 45 
C 10.796875 45 3.796875 33.375 3.796875 21.84375 
C 3.796875 8.203125 13.296875 -1 28 -1 
C 43.703125 -1 46.796875 10.609375 46.796875 11.3125 
z
" id="CMBX12-99"/>
      <path d="M 25.296875 47.625 
C 25.796875 48.828125 26.203125 49.71875 26.203125 50.71875 
C 26.203125 53.59375 23.59375 56 20.5 56 
C 17.703125 56 15.90625 54.09375 15.203125 51.515625 
L 3.296875 8.078125 
C 3.296875 7.890625 2.90625 6.796875 2.90625 6.6875 
C 2.90625 5.59375 5.5 4.890625 6.296875 4.890625 
C 6.90625 4.890625 7 5.1875 7.59375 6.484375 
z
" id="CMSY10-48"/>
     </defs>
     <use transform="scale(0.996264)" xlink:href="#CMBX12-40"/>
     <use transform="translate(43.58655 0)scale(0.996264)" xlink:href="#CMBX12-99"/>
     <use transform="translate(93.399751 0)scale(0.996264)" xlink:href="#CMBX12-41"/>
     <use transform="translate(167.062268 0)scale(0.996264)" xlink:href="#CMMI12-96"/>
     <use transform="translate(207.996487 36.153639)scale(0.697382)" xlink:href="#CMSY10-48"/>
     <use transform="translate(227.67258 0)scale(0.996264)" xlink:href="#CMR17-40"/>
     <use transform="translate(262.953348 0)scale(0.996264)" xlink:href="#CMMI12-18"/>
     <use transform="translate(338.796864 0)scale(0.996264)" xlink:href="#CMSY10-106"/>
     <use transform="translate(394.144958 0)scale(0.996264)" xlink:href="#CMMI12-120"/>
     <use transform="translate(449.579017 0)scale(0.996264)" xlink:href="#CMR17-41"/>
    </g>
   </g>
  </g>
  <g id="axes_4">
   <g id="patch_17">
    <path d="M 1007.547529 279.364899 
L 1274.417094 279.364899 
L 1274.417094 57.604899 
L 1007.547529 57.604899 
z
" style="fill:#ffffff;"/>
   </g>
   <g id="matplotlib.axis_7">
    <g id="xtick_10">
     <g id="line2d_31"/>
     <g id="text_37">
      <!-- $\mathdefault{0.0}$ -->
      <g style="fill:#262626;" transform="translate(1006.402274 298.085593)scale(0.22 -0.22)">
       <use transform="scale(0.996264)" xlink:href="#CMR17-48"/>
       <use transform="translate(45.690477 0)scale(0.996264)" xlink:href="#CMMI12-58"/>
       <use transform="translate(72.787654 0)scale(0.996264)" xlink:href="#CMR17-48"/>
      </g>
     </g>
    </g>
    <g id="xtick_11">
     <g id="line2d_32"/>
     <g id="text_38">
      <!-- $\mathdefault{0.5}$ -->
      <g style="fill:#262626;" transform="translate(1127.949717 298.085593)scale(0.22 -0.22)">
       <use transform="scale(0.996264)" xlink:href="#CMR17-48"/>
       <use transform="translate(45.690477 0)scale(0.996264)" xlink:href="#CMMI12-58"/>
       <use transform="translate(72.787654 0)scale(0.996264)" xlink:href="#CMR17-53"/>
      </g>
     </g>
    </g>
    <g id="xtick_12">
     <g id="line2d_33"/>
     <g id="text_39">
      <!-- $\mathdefault{1.0}$ -->
      <g style="fill:#262626;" transform="translate(1249.49716 298.085593)scale(0.22 -0.22)">
       <use transform="scale(0.996264)" xlink:href="#CMR17-49"/>
       <use transform="translate(45.690477 0)scale(0.996264)" xlink:href="#CMMI12-58"/>
       <use transform="translate(72.787654 0)scale(0.996264)" xlink:href="#CMR17-48"/>
      </g>
     </g>
    </g>
    <g id="text_40">
     <!-- $\theta$ -->
     <g style="fill:#262626;" transform="translate(1134.163347 327.104276)scale(0.3 -0.3)">
      <use transform="scale(0.996264)" xlink:href="#CMMI12-18"/>
     </g>
    </g>
   </g>
   <g id="matplotlib.axis_8">
    <g id="ytick_16">
     <g id="line2d_34"/>
     <g id="text_41">
      <!-- $\mathdefault{5}$ -->
      <g style="fill:#262626;" transform="translate(993.995624 260.885834)scale(0.22 -0.22)">
       <use transform="scale(0.996264)" xlink:href="#CMR17-53"/>
      </g>
     </g>
    </g>
    <g id="ytick_17">
     <g id="line2d_35"/>
     <g id="text_42">
      <!-- $\mathdefault{10}$ -->
      <g style="fill:#262626;" transform="translate(983.943719 195.662305)scale(0.22 -0.22)">
       <use transform="scale(0.996264)" xlink:href="#CMR17-49"/>
       <use transform="translate(45.690477 0)scale(0.996264)" xlink:href="#CMR17-48"/>
      </g>
     </g>
    </g>
    <g id="ytick_18">
     <g id="line2d_36"/>
     <g id="text_43">
      <!-- $\mathdefault{15}$ -->
      <g style="fill:#262626;" transform="translate(983.943719 130.438776)scale(0.22 -0.22)">
       <use transform="scale(0.996264)" xlink:href="#CMR17-49"/>
       <use transform="translate(45.690477 0)scale(0.996264)" xlink:href="#CMR17-53"/>
      </g>
     </g>
    </g>
    <g id="ytick_19">
     <g id="line2d_37"/>
     <g id="text_44">
      <!-- $\mathdefault{20}$ -->
      <g style="fill:#262626;" transform="translate(983.943719 65.215246)scale(0.22 -0.22)">
       <use transform="scale(0.996264)" xlink:href="#CMR17-50"/>
       <use transform="translate(45.690477 0)scale(0.996264)" xlink:href="#CMR17-48"/>
      </g>
     </g>
    </g>
   </g>
   <g id="line2d_38">
    <path clip-path="url(#pf96ced2e5d)" d="M 1029.803544 -1 
L 1030.860328 27.26404 
L 1032.075803 53.87905 
L 1033.291277 75.81133 
L 1034.506751 94.193599 
L 1035.965321 112.668642 
L 1037.42389 128.132053 
L 1038.882459 141.261165 
L 1040.341029 152.544283 
L 1042.042693 163.851107 
L 1043.744357 173.557841 
L 1045.446021 181.978145 
L 1047.147685 189.348628 
L 1049.092445 196.717902 
L 1051.037204 203.161211 
L 1052.981963 208.839093 
L 1054.926722 213.876885 
L 1057.114576 218.902103 
L 1059.30243 223.354412 
L 1061.490284 227.322567 
L 1063.921233 231.249879 
L 1066.352181 234.745424 
L 1068.78313 237.872123 
L 1071.457174 240.94613 
L 1074.131218 243.690668 
L 1077.048356 246.361464 
L 1079.965495 248.740859 
L 1083.125729 251.03431 
L 1086.529057 253.21804 
L 1089.932385 255.144448 
L 1093.578809 256.960129 
L 1097.468327 258.649661 
L 1101.60094 260.200219 
L 1105.976648 261.60083 
L 1110.595451 262.841605 
L 1115.457348 263.912948 
L 1120.562341 264.804726 
L 1125.910428 265.505363 
L 1131.258516 265.984098 
L 1136.849698 266.259805 
L 1142.440881 266.312679 
L 1148.032063 266.144072 
L 1153.623245 265.749657 
L 1158.971333 265.151673 
L 1164.076325 264.365991 
L 1169.181318 263.351958 
L 1174.043216 262.151369 
L 1178.662018 260.772694 
L 1183.037726 259.224029 
L 1187.170339 257.51395 
L 1191.059858 255.652349 
L 1194.706281 253.65128 
L 1198.109609 251.525813 
L 1201.269843 249.294865 
L 1204.186981 246.981989 
L 1207.10412 244.388107 
L 1209.778164 241.72526 
L 1212.452208 238.746102 
L 1214.883156 235.719637 
L 1217.314105 232.340753 
L 1219.745054 228.550416 
L 1221.932908 224.727095 
L 1224.120762 220.445063 
L 1226.308616 215.621976 
L 1228.253375 210.797452 
L 1230.198134 205.372725 
L 1232.142893 199.233135 
L 1233.844557 193.160746 
L 1235.546222 186.305684 
L 1237.247886 178.510329 
L 1238.94955 169.571549 
L 1240.408119 160.799989 
L 1241.866689 150.77538 
L 1243.325258 139.212525 
L 1244.783827 125.732457 
L 1246.242397 109.82045 
L 1247.457871 94.193599 
L 1248.673345 75.81133 
L 1249.88882 53.87905 
L 1251.104294 27.26404 
L 1252.161078 -1 
L 1252.161078 -1 
" style="fill:none;stroke:#000000;stroke-linecap:round;stroke-width:1.5;"/>
   </g>
   <g id="patch_18">
    <path d="M 1007.547529 279.364899 
L 1007.547529 57.604899 
" style="fill:none;stroke:#262626;stroke-linecap:square;stroke-linejoin:miter;stroke-width:1.25;"/>
   </g>
   <g id="patch_19">
    <path d="M 1274.417094 279.364899 
L 1274.417094 57.604899 
" style="fill:none;stroke:#262626;stroke-linecap:square;stroke-linejoin:miter;stroke-width:1.25;"/>
   </g>
   <g id="patch_20">
    <path d="M 1007.547529 279.364899 
L 1274.417094 279.364899 
" style="fill:none;stroke:#262626;stroke-linecap:square;stroke-linejoin:miter;stroke-width:1.25;"/>
   </g>
   <g id="patch_21">
    <path d="M 1007.547529 57.604899 
L 1274.417094 57.604899 
" style="fill:none;stroke:#262626;stroke-linecap:square;stroke-linejoin:miter;stroke-width:1.25;"/>
   </g>
   <g id="text_45">
    <!-- {\bf (d)} $\mathbb{E}\left[\ell^\prime(\theta \mid x)^2\right]$ -->
    <g style="fill:#262626;" transform="translate(1036.257848 32.604899)scale(0.3 -0.3)">
     <defs>
      <path d="M 34.703125 69.1875 
L 34.703125 64.890625 
C 40.90625 64.890625 41.59375 64.890625 41.59375 60.875 
L 41.59375 40.171875 
C 39.40625 42.09375 35 45 28.09375 45 
C 13.90625 45 3.796875 36.140625 3.796875 22 
C 3.796875 7.546875 13.703125 -1 27 -1 
C 32.5 -1 37.203125 0.890625 41.09375 4.21875 
L 41.09375 -1 
L 58.90625 -0.40625 
L 58.90625 3.90625 
C 52.703125 3.90625 52 3.90625 52 7.84375 
L 52 70 
z
M 41.09375 9.765625 
C 36.90625 3.609375 31.796875 2.296875 28.203125 2.296875 
C 15.796875 2.296875 15.796875 15.125 15.796875 21.796875 
C 15.796875 26.546875 15.796875 31.59375 18 35.4375 
C 21.09375 41.09375 27 41.6875 29.296875 41.6875 
C 33.40625 41.6875 37.796875 39.875 41.09375 35.4375 
z
" id="CMBX12-100"/>
      <path d="M 25.90625 34 
C 28.40625 34 33.203125 34 36.703125 31.859375 
C 41.5 28.71875 41.90625 23.25 41.90625 22.640625 
C 42 21.21875 42 19.90625 43.703125 19.90625 
C 45.40625 19.90625 45.40625 21.328125 45.40625 23.15625 
L 45.40625 50.4375 
C 45.40625 52.046875 45.40625 53.65625 43.703125 53.65625 
C 42 53.65625 41.90625 52.140625 41.90625 51.34375 
C 41.296875 38.390625 31.09375 37.6875 25.90625 37.59375 
L 25.90625 58.765625 
C 25.90625 65.484375 27.796875 65.484375 30.203125 65.484375 
L 35 65.484375 
C 48.5 65.484375 55.203125 58.5625 55.796875 51.640625 
C 55.90625 50.84375 56 49.328125 57.59375 49.328125 
C 59.296875 49.328125 59.296875 50.9375 59.296875 52.640625 
L 59.296875 65.6875 
C 59.296875 68.796875 59.09375 69 56 69 
L 4.796875 69 
C 3 69 1.40625 69 1.40625 67.1875 
C 1.40625 65.484375 3.296875 65.484375 4.09375 65.484375 
C 9.796875 65.484375 10.203125 64.6875 10.203125 59.765625 
L 10.203125 9.265625 
C 10.203125 4.5 9.90625 3.5 4.59375 3.5 
C 3.09375 3.5 1.40625 3.5 1.40625 1.796875 
C 1.40625 0 3 0 4.796875 0 
L 57.796875 0 
C 59.703125 0 60.703125 0 61 1.390625 
C 61.09375 1.5 63.90625 18.390625 63.90625 18.890625 
C 63.90625 20.015625 63 20.71875 62.203125 20.71875 
C 60.796875 20.71875 60.40625 19.40625 60.40625 19.296875 
C 59.796875 16.671875 58.796875 12.40625 51.5 8.046875 
C 46.296875 4.90625 41.203125 3.5 35.703125 3.5 
L 30.203125 3.5 
C 27.796875 3.5 25.90625 3.5 25.90625 10.28125 
z
M 55.796875 65.484375 
L 55.796875 60.671875 
C 54.09375 62.578125 52.203125 64.1875 50.09375 65.484375 
z
M 36.296875 36.09375 
C 37.90625 36.796875 40.09375 38.296875 41.90625 40.40625 
L 41.90625 31.96875 
C 39.5 34.6875 36.40625 36 36.296875 36 
z
M 13.703125 59.96875 
C 13.703125 61.171875 13.703125 63.6875 12.90625 65.484375 
L 23.5 65.484375 
C 22.40625 63.1875 22.40625 59.875 22.40625 58.96875 
L 22.40625 10.078125 
C 22.40625 6.4375 23.09375 4.40625 23.5 3.5 
L 12.90625 3.5 
C 13.703125 5.3125 13.703125 7.84375 13.703125 9.0625 
z
M 50.90625 3.5 
L 50.90625 3.59375 
C 54.09375 5.21875 56.796875 7.34375 58.796875 9.171875 
C 58.703125 8.765625 58 4.296875 57.90625 3.5 
z
" id="MSBM10-69"/>
      <path d="M 20.203125 -116 
L 39.40625 -116 
L 39.40625 -112 
L 24.203125 -112 
L 24.203125 0 
L 39.40625 0 
L 39.40625 4 
L 20.203125 4 
z
" id="CMEX10-2"/>
      <path d="M 21.40625 -116 
L 21.40625 4 
L 2.203125 4 
L 2.203125 0 
L 17.40625 0 
L 17.40625 -112 
L 2.203125 -112 
L 2.203125 -116 
z
" id="CMEX10-3"/>
     </defs>
     <use transform="scale(0.996264)" xlink:href="#CMBX12-40"/>
     <use transform="translate(43.58655 0)scale(0.996264)" xlink:href="#CMBX12-100"/>
     <use transform="translate(105.853051 0)scale(0.996264)" xlink:href="#CMBX12-41"/>
     <use transform="translate(179.515568 0)scale(0.996264)" xlink:href="#MSBM10-69"/>
     <use transform="translate(262.537792 80.698084)scale(0.996264)" xlink:href="#CMEX10-2"/>
     <use transform="translate(304.04901 0)scale(0.996264)" xlink:href="#CMMI12-96"/>
     <use transform="translate(344.983229 36.153639)scale(0.697382)" xlink:href="#CMSY10-48"/>
     <use transform="translate(364.659322 0)scale(0.996264)" xlink:href="#CMR17-40"/>
     <use transform="translate(399.94009 0)scale(0.996264)" xlink:href="#CMMI12-18"/>
     <use transform="translate(475.783606 0)scale(0.996264)" xlink:href="#CMSY10-106"/>
     <use transform="translate(531.1317 0)scale(0.996264)" xlink:href="#CMMI12-120"/>
     <use transform="translate(586.565759 0)scale(0.996264)" xlink:href="#CMR17-41"/>
     <use transform="translate(621.846527 36.153639)scale(0.697382)" xlink:href="#CMR17-50"/>
     <use transform="translate(654.327841 80.698084)scale(0.996264)" xlink:href="#CMEX10-3"/>
    </g>
   </g>
  </g>
 </g>
 <defs>
  <clipPath id="pc0d3678e2f">
   <rect height="221.76" width="266.869565" x="46.817094" y="57.604899"/>
  </clipPath>
  <clipPath id="p9f4f76fdab">
   <rect height="221.76" width="266.869565" x="367.060572" y="57.604899"/>
  </clipPath>
  <clipPath id="p36b2f940ed">
   <rect height="221.76" width="266.869565" x="687.30405" y="57.604899"/>
  </clipPath>
  <clipPath id="pf96ced2e5d">
   <rect height="221.76" width="266.869565" x="1007.547529" y="57.604899"/>
  </clipPath>
 </defs>
</svg>
