<?xml version="1.0" encoding="utf-8" standalone="no"?>
<!DOCTYPE svg PUBLIC "-//W3C//DTD SVG 1.1//EN"
  "http://www.w3.org/Graphics/SVG/1.1/DTD/svg11.dtd">
<!-- Created with matplotlib (https://matplotlib.org/) -->
<svg height="277.313995pt" version="1.1" viewBox="0 0 621.528378 277.313995" width="621.528378pt" xmlns="http://www.w3.org/2000/svg" xmlns:xlink="http://www.w3.org/1999/xlink">
 <metadata>
  <rdf:RDF xmlns:cc="http://creativecommons.org/ns#" xmlns:dc="http://purl.org/dc/elements/1.1/" xmlns:rdf="http://www.w3.org/1999/02/22-rdf-syntax-ns#">
   <cc:Work>
    <dc:type rdf:resource="http://purl.org/dc/dcmitype/StillImage"/>
    <dc:date>2021-09-04T16:06:49.046327</dc:date>
    <dc:format>image/svg+xml</dc:format>
    <dc:creator>
     <cc:Agent>
      <dc:title>Matplotlib v3.3.4, https://matplotlib.org/</dc:title>
     </cc:Agent>
    </dc:creator>
   </cc:Work>
  </rdf:RDF>
 </metadata>
 <defs>
  <style type="text/css">*{stroke-linecap:butt;stroke-linejoin:round;}</style>
 </defs>
 <g id="figure_1">
  <g id="patch_1">
   <path d="M 0 277.313995 
L 621.528378 277.313995 
L 621.528378 0 
L 0 0 
z
" style="fill:#ffffff;"/>
  </g>
  <g id="axes_1">
   <g id="patch_2">
    <path d="M 56.328378 228.96 
L 614.328378 228.96 
L 614.328378 7.2 
L 56.328378 7.2 
z
" style="fill:#ffffff;"/>
   </g>
   <g id="matplotlib.axis_1">
    <g id="xtick_1">
     <g id="line2d_1"/>
     <g id="text_1">
      <!-- $\mathdefault{−2.0}$ -->
      <g style="fill:#262626;" transform="translate(62.095458 246.296997)scale(0.2 -0.2)">
       <defs>
        <path d="M 65.90625 23 
C 67.59375 23 69.40625 23 69.40625 25 
C 69.40625 27 67.59375 27 65.90625 27 
L 11.796875 27 
C 10.09375 27 8.296875 27 8.296875 25 
C 8.296875 23 10.09375 23 11.796875 23 
z
" id="CMSY10-0"/>
        <path d="M 41.703125 15.46875 
L 39.90625 15.46875 
C 38.90625 8.390625 38.09375 7.1875 37.703125 6.59375 
C 37.203125 5.796875 30 5.796875 28.59375 5.796875 
L 9.40625 5.796875 
C 13 9.6875 20 16.765625 28.5 24.9375 
C 34.59375 30.71875 41.703125 37.5 41.703125 47.390625 
C 41.703125 59.1875 32.296875 66 21.796875 66 
C 10.796875 66 4.09375 56.296875 4.09375 47.296875 
C 4.09375 43.390625 7 42.890625 8.203125 42.890625 
C 9.203125 42.890625 12.203125 43.484375 12.203125 46.984375 
C 12.203125 50.09375 9.59375 51 8.203125 51 
C 7.59375 51 7 50.890625 6.59375 50.6875 
C 8.5 59.1875 14.296875 63.390625 20.40625 63.390625 
C 29.09375 63.390625 34.796875 56.5 34.796875 47.390625 
C 34.796875 38.703125 29.703125 31.21875 24 24.734375 
L 4.09375 2.296875 
L 4.09375 0 
L 39.296875 0 
z
" id="CMR17-50"/>
        <path d="M 18.40625 4.796875 
C 18.40625 7.6875 16 9.6875 13.59375 9.6875 
C 10.703125 9.6875 8.703125 7.296875 8.703125 4.890625 
C 8.703125 2 11.09375 0 13.5 0 
C 16.40625 0 18.40625 2.390625 18.40625 4.796875 
z
" id="CMMI12-58"/>
        <path d="M 42 31.84375 
C 42 37.96875 41.90625 48.421875 37.703125 56.453125 
C 34 63.484375 28.09375 66 22.90625 66 
C 18.09375 66 12 63.78125 8.203125 56.5625 
C 4.203125 49.015625 3.796875 39.671875 3.796875 31.84375 
C 3.796875 26.109375 3.90625 17.375 7 9.734375 
C 11.296875 -0.609375 19 -2 22.90625 -2 
C 27.5 -2 34.5 -0.109375 38.59375 9.4375 
C 41.59375 16.375 42 24.5 42 31.84375 
z
M 22.90625 -0.40625 
C 16.5 -0.40625 12.703125 5.125 11.296875 12.75 
C 10.203125 18.6875 10.203125 27.328125 10.203125 32.953125 
C 10.203125 40.6875 10.203125 47.109375 11.5 53.234375 
C 13.40625 61.78125 19 64.390625 22.90625 64.390625 
C 27 64.390625 32.296875 61.671875 34.203125 53.4375 
C 35.5 47.71875 35.59375 40.984375 35.59375 32.953125 
C 35.59375 26.421875 35.59375 18.375 34.40625 12.453125 
C 32.296875 1.5 26.40625 -0.40625 22.90625 -0.40625 
z
" id="CMR17-48"/>
       </defs>
       <use transform="scale(0.996264)" xlink:href="#CMSY10-0"/>
       <use transform="translate(77.487468 0)scale(0.996264)" xlink:href="#CMR17-50"/>
       <use transform="translate(123.177945 0)scale(0.996264)" xlink:href="#CMMI12-58"/>
       <use transform="translate(150.275122 0)scale(0.996264)" xlink:href="#CMR17-48"/>
      </g>
     </g>
    </g>
    <g id="xtick_2">
     <g id="line2d_2"/>
     <g id="text_2">
      <!-- $\mathdefault{−1.5}$ -->
      <g style="fill:#262626;" transform="translate(125.663469 246.296997)scale(0.2 -0.2)">
       <defs>
        <path d="M 26.59375 63.796875 
C 26.59375 65.890625 26.5 66 25.09375 66 
C 21.203125 61.359375 15.296875 59.890625 9.703125 59.6875 
C 9.40625 59.6875 8.90625 59.6875 8.796875 59.5 
C 8.703125 59.296875 8.703125 59.09375 8.703125 57 
C 11.796875 57 17 57.59375 21 59.984375 
L 21 7.296875 
C 21 3.796875 20.796875 2.59375 12.203125 2.59375 
L 9.203125 2.59375 
L 9.203125 0 
C 14 0.09375 19 0.1875 23.796875 0.1875 
C 28.59375 0.1875 33.59375 0.09375 38.40625 0 
L 38.40625 2.59375 
L 35.40625 2.59375 
C 26.796875 2.59375 26.59375 3.6875 26.59375 7.296875 
z
" id="CMR17-49"/>
        <path d="M 11.40625 58.59375 
C 12.40625 58.1875 16.5 56.890625 20.703125 56.890625 
C 30 56.890625 35.09375 61.890625 38 64.6875 
C 38 65.484375 38 66 37.40625 66 
C 37.296875 66 37.09375 66 36.296875 65.59375 
C 32.796875 64.09375 28.703125 63 23.703125 63 
C 20.703125 63 16.203125 63.359375 11.296875 65.484375 
C 10.203125 66 10 66 9.90625 66 
C 9.40625 66 9.296875 65.890625 9.296875 63.90625 
L 9.296875 34.859375 
C 9.296875 33.015625 9.296875 32.5 10.296875 32.5 
C 10.796875 32.5 11 32.703125 11.5 33.421875 
C 14.703125 38.046875 19.09375 40 24.09375 40 
C 27.59375 40 35.09375 37.734375 35.09375 20.203125 
C 35.09375 16.984375 35.09375 11.1875 32.09375 6.59375 
C 29.59375 2.484375 25.703125 0.390625 21.40625 0.390625 
C 14.796875 0.390625 8.09375 4.984375 6.296875 12.6875 
C 6.703125 12.59375 7.5 12.390625 7.90625 12.390625 
C 9.203125 12.390625 11.703125 13.09375 11.703125 16.1875 
C 11.703125 18.890625 9.796875 20 7.90625 20 
C 5.59375 20 4.09375 18.59375 4.09375 15.796875 
C 4.09375 7.09375 11 -2 21.59375 -2 
C 31.90625 -2 41.703125 6.890625 41.703125 19.796875 
C 41.703125 32.09375 33.90625 41.59375 24.203125 41.59375 
C 19.09375 41.59375 14.796875 39.6875 11.40625 36 
z
" id="CMR17-53"/>
       </defs>
       <use transform="scale(0.996264)" xlink:href="#CMSY10-0"/>
       <use transform="translate(77.487468 0)scale(0.996264)" xlink:href="#CMR17-49"/>
       <use transform="translate(123.177945 0)scale(0.996264)" xlink:href="#CMMI12-58"/>
       <use transform="translate(150.275122 0)scale(0.996264)" xlink:href="#CMR17-53"/>
      </g>
     </g>
    </g>
    <g id="xtick_3">
     <g id="line2d_3"/>
     <g id="text_3">
      <!-- $\mathdefault{−1.0}$ -->
      <g style="fill:#262626;" transform="translate(189.23148 246.296997)scale(0.2 -0.2)">
       <use transform="scale(0.996264)" xlink:href="#CMSY10-0"/>
       <use transform="translate(77.487468 0)scale(0.996264)" xlink:href="#CMR17-49"/>
       <use transform="translate(123.177945 0)scale(0.996264)" xlink:href="#CMMI12-58"/>
       <use transform="translate(150.275122 0)scale(0.996264)" xlink:href="#CMR17-48"/>
      </g>
     </g>
    </g>
    <g id="xtick_4">
     <g id="line2d_4"/>
     <g id="text_4">
      <!-- $\mathdefault{−0.5}$ -->
      <g style="fill:#262626;" transform="translate(252.799491 246.296997)scale(0.2 -0.2)">
       <use transform="scale(0.996264)" xlink:href="#CMSY10-0"/>
       <use transform="translate(77.487468 0)scale(0.996264)" xlink:href="#CMR17-48"/>
       <use transform="translate(123.177945 0)scale(0.996264)" xlink:href="#CMMI12-58"/>
       <use transform="translate(150.275122 0)scale(0.996264)" xlink:href="#CMR17-53"/>
      </g>
     </g>
    </g>
    <g id="xtick_5">
     <g id="line2d_5"/>
     <g id="text_5">
      <!-- $\mathdefault{0.0}$ -->
      <g style="fill:#262626;" transform="translate(324.116245 246.296997)scale(0.2 -0.2)">
       <use transform="scale(0.996264)" xlink:href="#CMR17-48"/>
       <use transform="translate(45.690477 0)scale(0.996264)" xlink:href="#CMMI12-58"/>
       <use transform="translate(72.787654 0)scale(0.996264)" xlink:href="#CMR17-48"/>
      </g>
     </g>
    </g>
    <g id="xtick_6">
     <g id="line2d_6"/>
     <g id="text_6">
      <!-- $\mathdefault{0.5}$ -->
      <g style="fill:#262626;" transform="translate(387.684256 246.296997)scale(0.2 -0.2)">
       <use transform="scale(0.996264)" xlink:href="#CMR17-48"/>
       <use transform="translate(45.690477 0)scale(0.996264)" xlink:href="#CMMI12-58"/>
       <use transform="translate(72.787654 0)scale(0.996264)" xlink:href="#CMR17-53"/>
      </g>
     </g>
    </g>
    <g id="xtick_7">
     <g id="line2d_7"/>
     <g id="text_7">
      <!-- $\mathdefault{1.0}$ -->
      <g style="fill:#262626;" transform="translate(451.252267 246.296997)scale(0.2 -0.2)">
       <use transform="scale(0.996264)" xlink:href="#CMR17-49"/>
       <use transform="translate(45.690477 0)scale(0.996264)" xlink:href="#CMMI12-58"/>
       <use transform="translate(72.787654 0)scale(0.996264)" xlink:href="#CMR17-48"/>
      </g>
     </g>
    </g>
    <g id="xtick_8">
     <g id="line2d_8"/>
     <g id="text_8">
      <!-- $\mathdefault{1.5}$ -->
      <g style="fill:#262626;" transform="translate(514.820278 246.296997)scale(0.2 -0.2)">
       <use transform="scale(0.996264)" xlink:href="#CMR17-49"/>
       <use transform="translate(45.690477 0)scale(0.996264)" xlink:href="#CMMI12-58"/>
       <use transform="translate(72.787654 0)scale(0.996264)" xlink:href="#CMR17-53"/>
      </g>
     </g>
    </g>
    <g id="xtick_9">
     <g id="line2d_9"/>
     <g id="text_9">
      <!-- $\mathdefault{2.0}$ -->
      <g style="fill:#262626;" transform="translate(578.388289 246.296997)scale(0.2 -0.2)">
       <use transform="scale(0.996264)" xlink:href="#CMR17-50"/>
       <use transform="translate(45.690477 0)scale(0.996264)" xlink:href="#CMMI12-58"/>
       <use transform="translate(72.787654 0)scale(0.996264)" xlink:href="#CMR17-48"/>
      </g>
     </g>
    </g>
    <g id="text_10">
     <!-- $x$ -->
     <g style="fill:#262626;" transform="translate(330.339313 266.62593)scale(0.18 -0.18)">
      <defs>
       <path d="M 47.40625 41 
C 44.203125 40.390625 43 37.984375 43 36.09375 
C 43 33.6875 44.90625 32.890625 46.296875 32.890625 
C 49.296875 32.890625 51.40625 35.484375 51.40625 38.1875 
C 51.40625 42.09375 46.59375 44 42.40625 44 
C 36.296875 44 32.90625 38.296875 32 36.390625 
C 29.703125 43.59375 23.5 44 21.703125 44 
C 11.5 44 6.09375 31.140625 6.09375 28.890625 
C 6.09375 28.484375 6.5 27.96875 7.203125 27.96875 
C 8 27.96875 8.203125 28.578125 8.40625 28.984375 
C 11.796875 40.1875 18.5 41.984375 21.40625 41.984375 
C 25.90625 41.984375 26.796875 38.09375 26.796875 35.6875 
C 26.796875 33.484375 26.203125 31.140625 25 26.21875 
L 21.59375 12.15625 
C 20.09375 6.09375 17.203125 1 11.90625 1 
C 11.40625 1 8.90625 1 6.796875 1.96875 
C 10.40625 2.59375 11.203125 5.59375 11.203125 6.796875 
C 11.203125 8.796875 9.703125 10 7.796875 10 
C 5.40625 10 2.796875 7.890625 2.796875 4.6875 
C 2.796875 0.890625 7.5 -1 11.796875 -1 
C 16.59375 -1 20 2.390625 22.09375 6.484375 
C 23.703125 1 28.703125 -1 32.40625 -1 
C 42.59375 -1 48 11.734375 48 14 
C 48 14.515625 47.59375 14.921875 47 14.921875 
C 46.09375 14.921875 46 14.40625 45.703125 13.59375 
C 43 4.6875 37.203125 1 32.703125 1 
C 29.203125 1 27.296875 3.1875 27.296875 7.296875 
C 27.296875 9.484375 27.703125 11.125 29.296875 17.90625 
L 32.796875 31.859375 
C 34.296875 37.890625 37.703125 41.984375 42.296875 41.984375 
C 42.5 41.984375 45.296875 41.984375 47.40625 41 
z
" id="CMMI12-120"/>
      </defs>
      <use transform="scale(0.996264)" xlink:href="#CMMI12-120"/>
     </g>
    </g>
   </g>
   <g id="matplotlib.axis_2">
    <g id="ytick_1">
     <g id="line2d_10"/>
     <g id="text_11">
      <!-- $\mathdefault{0.0}$ -->
      <g style="fill:#262626;" transform="translate(29.132752 225.798498)scale(0.2 -0.2)">
       <use transform="scale(0.996264)" xlink:href="#CMR17-48"/>
       <use transform="translate(45.690477 0)scale(0.996264)" xlink:href="#CMMI12-58"/>
       <use transform="translate(72.787654 0)scale(0.996264)" xlink:href="#CMR17-48"/>
      </g>
     </g>
    </g>
    <g id="ytick_2">
     <g id="line2d_11"/>
     <g id="text_12">
      <!-- $\mathdefault{0.5}$ -->
      <g style="fill:#262626;" transform="translate(29.132752 162.631466)scale(0.2 -0.2)">
       <use transform="scale(0.996264)" xlink:href="#CMR17-48"/>
       <use transform="translate(45.690477 0)scale(0.996264)" xlink:href="#CMMI12-58"/>
       <use transform="translate(72.787654 0)scale(0.996264)" xlink:href="#CMR17-53"/>
      </g>
     </g>
    </g>
    <g id="ytick_3">
     <g id="line2d_12"/>
     <g id="text_13">
      <!-- $\mathdefault{1.0}$ -->
      <g style="fill:#262626;" transform="translate(29.132752 99.464433)scale(0.2 -0.2)">
       <use transform="scale(0.996264)" xlink:href="#CMR17-49"/>
       <use transform="translate(45.690477 0)scale(0.996264)" xlink:href="#CMMI12-58"/>
       <use transform="translate(72.787654 0)scale(0.996264)" xlink:href="#CMR17-48"/>
      </g>
     </g>
    </g>
    <g id="ytick_4">
     <g id="line2d_13"/>
     <g id="text_14">
      <!-- $\mathdefault{1.5}$ -->
      <g style="fill:#262626;" transform="translate(29.132752 36.297401)scale(0.2 -0.2)">
       <use transform="scale(0.996264)" xlink:href="#CMR17-49"/>
       <use transform="translate(45.690477 0)scale(0.996264)" xlink:href="#CMMI12-58"/>
       <use transform="translate(72.787654 0)scale(0.996264)" xlink:href="#CMR17-53"/>
      </g>
     </g>
    </g>
    <g id="text_15">
     <!-- $p(x \mid \mu, \sigma)$ -->
     <g style="fill:#262626;" transform="translate(20.649564 155.825098)rotate(-90)scale(0.18 -0.18)">
      <defs>
       <path d="M 4.296875 -12.40625 
C 3.59375 -15.328125 3.203125 -16.109375 -0.90625 -16.109375 
C -2.109375 -16.109375 -3.109375 -16.109375 -3.109375 -18 
C -3.109375 -18.203125 -3 -19 -1.90625 -19 
C -0.609375 -19 0.796875 -18.8125 2.09375 -18.8125 
L 6.40625 -18.8125 
C 8.5 -18.8125 13.59375 -19 15.703125 -19 
C 16.296875 -19 17.5 -19 17.5 -17.203125 
C 17.5 -16.109375 16.796875 -16.109375 15.09375 -16.109375 
C 10.5 -16.109375 10.203125 -15.421875 10.203125 -14.640625 
C 10.203125 -13.484375 14.703125 3.390625 15.296875 5.6875 
C 16.40625 2.890625 19.09375 -1 24.296875 -1 
C 35.59375 -1 47.796875 13.65625 47.796875 28.328125 
C 47.796875 37.5 42.59375 44 35.09375 44 
C 28.703125 44 23.296875 37.796875 22.203125 36.40625 
C 21.40625 41.390625 17.5 44 13.5 44 
C 10.59375 44 8.296875 42.59375 6.40625 38.796875 
C 4.59375 35.203125 3.203125 29.125 3.203125 28.71875 
C 3.203125 28.328125 3.59375 27.828125 4.296875 27.828125 
C 5.09375 27.828125 5.203125 27.921875 5.796875 30.21875 
C 7.296875 36.109375 9.203125 41.984375 13.203125 41.984375 
C 15.5 41.984375 16.296875 40.390625 16.296875 37.40625 
C 16.296875 35.015625 16 34.015625 15.59375 32.21875 
z
M 21.59375 31.125 
C 22.296875 33.90625 25.09375 36.8125 26.703125 38.203125 
C 27.796875 39.203125 31.09375 41.984375 34.90625 41.984375 
C 39.296875 41.984375 41.296875 37.609375 41.296875 32.421875 
C 41.296875 27.625 38.5 16.359375 36 11.171875 
C 33.5 5.78125 28.90625 1 24.296875 1 
C 17.5 1 16.40625 9.578125 16.40625 9.96875 
C 16.40625 10.265625 16.59375 11.0625 16.703125 11.5625 
z
" id="CMMI12-112"/>
       <path d="M 30.59375 -24.40625 
C 30.59375 -24.3125 30.59375 -24.109375 30.296875 -23.8125 
C 25.703125 -19.109375 13.40625 -6.296875 13.40625 24.9375 
C 13.40625 56.171875 25.5 68.875 30.40625 73.890625 
C 30.40625 73.984375 30.59375 74.1875 30.59375 74.484375 
C 30.59375 74.796875 30.296875 75 29.90625 75 
C 28.796875 75 20.296875 67.578125 15.40625 56.5625 
C 10.40625 45.453125 9 34.65625 9 25.046875 
C 9 17.828125 9.703125 5.625 15.703125 -7.296875 
C 20.5 -17.703125 28.703125 -25 29.90625 -25 
C 30.40625 -25 30.59375 -24.8125 30.59375 -24.40625 
z
" id="CMR17-40"/>
       <path d="M 15.90625 71.390625 
C 15.90625 73.1875 15.90625 75 13.90625 75 
C 11.90625 75 11.90625 73.1875 11.90625 71.390625 
L 11.90625 -21.40625 
C 11.90625 -23.203125 11.90625 -25 13.90625 -25 
C 15.90625 -25 15.90625 -23.203125 15.90625 -21.40625 
z
" id="CMSY10-106"/>
       <path d="M 14.40625 2.1875 
C 16.90625 -0.109375 20.59375 -1 24 -1 
C 30.40625 -1 34.796875 3.28125 37.09375 6.375 
C 38.09375 1.09375 42.296875 -1 45.796875 -1 
C 48.796875 -1 51.203125 0.796875 53 4.390625 
C 54.59375 7.78125 56 13.859375 56 14.265625 
C 56 14.75 55.59375 15.15625 55 15.15625 
C 54.09375 15.15625 54 14.65625 53.59375 13.15625 
C 52.09375 7.28125 50.203125 1 46.09375 1 
C 43.203125 1 43 3.578125 43 5.578125 
C 43 7.875 43.90625 11.46875 44.59375 14.453125 
L 47.40625 25.234375 
C 47.796875 27.125 48.90625 31.609375 49.40625 33.40625 
C 50 35.796875 51.09375 40.09375 51.09375 40.484375 
C 51.09375 41.984375 49.90625 43 48.40625 43 
C 47.5 43 45.40625 42.59375 44.59375 39.59375 
L 37.59375 11.859375 
C 37.09375 9.875 37.09375 9.671875 35.796875 8.078125 
C 34.59375 6.375 30.703125 1 24.40625 1 
C 18.796875 1 17 5.078125 17 9.765625 
C 17 12.671875 17.90625 16.15625 18.296875 17.859375 
L 22.796875 35.8125 
C 23.296875 37.703125 24.09375 40.890625 24.09375 41.5 
C 24.09375 43.09375 22.796875 44 21.5 44 
C 20.59375 44 18.40625 43.6875 17.59375 40.5 
L 3.09375 -16.953125 
C 3 -17.4375 2.796875 -18.03125 2.796875 -18.609375 
C 2.796875 -20.109375 4 -21.109375 5.5 -21.109375 
C 8.40625 -21.109375 9 -18.8125 9.703125 -16.078125 
z
" id="CMMI12-22"/>
       <path d="M 19.5 -0.40625 
C 19.5 5.390625 17.59375 9.6875 13.5 9.6875 
C 10.296875 9.6875 8.703125 7.09375 8.703125 4.890625 
C 8.703125 2.6875 10.203125 0 13.59375 0 
C 14.90625 0 16 0.390625 16.90625 1.296875 
C 17.09375 1.5 17.203125 1.5 17.296875 1.5 
C 17.5 1.5 17.5 0.09375 17.5 -0.40625 
C 17.5 -3.640625 16.90625 -10.03125 11.09375 -16.421875 
C 10 -17.609375 10 -17.8125 10 -18 
C 10 -18.5 10.5 -19 11 -19 
C 11.796875 -19 19.5 -11.703125 19.5 -0.40625 
z
" id="CMMI12-59"/>
       <path d="M 50.796875 37.59375 
C 52.09375 37.59375 55.40625 37.59375 55.40625 40.796875 
C 55.40625 43 53.5 43 51.703125 43 
L 29.59375 43 
C 14.59375 43 3.796875 26.328125 3.796875 14.5625 
C 3.796875 6.078125 9.296875 -1 18.296875 -1 
C 30.09375 -1 43 11.65625 43 26.625 
C 43 30.515625 42.09375 34.296875 39.703125 37.59375 
z
M 18.40625 1 
C 13.296875 1 9.59375 4.875 9.59375 11.765625 
C 9.59375 17.75 13.203125 37.59375 27.90625 37.59375 
C 32.203125 37.59375 37 35.5 37 27.8125 
C 37 24.328125 35.40625 15.953125 31.90625 10.171875 
C 28.296875 4.28125 22.90625 1 18.40625 1 
z
" id="CMMI12-27"/>
       <path d="M 26.296875 24.9375 
C 26.296875 32.140625 25.59375 44.359375 19.59375 57.265625 
C 14.796875 67.6875 6.59375 75 5.40625 75 
C 5.09375 75 4.703125 74.890625 4.703125 74.390625 
C 4.703125 74.1875 4.796875 74.09375 4.90625 73.890625 
C 9.703125 68.875 21.90625 56.171875 21.90625 25.046875 
C 21.90625 -6.1875 9.796875 -18.90625 4.90625 -23.90625 
C 4.796875 -24.109375 4.703125 -24.203125 4.703125 -24.40625 
C 4.703125 -24.90625 5.09375 -25 5.40625 -25 
C 6.5 -25 15 -17.609375 19.90625 -6.59375 
C 24.90625 4.515625 26.296875 15.328125 26.296875 24.9375 
z
" id="CMR17-41"/>
      </defs>
      <use transform="scale(0.996264)" xlink:href="#CMMI12-112"/>
      <use transform="translate(48.959514 0)scale(0.996264)" xlink:href="#CMR17-40"/>
      <use transform="translate(84.240282 0)scale(0.996264)" xlink:href="#CMMI12-120"/>
      <use transform="translate(167.34835 0)scale(0.996264)" xlink:href="#CMSY10-106"/>
      <use transform="translate(222.696444 0)scale(0.996264)" xlink:href="#CMMI12-22"/>
      <use transform="translate(281.387865 0)scale(0.996264)" xlink:href="#CMMI12-59"/>
      <use transform="translate(325.089447 0)scale(0.996264)" xlink:href="#CMMI12-27"/>
      <use transform="translate(384.109501 0)scale(0.996264)" xlink:href="#CMR17-41"/>
     </g>
    </g>
   </g>
   <g id="line2d_14">
    <path clip-path="url(#p437c3a042a)" d="M 81.692015 218.88 
L 212.642117 218.77149 
L 222.812999 218.523177 
L 229.1698 218.167172 
L 234.255241 217.675234 
L 238.069322 217.123917 
L 241.883402 216.356907 
L 245.697483 215.306714 
L 248.240203 214.409566 
L 250.782924 213.322849 
L 253.325644 212.016033 
L 255.868365 210.455994 
L 258.411085 208.607345 
L 260.953806 206.432926 
L 263.496526 203.894463 
L 266.039247 200.953402 
L 268.581967 197.571937 
L 271.124687 193.71421 
L 273.667408 189.347672 
L 276.210128 184.444585 
L 278.752849 178.983622 
L 281.295569 172.951514 
L 283.83829 166.344689 
L 286.38101 159.170834 
L 288.92373 151.450303 
L 292.737811 138.923276 
L 296.551892 125.424486 
L 301.637333 106.365114 
L 310.536854 72.488354 
L 314.350935 58.894124 
L 316.893655 50.489525 
L 319.436376 42.774097 
L 321.979096 35.880113 
L 324.521817 29.929413 
L 325.793177 27.342131 
L 327.064537 25.029831 
L 328.335897 23.003269 
L 329.607257 21.271947 
L 330.878618 19.844035 
L 332.149978 18.726307 
L 333.421338 17.924089 
L 334.692698 17.441216 
L 335.964059 17.28 
L 337.235419 17.441216 
L 338.506779 17.924089 
L 339.778139 18.726307 
L 341.049499 19.844035 
L 342.32086 21.271947 
L 343.59222 23.003269 
L 344.86358 25.029831 
L 346.13494 27.342131 
L 347.406301 29.929413 
L 349.949021 35.880113 
L 352.491741 42.774097 
L 355.034462 50.489525 
L 357.577182 58.894124 
L 361.391263 72.488354 
L 366.476704 91.71499 
L 374.104865 120.750745 
L 377.918946 134.52066 
L 381.733026 147.39515 
L 384.275747 155.377102 
L 386.818467 162.82768 
L 389.361188 169.719742 
L 391.903908 176.039431 
L 394.446629 181.784876 
L 396.989349 186.964699 
L 399.532069 191.596407 
L 402.07479 195.704735 
L 404.61751 199.320022 
L 407.160231 202.476651 
L 409.702951 205.211615 
L 412.245672 207.563232 
L 414.788392 209.570033 
L 417.331113 211.26983 
L 419.873833 212.698966 
L 422.416553 213.891748 
L 424.959274 214.880035 
L 427.501994 215.692982 
L 431.316075 216.640426 
L 435.130156 217.328712 
L 440.215596 217.95032 
L 445.301037 218.336929 
L 452.929199 218.648902 
L 463.10008 218.812371 
L 484.713204 218.876465 
L 588.964742 218.88 
L 588.964742 218.88 
" style="fill:none;stroke:#000000;stroke-dasharray:1.5,2.475;stroke-dashoffset:0;stroke-width:1.5;"/>
   </g>
   <g id="line2d_15">
    <path clip-path="url(#p437c3a042a)" d="M 81.692015 218.846185 
L 112.20466 218.674449 
L 128.732343 218.383743 
L 141.445945 217.946357 
L 151.616827 217.375985 
L 160.516348 216.644783 
L 168.14451 215.789483 
L 174.501311 214.875822 
L 180.858112 213.743672 
L 187.214913 212.356974 
L 192.300354 211.03922 
L 197.385795 209.515384 
L 202.471236 207.766747 
L 207.556676 205.775727 
L 212.642117 203.526578 
L 217.727558 201.006157 
L 222.812999 198.204729 
L 227.89844 195.116795 
L 232.983881 191.741908 
L 238.069322 188.085431 
L 243.154763 184.15922 
L 248.240203 179.982174 
L 254.597005 174.448959 
L 262.225166 167.443998 
L 272.396048 157.74171 
L 283.83829 146.860396 
L 290.195091 141.095798 
L 295.280532 136.747126 
L 300.365972 132.708598 
L 304.180053 129.924312 
L 307.994134 127.380056 
L 311.808214 125.101243 
L 315.622295 123.111066 
L 319.436376 121.430104 
L 323.250456 120.075974 
L 327.064537 119.063015 
L 329.607257 118.582742 
L 332.149978 118.261277 
L 334.692698 118.100158 
L 337.235419 118.100158 
L 339.778139 118.261277 
L 342.32086 118.582742 
L 344.86358 119.063015 
L 347.406301 119.699804 
L 351.220381 120.941635 
L 355.034462 122.515454 
L 358.848542 124.404707 
L 362.662623 126.589764 
L 366.476704 129.048261 
L 370.290784 131.75548 
L 375.376225 135.705704 
L 380.461666 139.983383 
L 386.818467 145.684177 
L 394.446629 152.861279 
L 413.517032 170.988485 
L 419.873833 176.70033 
L 426.230634 182.100583 
L 431.316075 186.155031 
L 436.401516 189.948286 
L 441.486957 193.46503 
L 446.572398 196.696731 
L 451.657838 199.641021 
L 456.743279 202.300975 
L 461.82872 204.684311 
L 466.914161 206.802571 
L 471.999602 208.670299 
L 477.085043 210.304251 
L 482.170484 211.72266 
L 487.255925 212.944577 
L 493.612726 214.225017 
L 499.969527 215.265555 
L 506.326328 216.101425 
L 513.954489 216.880018 
L 522.854011 217.541783 
L 533.024892 218.054579 
L 545.738495 218.444762 
L 562.266177 218.701588 
L 587.693382 218.84035 
L 588.964742 218.843376 
L 588.964742 218.843376 
" style="fill:none;stroke:#000000;stroke-dasharray:5.55,2.4;stroke-dashoffset:0;stroke-width:1.5;"/>
   </g>
   <g id="line2d_16">
    <path clip-path="url(#p437c3a042a)" d="M 81.692015 212.059102 
L 94.405617 210.590487 
L 107.119219 208.905906 
L 119.832821 206.998398 
L 132.546424 204.86692 
L 145.260026 202.517516 
L 159.244988 199.698598 
L 174.501311 196.379418 
L 192.300354 192.263238 
L 245.697483 179.708824 
L 258.411085 177.036303 
L 269.853327 174.853524 
L 280.024209 173.130028 
L 290.195091 171.642353 
L 299.094612 170.555379 
L 307.994134 169.68504 
L 316.893655 169.043823 
L 325.793177 168.641022 
L 334.692698 168.48252 
L 343.59222 168.570638 
L 352.491741 168.904086 
L 361.391263 169.477987 
L 370.290784 170.284002 
L 379.190306 171.31053 
L 388.089828 172.542982 
L 398.260709 174.181445 
L 408.431591 176.037047 
L 419.873833 178.343971 
L 433.858795 181.409979 
L 451.657838 185.567218 
L 497.426806 196.379418 
L 512.683129 199.698598 
L 526.668091 202.517516 
L 539.381694 204.86692 
L 552.095296 206.998398 
L 564.808898 208.905906 
L 577.5225 210.590487 
L 588.964742 211.921658 
L 588.964742 211.921658 
" style="fill:none;stroke:#000000;stroke-linecap:round;stroke-width:1.5;"/>
   </g>
   <g id="patch_3">
    <path d="M 56.328378 228.96 
L 56.328378 7.2 
" style="fill:none;stroke:#262626;stroke-linecap:square;stroke-linejoin:miter;stroke-width:1.25;"/>
   </g>
   <g id="patch_4">
    <path d="M 614.328378 228.96 
L 614.328378 7.2 
" style="fill:none;stroke:#262626;stroke-linecap:square;stroke-linejoin:miter;stroke-width:1.25;"/>
   </g>
   <g id="patch_5">
    <path d="M 56.328378 228.96 
L 614.328378 228.96 
" style="fill:none;stroke:#262626;stroke-linecap:square;stroke-linejoin:miter;stroke-width:1.25;"/>
   </g>
   <g id="patch_6">
    <path d="M 56.328378 7.2 
L 614.328378 7.2 
" style="fill:none;stroke:#262626;stroke-linecap:square;stroke-linejoin:miter;stroke-width:1.25;"/>
   </g>
   <g id="legend_1">
    <g id="patch_7">
     <path d="M 472.278216 110.985009 
L 604.328378 110.985009 
L 604.328378 17.2 
L 472.278216 17.2 
z
" style="fill:#ffffff;opacity:0.8;stroke:#000000;stroke-linejoin:miter;"/>
    </g>
    <g id="line2d_17">
     <path d="M 480.278216 33.396875 
L 510.278216 33.396875 
" style="fill:none;stroke:#000000;stroke-dasharray:1.5,2.475;stroke-dashoffset:0;stroke-width:1.5;"/>
    </g>
    <g id="line2d_18"/>
    <g id="text_16">
     <!-- $\sigma = 0.25$ -->
     <g style="fill:#262626;" transform="translate(526.278216 40.396875)scale(0.2 -0.2)">
      <defs>
       <path d="M 64.296875 32 
C 65.796875 32 67.296875 32 67.296875 33.6875 
C 67.296875 35.5 65.59375 35.5 63.90625 35.5 
L 8 35.5 
C 6.296875 35.5 4.59375 35.5 4.59375 33.6875 
C 4.59375 32 6.09375 32 7.59375 32 
z
M 63.90625 14.484375 
C 65.59375 14.484375 67.296875 14.484375 67.296875 16.296875 
C 67.296875 18 65.796875 18 64.296875 18 
L 7.59375 18 
C 6.09375 18 4.59375 18 4.59375 16.296875 
C 4.59375 14.484375 6.296875 14.484375 8 14.484375 
z
" id="CMR17-61"/>
      </defs>
      <use transform="scale(0.996264)" xlink:href="#CMMI12-27"/>
      <use transform="translate(86.694062 0)scale(0.996264)" xlink:href="#CMR17-61"/>
      <use transform="translate(186.082859 0)scale(0.996264)" xlink:href="#CMR17-48"/>
      <use transform="translate(231.773337 0)scale(0.996264)" xlink:href="#CMMI12-58"/>
      <use transform="translate(258.870514 0)scale(0.996264)" xlink:href="#CMR17-50"/>
      <use transform="translate(304.560991 0)scale(0.996264)" xlink:href="#CMR17-53"/>
     </g>
    </g>
    <g id="line2d_19">
     <path d="M 480.278216 62.753125 
L 510.278216 62.753125 
" style="fill:none;stroke:#000000;stroke-dasharray:5.55,2.4;stroke-dashoffset:0;stroke-width:1.5;"/>
    </g>
    <g id="line2d_20"/>
    <g id="text_17">
     <!-- $\sigma = 0.5$ -->
     <g style="fill:#262626;" transform="translate(526.278216 69.753125)scale(0.2 -0.2)">
      <use transform="scale(0.996264)" xlink:href="#CMMI12-27"/>
      <use transform="translate(86.694062 0)scale(0.996264)" xlink:href="#CMR17-61"/>
      <use transform="translate(186.082859 0)scale(0.996264)" xlink:href="#CMR17-48"/>
      <use transform="translate(231.773337 0)scale(0.996264)" xlink:href="#CMMI12-58"/>
      <use transform="translate(258.870514 0)scale(0.996264)" xlink:href="#CMR17-53"/>
     </g>
    </g>
    <g id="line2d_21">
     <path d="M 480.278216 92.109375 
L 510.278216 92.109375 
" style="fill:none;stroke:#000000;stroke-linecap:round;stroke-width:1.5;"/>
    </g>
    <g id="line2d_22"/>
    <g id="text_18">
     <!-- $\sigma = 1.0$ -->
     <g style="fill:#262626;" transform="translate(526.278216 99.109375)scale(0.2 -0.2)">
      <use transform="scale(0.996264)" xlink:href="#CMMI12-27"/>
      <use transform="translate(86.694062 0)scale(0.996264)" xlink:href="#CMR17-61"/>
      <use transform="translate(186.082859 0)scale(0.996264)" xlink:href="#CMR17-49"/>
      <use transform="translate(231.773337 0)scale(0.996264)" xlink:href="#CMMI12-58"/>
      <use transform="translate(258.870514 0)scale(0.996264)" xlink:href="#CMR17-48"/>
     </g>
    </g>
   </g>
  </g>
 </g>
 <defs>
  <clipPath id="p437c3a042a">
   <rect height="221.76" width="558" x="56.328378" y="7.2"/>
  </clipPath>
 </defs>
</svg>
