<svg width="341" height="257" viewBox="0 0 341 257" fill="none" xmlns="http://www.w3.org/2000/svg">
<path d="M255 144L215 162.5L229.5 139L240 113.5L255 59L255 144Z" fill="#B7CEE3"/>
<path d="M219.5 160L130 201.5L145.5 201.5L161 199L168.574 196.705C174.508 194.907 180.23 192.475 185.641 189.45C191.527 186.161 197.007 182.194 201.968 177.629L207 173L219.5 160Z" fill="#AAAAAA"/>
<path d="M147.626 201.746L147.674 202.745L147.626 201.746ZM242.632 104.573L243.601 104.82L242.632 104.573ZM257 48L248.943 56.2711L260.134 59.1135L257 48ZM207.62 172.283L206.858 171.635L207.62 172.283ZM59.0479 206.999L147.674 202.745L147.578 200.747L58.9521 205.001L59.0479 206.999ZM243.601 104.82L255.754 56.9692L253.815 56.4769L241.663 104.327L243.601 104.82ZM208.381 172.932C225.177 153.221 237.227 129.919 243.601 104.82L241.663 104.327C235.364 129.13 223.457 152.157 206.858 171.635L208.381 172.932ZM147.674 202.745C171.159 201.618 193.131 190.827 208.381 172.932L206.858 171.635C191.967 189.109 170.511 199.646 147.578 200.747L147.674 202.745Z" fill="black"/>
<line x1="35.5" y1="0.997872" x2="36.5" y2="235.998" stroke="black"/>
<line x1="12.9984" y1="215.5" x2="318.998" y2="214.5" stroke="black"/>
<path d="M7.08398 139.712H7.42598C7.53398 138.38 7.74998 138.2 9.08198 138.2H16.804C18.352 138.2 18.55 138.308 18.658 139.712H19V134.672H18.658C18.586 136.13 18.352 136.364 16.984 136.364H13.762C13.798 135.878 13.816 135.59 13.816 135.122C13.816 133.196 13.654 132.314 12.718 131.27C12.124 130.604 11.314 130.244 10.36 130.244C9.45998 130.244 8.72198 130.55 8.21798 131.144C7.53398 131.954 7.08398 133.25 7.08398 135.05V139.712ZM8.39798 136.364C7.91198 136.364 7.74998 136.256 7.74998 135.734C7.74998 133.286 8.46998 132.206 10.45 132.206C12.07 132.206 13.096 133.286 13.096 135.266C13.096 135.626 13.078 135.95 13.042 136.364H8.39798ZM10.756 127.1L10.72 127.19C11.098 128.144 11.35 128.792 11.692 129.854H11.98C11.926 129.602 11.908 129.44 11.908 129.224C11.908 128.774 12.196 128.612 12.988 128.612H17.488C18.388 128.612 18.514 128.738 18.73 129.89H19V125.57H18.73C18.676 126.794 18.406 127.1 17.38 127.1H13.33C12.754 127.1 11.854 126.344 11.854 125.84C11.854 125.732 11.944 125.57 12.124 125.372C12.394 125.084 12.484 124.886 12.484 124.652C12.484 124.22 12.178 123.95 11.674 123.95C11.08 123.95 10.72 124.328 10.72 124.94C10.72 125.696 11.116 126.2 12.412 127.1H10.756ZM14.842 115.632C12.358 115.632 10.72 117.324 10.72 119.52C10.72 121.95 12.394 123.57 14.896 123.57C17.398 123.57 19.18 121.86 19.18 119.682C19.18 117.252 17.344 115.632 14.842 115.632ZM15.328 117.252C17.416 117.252 18.676 118.044 18.676 119.376C18.676 120.024 18.352 120.6 17.776 120.996C16.804 121.662 15.508 121.95 14.086 121.95C12.286 121.95 11.224 121.104 11.224 119.862C11.224 119.088 11.584 118.584 12.124 118.152C12.862 117.576 14.104 117.252 15.328 117.252ZM12.016 106.632H11.314V108.018C11.314 108.378 11.26 108.648 11.134 109.008L10.99 109.404C10.81 109.89 10.72 110.376 10.72 110.844C10.72 112.518 12.016 113.85 13.654 113.85C14.788 113.85 15.472 113.382 16.066 112.176C16.318 112.428 16.552 112.68 16.786 112.95C17.308 113.544 17.668 113.778 18.028 113.778C18.424 113.778 18.622 113.58 18.982 112.824C19.918 114.12 20.512 114.588 21.178 114.588C22.132 114.588 22.924 113.202 22.924 111.474C22.924 110.178 22.492 108.81 21.772 107.874C21.196 107.136 20.602 106.794 19.882 106.794C18.766 106.794 18.01 107.64 17.956 108.972L17.848 111.294C17.794 112.266 17.65 112.698 17.362 112.698C17.002 112.698 16.372 112.104 16.228 111.618L16.264 111.276C16.3 110.952 16.318 110.7 16.318 110.592C16.318 109.962 16.048 109.296 15.616 108.72C15.13 108.072 14.464 107.784 13.528 107.784C13.006 107.784 12.592 107.874 12.016 108.126V106.632ZM12.916 112.356C11.854 112.356 11.224 111.852 11.224 111.024C11.224 110.466 11.53 109.998 12.07 109.71C12.7 109.368 13.51 109.17 14.248 109.17C15.238 109.17 15.868 109.692 15.868 110.502C15.868 111.618 14.698 112.356 12.97 112.356H12.916ZM20.152 107.298C21.196 107.298 21.898 108.666 21.898 110.718C21.898 112.302 21.376 113.328 20.584 113.328C20.17 113.328 19.9 113.166 19.036 112.446C19.162 111.834 19.27 110.412 19.27 109.53C19.27 107.892 19.486 107.298 20.152 107.298ZM10.756 103.036L10.72 103.126C11.098 104.08 11.35 104.728 11.692 105.79H11.98C11.926 105.538 11.908 105.376 11.908 105.16C11.908 104.71 12.196 104.548 12.988 104.548H17.488C18.388 104.548 18.514 104.674 18.73 105.826H19V101.506H18.73C18.676 102.73 18.406 103.036 17.38 103.036H13.33C12.754 103.036 11.854 102.28 11.854 101.776C11.854 101.668 11.944 101.506 12.124 101.308C12.394 101.02 12.484 100.822 12.484 100.588C12.484 100.156 12.178 99.886 11.674 99.886C11.08 99.886 10.72 100.264 10.72 100.876C10.72 101.632 11.116 102.136 12.412 103.036H10.756ZM16.048 92.613C17.38 93.495 17.938 94.179 17.938 95.385C17.938 96.213 17.614 96.879 16.948 97.383C16.084 98.031 15.382 98.121 14.014 98.211L14.014 92.667C13.042 92.739 12.466 92.919 11.962 93.279C11.152 93.855 10.72 94.665 10.72 95.781C10.72 98.049 12.556 99.507 15.094 99.507C17.578 99.507 19.18 98.211 19.18 96.087C19.18 94.287 18.136 93.027 16.174 92.325L16.048 92.613ZM13.438 98.175C12.088 97.977 11.368 97.275 11.368 96.267C11.368 95.079 11.98 94.701 13.438 94.503L13.438 98.175ZM13.582 89.151C13.276 89.655 12.754 89.925 12.358 89.925C11.512 89.925 11.134 89.349 11.134 88.575C11.134 87.495 11.728 86.955 13.348 86.541V86.271L10.9 86.361V86.559C11.062 86.703 11.08 86.775 11.08 86.847C11.08 86.973 11.026 87.153 10.936 87.351C10.756 87.729 10.738 88.125 10.738 88.557C10.738 90.033 11.53 91.041 12.952 91.041C13.87 91.041 14.734 90.375 15.562 88.881L16.102 87.909C16.426 87.315 16.894 86.955 17.452 86.955C18.19 86.955 18.784 87.531 18.784 88.449C18.784 89.691 17.992 90.357 16.246 90.735V91.023H19.072V90.789C18.892 90.681 18.856 90.573 18.856 90.357C18.856 90.159 18.874 89.961 19.018 89.529C19.162 89.115 19.18 88.593 19.18 88.215C19.18 86.847 18.136 85.695 16.93 85.695C15.904 85.695 15.418 86.127 14.716 87.279L13.582 89.151ZM13.582 82.1549C13.276 82.6589 12.754 82.9289 12.358 82.9289C11.512 82.9289 11.134 82.3529 11.134 81.5789C11.134 80.4989 11.728 79.9589 13.348 79.5449V79.2749L10.9 79.3649V79.5629C11.062 79.7069 11.08 79.7789 11.08 79.8509C11.08 79.9769 11.026 80.1569 10.936 80.3549C10.756 80.7329 10.738 81.1289 10.738 81.5609C10.738 83.0369 11.53 84.0449 12.952 84.0449C13.87 84.0449 14.734 83.3789 15.562 81.8849L16.102 80.9129C16.426 80.3189 16.894 79.9589 17.452 79.9589C18.19 79.9589 18.784 80.5349 18.784 81.4529C18.784 82.6949 17.992 83.3609 16.246 83.7389V84.0269H19.072V83.7929C18.892 83.6849 18.856 83.5769 18.856 83.3609C18.856 83.1629 18.874 82.9649 19.018 82.5329C19.162 82.1189 19.18 81.5969 19.18 81.2189C19.18 79.8509 18.136 78.6989 16.93 78.6989C15.904 78.6989 15.418 79.1309 14.716 80.2829L13.582 82.1549Z" fill="black"/>
<path d="M173.674 240.144L173.548 237.084H163.432L163.306 240.144H163.738C164.098 238.164 164.584 237.84 166.492 237.84H167.572V246.786C167.572 248.37 167.374 248.568 165.88 248.658V249H171.136V248.658C169.66 248.586 169.408 248.37 169.408 247.002V237.84H170.47C172.378 237.84 172.846 238.164 173.242 240.144H173.674ZM177.086 237.624C177.086 237.12 176.69 236.706 176.168 236.706C175.664 236.706 175.25 237.12 175.25 237.624C175.25 238.146 175.646 238.542 176.15 238.542C176.69 238.542 177.086 238.146 177.086 237.624ZM178.4 249V248.73C177.212 248.64 177.068 248.442 177.068 247.11V240.792L176.996 240.72L174.206 241.71V241.998C174.53 241.908 174.8 241.908 174.962 241.908C175.412 241.908 175.556 242.196 175.556 243.042V247.128C175.556 248.496 175.376 248.658 174.134 248.73V249H178.4ZM192.805 249V248.73L192.337 248.694C191.797 248.658 191.563 248.424 191.563 247.614V243.96C191.563 241.836 190.933 240.72 189.475 240.72C188.431 240.72 187.513 241.188 186.541 242.232C186.217 241.206 185.605 240.72 184.633 240.72C183.823 240.72 183.067 240.882 181.879 242.106H181.843V240.774L181.699 240.72C180.781 241.062 180.187 241.26 179.197 241.53V241.836C179.431 241.782 179.575 241.764 179.773 241.764C180.241 241.764 180.403 242.07 180.403 242.952V247.416C180.403 248.46 180.151 248.712 179.143 248.73V249H183.139V248.73C182.185 248.694 181.915 248.514 181.915 247.74V242.736C181.915 242.7 182.023 242.574 182.149 242.43C182.509 241.998 183.391 241.656 184.057 241.656C184.831 241.656 185.227 242.412 185.227 243.654V247.452C185.227 248.55 185.029 248.658 184.003 248.73V249H188.035V248.73C187.009 248.712 186.739 248.46 186.739 247.29V242.754C187.279 241.98 187.819 241.656 188.665 241.656C189.691 241.656 190.051 242.25 190.051 243.672V247.38C190.051 248.424 189.889 248.622 188.881 248.73V249H192.805ZM200.209 246.048C199.327 247.38 198.643 247.938 197.437 247.938C196.609 247.938 195.943 247.614 195.439 246.948C194.791 246.084 194.701 245.382 194.611 244.014H200.155C200.083 243.042 199.903 242.466 199.543 241.962C198.967 241.152 198.157 240.72 197.041 240.72C194.773 240.72 193.315 242.556 193.315 245.094C193.315 247.578 194.611 249.18 196.735 249.18C198.535 249.18 199.795 248.136 200.497 246.174L200.209 246.048ZM194.647 243.438C194.845 242.088 195.547 241.368 196.555 241.368C197.743 241.368 198.121 241.98 198.319 243.438H194.647Z" fill="black"/>
<path d="M279 133L267.503 131.923L272.319 142.418L279 133ZM132.206 201.456L134.046 200.611L133.212 198.794L131.372 199.638L132.206 201.456ZM137.726 198.923L141.406 197.234L140.572 195.416L136.892 197.105L137.726 198.923ZM145.087 195.545L148.767 193.857L147.933 192.039L144.253 193.728L145.087 195.545ZM152.447 192.168L156.128 190.479L155.294 188.662L151.613 190.35L152.447 192.168ZM159.808 188.791L163.488 187.102L162.654 185.284L158.974 186.973L159.808 188.791ZM167.168 185.413L170.849 183.725L170.015 181.907L166.334 183.596L167.168 185.413ZM174.529 182.036L178.209 180.347L177.375 178.53L173.695 180.218L174.529 182.036ZM181.89 178.659L185.57 176.97L184.736 175.152L181.055 176.841L181.89 178.659ZM189.25 175.281L192.93 173.593L192.096 171.775L188.416 173.464L189.25 175.281ZM196.611 171.904L200.291 170.215L199.457 168.398L195.777 170.086L196.611 171.904ZM203.971 168.527L207.652 166.838L206.817 165.02L203.137 166.709L203.971 168.527ZM211.332 165.149L215.012 163.461L214.178 161.643L210.498 163.332L211.332 165.149ZM218.692 161.772L222.373 160.083L221.539 158.265L217.858 159.954L218.692 161.772ZM226.053 158.395L229.733 156.706L228.899 154.888L225.219 156.577L226.053 158.395ZM233.414 155.017L237.094 153.329L236.26 151.511L232.579 153.199L233.414 155.017ZM240.774 151.64L244.454 149.951L243.62 148.133L239.94 149.822L240.774 151.64ZM248.135 148.263L251.815 146.574L250.981 144.756L247.301 146.445L248.135 148.263ZM255.495 144.885L259.176 143.197L258.341 141.379L254.661 143.067L255.495 144.885ZM262.856 141.508L266.536 139.819L265.702 138.001L262.022 139.69L262.856 141.508ZM270.216 138.131L273.897 136.442L273.063 134.624L269.382 136.313L270.216 138.131Z" fill="black"/>
<path d="M111.544 222.672L111.448 222.64C110.6 222.976 110.024 223.184 109.144 223.456V223.712C109.288 223.696 109.4 223.696 109.544 223.696C110.088 223.696 110.2 223.856 110.2 224.608V232.096C110.2 232.928 110.024 233.104 109.08 233.2V233.472H112.952V233.184C111.752 233.168 111.544 232.992 111.544 231.984V229.472C112.12 230 112.488 230.16 113.16 230.16C115.064 230.16 116.52 228.368 116.52 226.048C116.52 224.064 115.4 222.64 113.848 222.64C112.952 222.64 112.248 223.024 111.544 223.904V222.672ZM111.544 224.656C111.544 224.176 112.44 223.6 113.176 223.6C114.36 223.6 115.144 224.816 115.144 226.688C115.144 228.448 114.36 229.648 113.208 229.648C112.456 229.648 111.544 229.072 111.544 228.592V224.656ZM119.56 222.672L119.48 222.64C118.632 222.976 118.056 223.2 117.112 223.504V223.76C117.336 223.712 117.48 223.696 117.672 223.696C118.072 223.696 118.216 223.952 118.216 224.656V228.656C118.216 229.456 118.104 229.568 117.08 229.76V230H120.92V229.76C119.832 229.712 119.56 229.472 119.56 228.56V224.96C119.56 224.448 120.232 223.648 120.68 223.648C120.776 223.648 120.92 223.728 121.096 223.888C121.352 224.128 121.528 224.208 121.736 224.208C122.12 224.208 122.36 223.936 122.36 223.488C122.36 222.96 122.024 222.64 121.48 222.64C120.808 222.64 120.36 222.992 119.56 224.144V222.672ZM128.825 227.376C128.041 228.56 127.433 229.056 126.361 229.056C125.625 229.056 125.033 228.768 124.585 228.176C124.009 227.408 123.929 226.784 123.849 225.568H128.777C128.713 224.704 128.553 224.192 128.233 223.744C127.721 223.024 127.001 222.64 126.009 222.64C123.993 222.64 122.697 224.272 122.697 226.528C122.697 228.736 123.849 230.16 125.737 230.16C127.337 230.16 128.457 229.232 129.081 227.488L128.825 227.376ZM123.881 225.056C124.057 223.856 124.681 223.216 125.577 223.216C126.633 223.216 126.969 223.76 127.145 225.056H123.881ZM131.902 225.184C131.454 224.912 131.214 224.448 131.214 224.096C131.214 223.344 131.726 223.008 132.414 223.008C133.374 223.008 133.854 223.536 134.222 224.976H134.462L134.382 222.8H134.206C134.078 222.944 134.014 222.96 133.95 222.96C133.838 222.96 133.678 222.912 133.502 222.832C133.166 222.672 132.814 222.656 132.43 222.656C131.118 222.656 130.222 223.36 130.222 224.624C130.222 225.44 130.814 226.208 132.142 226.944L133.006 227.424C133.534 227.712 133.854 228.128 133.854 228.624C133.854 229.28 133.342 229.808 132.526 229.808C131.422 229.808 130.83 229.104 130.494 227.552H130.238V230.064H130.446C130.542 229.904 130.638 229.872 130.83 229.872C131.006 229.872 131.182 229.888 131.566 230.016C131.934 230.144 132.398 230.16 132.734 230.16C133.95 230.16 134.974 229.232 134.974 228.16C134.974 227.248 134.59 226.816 133.566 226.192L131.902 225.184ZM142.153 227.376C141.369 228.56 140.761 229.056 139.689 229.056C138.953 229.056 138.361 228.768 137.913 228.176C137.337 227.408 137.257 226.784 137.177 225.568H142.105C142.041 224.704 141.881 224.192 141.561 223.744C141.049 223.024 140.329 222.64 139.337 222.64C137.321 222.64 136.025 224.272 136.025 226.528C136.025 228.736 137.177 230.16 139.065 230.16C140.665 230.16 141.785 229.232 142.409 227.488L142.153 227.376ZM137.209 225.056C137.385 223.856 138.009 223.216 138.905 223.216C139.961 223.216 140.297 223.76 140.473 225.056H137.209ZM150.494 230V229.76C149.71 229.68 149.518 229.504 149.518 228.64V225.104C149.518 223.52 148.846 222.64 147.63 222.64C146.894 222.64 146.158 222.992 145.326 223.936H145.31V222.688L145.182 222.64C144.398 222.928 143.87 223.104 142.99 223.36V223.632C143.102 223.584 143.278 223.568 143.454 223.568C143.902 223.568 144.014 223.824 144.014 224.608V228.496C144.014 229.44 143.838 229.696 143.022 229.76V230H146.398V229.76C145.582 229.696 145.358 229.472 145.358 228.848V224.432C146.094 223.712 146.478 223.52 147.006 223.52C147.79 223.52 148.174 224 148.174 225.136V228.32C148.174 229.376 147.982 229.696 147.182 229.76L147.166 230H150.494ZM154.99 228.768C154.638 229.184 154.382 229.328 154.03 229.328C153.438 229.328 153.198 228.912 153.198 227.888V223.312H154.814V222.8H153.198V220.944C153.198 220.784 153.166 220.736 153.086 220.736C152.99 220.896 152.862 221.04 152.766 221.184C152.158 222.064 151.63 222.656 151.214 222.896C151.038 223.008 150.942 223.104 150.942 223.2C150.942 223.248 150.958 223.28 151.006 223.312H151.854V228.128C151.854 229.472 152.334 230.16 153.262 230.16C154.062 230.16 154.67 229.776 155.198 228.944L154.99 228.768Z" fill="black"/>
<line x1="131.5" y1="212" x2="131.5" y2="219" stroke="black"/>
<path d="M89.52 175.304C89.52 173.096 88.016 171.64 86.064 171.64C83.904 171.64 82.464 173.128 82.464 175.352C82.464 177.576 83.984 179.16 85.92 179.16C88.08 179.16 89.52 177.528 89.52 175.304ZM88.08 175.736C88.08 177.592 87.376 178.712 86.192 178.712C85.616 178.712 85.104 178.424 84.752 177.912C84.16 177.048 83.904 175.896 83.904 174.632C83.904 173.032 84.656 172.088 85.76 172.088C86.448 172.088 86.896 172.408 87.28 172.888C87.792 173.544 88.08 174.648 88.08 175.736ZM92.544 171.672L92.448 171.64C91.6 171.976 91.024 172.184 90.144 172.456V172.712C90.288 172.696 90.4 172.696 90.544 172.696C91.088 172.696 91.2 172.856 91.2 173.608V181.096C91.2 181.928 91.024 182.104 90.08 182.2V182.472H93.952V182.184C92.752 182.168 92.544 181.992 92.544 180.984V178.472C93.12 179 93.488 179.16 94.16 179.16C96.064 179.16 97.52 177.368 97.52 175.048C97.52 173.064 96.4 171.64 94.848 171.64C93.952 171.64 93.248 172.024 92.544 172.904V171.672ZM92.544 173.656C92.544 173.176 93.44 172.6 94.176 172.6C95.36 172.6 96.144 173.816 96.144 175.688C96.144 177.448 95.36 178.648 94.208 178.648C93.456 178.648 92.544 178.072 92.544 177.592V173.656ZM102.24 177.768C101.888 178.184 101.632 178.328 101.28 178.328C100.688 178.328 100.448 177.912 100.448 176.888V172.312H102.064V171.8H100.448V169.944C100.448 169.784 100.416 169.736 100.336 169.736C100.24 169.896 100.112 170.04 100.016 170.184C99.4084 171.064 98.8804 171.656 98.4644 171.896C98.2884 172.008 98.1924 172.104 98.1924 172.2C98.1924 172.248 98.2084 172.28 98.2564 172.312H99.1044V177.128C99.1044 178.472 99.5844 179.16 100.512 179.16C101.312 179.16 101.92 178.776 102.448 177.944L102.24 177.768ZM105.317 168.888C105.317 168.44 104.965 168.072 104.501 168.072C104.053 168.072 103.685 168.44 103.685 168.888C103.685 169.352 104.037 169.704 104.485 169.704C104.965 169.704 105.317 169.352 105.317 168.888ZM106.485 179V178.76C105.429 178.68 105.301 178.504 105.301 177.32V171.704L105.237 171.64L102.757 172.52V172.776C103.045 172.696 103.285 172.696 103.429 172.696C103.829 172.696 103.957 172.952 103.957 173.704V177.336C103.957 178.552 103.797 178.696 102.693 178.76V179H106.485ZM119.291 179V178.76L118.875 178.728C118.395 178.696 118.187 178.488 118.187 177.768V174.52C118.187 172.632 117.627 171.64 116.331 171.64C115.403 171.64 114.587 172.056 113.723 172.984C113.435 172.072 112.891 171.64 112.027 171.64C111.307 171.64 110.635 171.784 109.579 172.872H109.547V171.688L109.419 171.64C108.603 171.944 108.075 172.12 107.195 172.36V172.632C107.403 172.584 107.531 172.568 107.707 172.568C108.123 172.568 108.267 172.84 108.267 173.624V177.592C108.267 178.52 108.043 178.744 107.147 178.76V179H110.699V178.76C109.851 178.728 109.611 178.568 109.611 177.88V173.432C109.611 173.4 109.707 173.288 109.819 173.16C110.139 172.776 110.923 172.472 111.515 172.472C112.203 172.472 112.555 173.144 112.555 174.248V177.624C112.555 178.6 112.379 178.696 111.467 178.76V179H115.051V178.76C114.139 178.744 113.899 178.52 113.899 177.48V173.448C114.379 172.76 114.859 172.472 115.611 172.472C116.523 172.472 116.843 173 116.843 174.264V177.56C116.843 178.488 116.699 178.664 115.803 178.76V179H119.291ZM122.224 168.888C122.224 168.44 121.872 168.072 121.408 168.072C120.96 168.072 120.592 168.44 120.592 168.888C120.592 169.352 120.944 169.704 121.392 169.704C121.872 169.704 122.224 169.352 122.224 168.888ZM123.392 179V178.76C122.336 178.68 122.208 178.504 122.208 177.32V171.704L122.144 171.64L119.664 172.52V172.776C119.952 172.696 120.192 172.696 120.336 172.696C120.736 172.696 120.864 172.952 120.864 173.704V177.336C120.864 178.552 120.704 178.696 119.6 178.76V179H123.392ZM126.293 174.184C125.845 173.912 125.605 173.448 125.605 173.096C125.605 172.344 126.117 172.008 126.805 172.008C127.765 172.008 128.245 172.536 128.613 173.976H128.853L128.773 171.8H128.597C128.469 171.944 128.405 171.96 128.341 171.96C128.229 171.96 128.069 171.912 127.893 171.832C127.557 171.672 127.205 171.656 126.821 171.656C125.509 171.656 124.613 172.36 124.613 173.624C124.613 174.44 125.205 175.208 126.533 175.944L127.397 176.424C127.925 176.712 128.245 177.128 128.245 177.624C128.245 178.28 127.733 178.808 126.917 178.808C125.813 178.808 125.221 178.104 124.885 176.552H124.629V179.064H124.837C124.933 178.904 125.029 178.872 125.221 178.872C125.397 178.872 125.573 178.888 125.957 179.016C126.325 179.144 126.789 179.16 127.125 179.16C128.341 179.16 129.365 178.232 129.365 177.16C129.365 176.248 128.981 175.816 127.957 175.192L126.293 174.184ZM142.416 179V178.76L142 178.728C141.52 178.696 141.312 178.488 141.312 177.768V174.52C141.312 172.632 140.752 171.64 139.456 171.64C138.528 171.64 137.712 172.056 136.848 172.984C136.56 172.072 136.016 171.64 135.152 171.64C134.432 171.64 133.76 171.784 132.704 172.872H132.672V171.688L132.544 171.64C131.728 171.944 131.2 172.12 130.32 172.36V172.632C130.528 172.584 130.656 172.568 130.832 172.568C131.248 172.568 131.392 172.84 131.392 173.624V177.592C131.392 178.52 131.168 178.744 130.272 178.76V179H133.824V178.76C132.976 178.728 132.736 178.568 132.736 177.88V173.432C132.736 173.4 132.832 173.288 132.944 173.16C133.264 172.776 134.048 172.472 134.64 172.472C135.328 172.472 135.68 173.144 135.68 174.248V177.624C135.68 178.6 135.504 178.696 134.592 178.76V179H138.176V178.76C137.264 178.744 137.024 178.52 137.024 177.48V173.448C137.504 172.76 137.984 172.472 138.736 172.472C139.648 172.472 139.968 173 139.968 174.264V177.56C139.968 178.488 139.824 178.664 138.928 178.76V179H142.416Z" fill="black"/>
<path d="M163 181L159.018 176.82L157.389 182.359L163 181ZM145.859 176.48L158.542 180.21L158.824 179.251L146.141 175.52L145.859 176.48Z" fill="black"/>
<path d="M275.544 112.672L275.448 112.64C274.6 112.976 274.024 113.184 273.144 113.456V113.712C273.288 113.696 273.4 113.696 273.544 113.696C274.088 113.696 274.2 113.856 274.2 114.608V122.096C274.2 122.928 274.024 123.104 273.08 123.2V123.472H276.952V123.184C275.752 123.168 275.544 122.992 275.544 121.984V119.472C276.12 120 276.488 120.16 277.16 120.16C279.064 120.16 280.52 118.368 280.52 116.048C280.52 114.064 279.4 112.64 277.848 112.64C276.952 112.64 276.248 113.024 275.544 113.904V112.672ZM275.544 114.656C275.544 114.176 276.44 113.6 277.176 113.6C278.36 113.6 279.144 114.816 279.144 116.688C279.144 118.448 278.36 119.648 277.208 119.648C276.456 119.648 275.544 119.072 275.544 118.592V114.656ZM287.528 117.376C286.744 118.56 286.136 119.056 285.064 119.056C284.328 119.056 283.736 118.768 283.288 118.176C282.712 117.408 282.632 116.784 282.552 115.568H287.48C287.416 114.704 287.256 114.192 286.936 113.744C286.424 113.024 285.704 112.64 284.712 112.64C282.696 112.64 281.4 114.272 281.4 116.528C281.4 118.736 282.552 120.16 284.44 120.16C286.04 120.16 287.16 119.232 287.784 117.488L287.528 117.376ZM282.584 115.056C282.76 113.856 283.384 113.216 284.28 113.216C285.336 113.216 285.672 113.76 285.848 115.056H282.584ZM290.605 115.184C290.157 114.912 289.917 114.448 289.917 114.096C289.917 113.344 290.429 113.008 291.117 113.008C292.077 113.008 292.557 113.536 292.925 114.976H293.165L293.085 112.8H292.909C292.781 112.944 292.717 112.96 292.653 112.96C292.541 112.96 292.381 112.912 292.205 112.832C291.869 112.672 291.517 112.656 291.133 112.656C289.821 112.656 288.925 113.36 288.925 114.624C288.925 115.44 289.517 116.208 290.845 116.944L291.709 117.424C292.237 117.712 292.557 118.128 292.557 118.624C292.557 119.28 292.045 119.808 291.229 119.808C290.125 119.808 289.533 119.104 289.197 117.552H288.941V120.064H289.149C289.245 119.904 289.341 119.872 289.533 119.872C289.709 119.872 289.885 119.888 290.269 120.016C290.637 120.144 291.101 120.16 291.437 120.16C292.653 120.16 293.677 119.232 293.677 118.16C293.677 117.248 293.293 116.816 292.269 116.192L290.605 115.184ZM296.824 115.184C296.376 114.912 296.136 114.448 296.136 114.096C296.136 113.344 296.648 113.008 297.336 113.008C298.296 113.008 298.776 113.536 299.144 114.976H299.384L299.304 112.8H299.128C299 112.944 298.936 112.96 298.872 112.96C298.76 112.96 298.6 112.912 298.424 112.832C298.088 112.672 297.736 112.656 297.352 112.656C296.04 112.656 295.144 113.36 295.144 114.624C295.144 115.44 295.736 116.208 297.064 116.944L297.928 117.424C298.456 117.712 298.776 118.128 298.776 118.624C298.776 119.28 298.264 119.808 297.448 119.808C296.344 119.808 295.752 119.104 295.416 117.552H295.16V120.064H295.368C295.464 119.904 295.56 119.872 295.752 119.872C295.928 119.872 296.104 119.888 296.488 120.016C296.856 120.144 297.32 120.16 297.656 120.16C298.872 120.16 299.896 119.232 299.896 118.16C299.896 117.248 299.512 116.816 298.488 116.192L296.824 115.184ZM303.427 109.888C303.427 109.44 303.075 109.072 302.611 109.072C302.163 109.072 301.795 109.44 301.795 109.888C301.795 110.352 302.147 110.704 302.595 110.704C303.075 110.704 303.427 110.352 303.427 109.888ZM304.595 120V119.76C303.539 119.68 303.411 119.504 303.411 118.32V112.704L303.347 112.64L300.867 113.52V113.776C301.155 113.696 301.395 113.696 301.539 113.696C301.939 113.696 302.067 113.952 302.067 114.704V118.336C302.067 119.552 301.907 119.696 300.803 119.76V120H304.595ZM317.4 120V119.76L316.984 119.728C316.504 119.696 316.296 119.488 316.296 118.768V115.52C316.296 113.632 315.736 112.64 314.44 112.64C313.512 112.64 312.696 113.056 311.832 113.984C311.544 113.072 311 112.64 310.136 112.64C309.416 112.64 308.744 112.784 307.688 113.872H307.656V112.688L307.528 112.64C306.712 112.944 306.184 113.12 305.304 113.36V113.632C305.512 113.584 305.64 113.568 305.816 113.568C306.232 113.568 306.376 113.84 306.376 114.624V118.592C306.376 119.52 306.152 119.744 305.256 119.76V120H308.808V119.76C307.96 119.728 307.72 119.568 307.72 118.88V114.432C307.72 114.4 307.816 114.288 307.928 114.16C308.248 113.776 309.032 113.472 309.624 113.472C310.312 113.472 310.664 114.144 310.664 115.248V118.624C310.664 119.6 310.488 119.696 309.576 119.76V120H313.16V119.76C312.248 119.744 312.008 119.52 312.008 118.48V114.448C312.488 113.76 312.968 113.472 313.72 113.472C314.632 113.472 314.952 114 314.952 115.264V118.56C314.952 119.488 314.808 119.664 313.912 119.76V120H317.4ZM320.333 109.888C320.333 109.44 319.981 109.072 319.517 109.072C319.069 109.072 318.701 109.44 318.701 109.888C318.701 110.352 319.053 110.704 319.501 110.704C319.981 110.704 320.333 110.352 320.333 109.888ZM321.501 120V119.76C320.445 119.68 320.317 119.504 320.317 118.32V112.704L320.253 112.64L317.773 113.52V113.776C318.061 113.696 318.301 113.696 318.445 113.696C318.845 113.696 318.973 113.952 318.973 114.704V118.336C318.973 119.552 318.813 119.696 317.709 119.76V120H321.501ZM324.402 115.184C323.954 114.912 323.714 114.448 323.714 114.096C323.714 113.344 324.226 113.008 324.914 113.008C325.874 113.008 326.354 113.536 326.722 114.976H326.962L326.882 112.8H326.706C326.578 112.944 326.514 112.96 326.45 112.96C326.338 112.96 326.178 112.912 326.002 112.832C325.666 112.672 325.314 112.656 324.93 112.656C323.618 112.656 322.722 113.36 322.722 114.624C322.722 115.44 323.314 116.208 324.642 116.944L325.506 117.424C326.034 117.712 326.354 118.128 326.354 118.624C326.354 119.28 325.842 119.808 325.026 119.808C323.922 119.808 323.33 119.104 322.994 117.552H322.738V120.064H322.946C323.042 119.904 323.138 119.872 323.33 119.872C323.506 119.872 323.682 119.888 324.066 120.016C324.434 120.144 324.898 120.16 325.234 120.16C326.45 120.16 327.474 119.232 327.474 118.16C327.474 117.248 327.09 116.816 326.066 116.192L324.402 115.184ZM340.525 120V119.76L340.109 119.728C339.629 119.696 339.421 119.488 339.421 118.768V115.52C339.421 113.632 338.861 112.64 337.565 112.64C336.637 112.64 335.821 113.056 334.957 113.984C334.669 113.072 334.125 112.64 333.261 112.64C332.541 112.64 331.869 112.784 330.813 113.872H330.781V112.688L330.653 112.64C329.837 112.944 329.309 113.12 328.429 113.36V113.632C328.637 113.584 328.765 113.568 328.941 113.568C329.357 113.568 329.501 113.84 329.501 114.624V118.592C329.501 119.52 329.277 119.744 328.381 119.76V120H331.933V119.76C331.085 119.728 330.845 119.568 330.845 118.88V114.432C330.845 114.4 330.941 114.288 331.053 114.16C331.373 113.776 332.157 113.472 332.749 113.472C333.437 113.472 333.789 114.144 333.789 115.248V118.624C333.789 119.6 333.613 119.696 332.701 119.76V120H336.285V119.76C335.373 119.744 335.133 119.52 335.133 118.48V114.448C335.613 113.76 336.093 113.472 336.845 113.472C337.757 113.472 338.077 114 338.077 115.264V118.56C338.077 119.488 337.933 119.664 337.037 119.76V120H340.525Z" fill="black"/>
<path d="M255 117L260 119.887V114.113L255 117ZM271 116.5H259.5V117.5H271V116.5Z" fill="black"/>
</svg>
