<?xml version="1.0" encoding="UTF-8" standalone="no"?>
<!DOCTYPE svg PUBLIC "-//W3C//DTD SVG 1.1//EN"
 "http://www.w3.org/Graphics/SVG/1.1/DTD/svg11.dtd">
<!-- Generated by graphviz version 2.47.3 (20210619.1520)
 -->
<!-- Title: FST Pages: 1 -->
<svg width="369pt" height="107pt"
 viewBox="0.00 0.00 369.00 107.00" xmlns="http://www.w3.org/2000/svg" xmlns:xlink="http://www.w3.org/1999/xlink">
<g id="graph0" class="graph" transform="scale(1 1) rotate(0) translate(4 103)">
<title>FST</title>
<polygon fill="white" stroke="transparent" points="-4,4 -4,-103 365,-103 365,4 -4,4"/>
<!-- 0 -->
<g id="node1" class="node">
<title>0</title>
<ellipse fill="none" stroke="black" stroke-width="2" cx="18" cy="-26" rx="18" ry="18"/>
<text text-anchor="middle" x="18" y="-22.3" font-family="Times,serif" font-size="14.00">0</text>
</g>
<!-- 1 -->
<g id="node2" class="node">
<title>1</title>
<ellipse fill="none" stroke="black" cx="125" cy="-61" rx="18" ry="18"/>
<text text-anchor="middle" x="125" y="-57.3" font-family="Times,serif" font-size="14.00">1</text>
</g>
<!-- 0&#45;&gt;1 -->
<g id="edge1" class="edge">
<title>0&#45;&gt;1</title>
<path fill="none" stroke="black" d="M35.41,-31.47C52.2,-37.07 78.56,-45.85 98.16,-52.39"/>
<polygon fill="black" stroke="black" points="97.12,-55.73 107.71,-55.57 99.33,-49.09 97.12,-55.73"/>
<text text-anchor="middle" x="70" y="-51.8" font-family="Times,serif" font-size="14.00">the/1.2</text>
</g>
<!-- 2 -->
<g id="node3" class="node">
<title>2</title>
<ellipse fill="none" stroke="black" cx="231" cy="-18" rx="18" ry="18"/>
<text text-anchor="middle" x="231" y="-14.3" font-family="Times,serif" font-size="14.00">2</text>
</g>
<!-- 0&#45;&gt;2 -->
<g id="edge2" class="edge">
<title>0&#45;&gt;2</title>
<path fill="none" stroke="black" d="M36.23,-24.2C53.39,-22.5 80.48,-20.06 104,-19 138.04,-17.47 177.3,-17.43 202.83,-17.63"/>
<polygon fill="black" stroke="black" points="202.84,-21.13 212.87,-17.73 202.91,-14.13 202.84,-21.13"/>
<text text-anchor="middle" x="125" y="-22.8" font-family="Times,serif" font-size="14.00">that/6.4</text>
</g>
<!-- 1&#45;&gt;2 -->
<g id="edge3" class="edge">
<title>1&#45;&gt;2</title>
<path fill="none" stroke="black" d="M141.8,-54.47C158.52,-47.56 185.16,-36.54 204.79,-28.42"/>
<polygon fill="black" stroke="black" points="206.15,-31.65 214.06,-24.59 203.48,-25.18 206.15,-31.65"/>
<text text-anchor="middle" x="179.5" y="-48.8" font-family="Times,serif" font-size="14.00">cat/2.8</text>
</g>
<!-- 3 -->
<g id="node4" class="node">
<title>3</title>
<ellipse fill="none" stroke="black" cx="231" cy="-81" rx="18" ry="18"/>
<text text-anchor="middle" x="231" y="-77.3" font-family="Times,serif" font-size="14.00">3</text>
</g>
<!-- 1&#45;&gt;3 -->
<g id="edge4" class="edge">
<title>1&#45;&gt;3</title>
<path fill="none" stroke="black" d="M143.17,-64.3C159.45,-67.43 184.16,-72.19 203.06,-75.82"/>
<polygon fill="black" stroke="black" points="202.67,-79.31 213.15,-77.76 203.99,-72.43 202.67,-79.31"/>
<text text-anchor="middle" x="179.5" y="-77.8" font-family="Times,serif" font-size="14.00">cat/1.7</text>
</g>
<!-- 4 -->
<g id="node5" class="node">
<title>4</title>
<ellipse fill="none" stroke="black" cx="339" cy="-43" rx="18" ry="18"/>
<ellipse fill="none" stroke="black" cx="339" cy="-43" rx="22" ry="22"/>
<text text-anchor="middle" x="339" y="-39.3" font-family="Times,serif" font-size="14.00">4</text>
</g>
<!-- 2&#45;&gt;4 -->
<g id="edge5" class="edge">
<title>2&#45;&gt;4</title>
<path fill="none" stroke="black" d="M249.03,-22.02C264.73,-25.72 288.41,-31.3 307.39,-35.78"/>
<polygon fill="black" stroke="black" points="306.84,-39.25 317.38,-38.14 308.45,-32.43 306.84,-39.25"/>
<text text-anchor="middle" x="283" y="-37.8" font-family="Times,serif" font-size="14.00">sat/3.1</text>
</g>
<!-- 2&#45;&gt;4 -->
<g id="edge6" class="edge">
<title>2&#45;&gt;4</title>
<path fill="none" stroke="black" d="M247.58,-10.91C262.15,-5.35 284.27,0.34 302,-7 308,-9.49 313.53,-13.51 318.35,-17.99"/>
<polygon fill="black" stroke="black" points="315.87,-20.46 325.32,-25.24 320.91,-15.61 315.87,-20.46"/>
<text text-anchor="middle" x="283" y="-10.8" font-family="Times,serif" font-size="14.00">sit/0.9</text>
</g>
<!-- 3&#45;&gt;4 -->
<g id="edge7" class="edge">
<title>3&#45;&gt;4</title>
<path fill="none" stroke="black" d="M248.1,-75.23C264.08,-69.5 288.94,-60.59 308.48,-53.58"/>
<polygon fill="black" stroke="black" points="309.9,-56.79 318.13,-50.12 307.53,-50.2 309.9,-56.79"/>
<text text-anchor="middle" x="283" y="-71.8" font-family="Times,serif" font-size="14.00">hat/1.1</text>
</g>
</g>
</svg>
